<svg width="125" height="46" viewBox="0 0 125 46" fill="none" xmlns="http://www.w3.org/2000/svg">
<path fill-rule="evenodd" clip-rule="evenodd" d="M0 0.616627H8.13499L17.668 22.0386L23.57 9.29563C24.523 7.24463 25.405 5.30162 26.545 3.32062C27.732 1.26062 28.708 0.608616 32.65 0.608616H61.521C55.174 1.48662 44.978 1.08262 43.081 6.59862C42.69 7.74162 42.55 8.77462 42.55 9.97162V20.6706C42.55 22.0226 42.917 22.9786 43.604 24.1826C44.025 24.9286 44.533 25.5736 45.212 26.0866C47.937 28.1456 51.754 27.9976 55.088 27.2676C60.631 26.0476 61.35 22.0076 61.615 17.2676C61.748 14.9676 61.771 12.7296 61.841 10.3986C61.966 6.38162 62.583 2.50463 66.237 1.09763C68.743 0.13463 70.976 0.0956196 73.802 0.0186196C76.667 -0.0593804 79.525 0.0726296 82.249 1.09763C85.661 2.37963 88.019 4.15962 88.628 7.71762H88.683V19.8706C88.683 21.3776 88.745 22.0076 88.347 23.4446C87.769 25.5196 86.684 27.1586 84.873 28.6816C91.454 28.3396 93.352 28.6666 95.67 23.6706C99.168 16.1406 101.37 8.47162 104.289 0.608616H111.628L124.167 29.9796H116.032L113.463 24.1366L102.189 22.0616L112.401 20.7646L106.569 7.67162L100.027 22.1936C99.191 23.9576 98.551 25.9316 97.521 27.5706C96.459 29.2646 95.085 29.9636 92.024 29.9636L61.03 29.9876C69.446 28.8526 79.189 29.6686 81.399 23.1576C81.82 21.9136 81.75 20.7716 81.75 19.4826V8.78263C81.43 5.37963 78.486 3.04062 74.903 2.97062H72.631C66.315 3.07162 65.675 6.95662 64.941 12.3956C64.707 14.1436 64.558 15.8996 64.254 17.6326C63.559 21.6496 61.888 25.5816 58.5 28.0986C55.869 30.0496 53.292 30.6166 49.842 30.6396C46.446 30.6636 42.854 30.5386 40.036 28.6346C38.349 27.4926 37.241 26.1406 36.444 24.2916C35.781 22.7536 35.625 21.7976 35.625 20.1816V8.84462C35.625 7.95962 35.664 7.30662 35.898 6.42862C36.359 4.68062 37.514 3.09563 39.638 1.60363C35.117 1.87563 32.681 1.59563 30.667 3.56963C29.129 5.08463 28.356 7.04262 27.622 8.98462L19.69 29.9876H12.905L0 0.616627Z" fill="#86ACE6"/>
<path d="M6.82198 37.5706H7.64098L11.568 45.4655H10.491L9.41397 43.3445H5.02597L3.97997 45.4655H2.91797L6.82198 37.5706ZM8.98396 42.4196L7.23497 38.9225L5.50197 42.4196H8.98396ZM20.281 37.5706H21.265V41.4945L25.809 37.5706H27.105L23.896 40.3685L27.589 45.4655H26.402L23.193 41.0446L21.265 42.6526V45.4655H20.281V37.5706ZM36.403 37.5706H41.095C42.688 37.5706 43.461 38.2475 43.461 39.5365C43.461 40.1975 43.227 40.6785 42.743 40.9895C43.594 41.4715 44.023 42.1786 44.023 43.0956C44.023 44.5486 43.04 45.4655 41.345 45.4655H36.403V37.5706ZM41.181 40.6945C42.017 40.6945 42.462 40.2985 42.462 39.5985C42.462 38.8525 42.032 38.4875 41.181 38.4875H37.387V40.7025H41.181V40.6945ZM41.54 44.5565C42.485 44.5565 43.001 43.9735 43.001 43.0795C43.001 42.2015 42.485 41.6035 41.54 41.6035H37.395V44.5635H41.54V44.5565ZM56.203 37.5706H57.022L60.949 45.4655H59.872L58.794 43.3445H54.407L53.361 45.4655H52.322L56.203 37.5706ZM58.365 42.4196L56.616 38.9225L54.883 42.4196H58.365ZM69.662 37.5706H70.646V41.4945L75.19 37.5706H76.486L73.277 40.3685L76.97 45.4655H75.775L72.567 41.0446L70.638 42.6526V45.4655H69.654V37.5706H69.662ZM88.251 37.5706H89.071L92.795 45.4655H91.718L88.642 38.9465L85.644 45.4655H84.582L88.251 37.5706ZM103.491 42.8625L99.978 37.5786H101.243L104.171 41.9146L106.895 37.5786H108.043L103.085 45.4735H101.953L103.491 42.8625ZM116.873 37.5706H123.392V38.4805H117.856V40.6945H121.229C122.182 40.6945 123.041 40.8425 123.611 41.4715C123.845 41.7515 124.157 42.2325 124.157 43.0565C124.157 43.9505 123.79 44.4946 123.478 44.7816C122.861 45.3956 121.979 45.4735 121.479 45.4735H116.873V37.5706ZM121.612 44.5565C122.127 44.5565 122.494 44.3925 122.713 44.2065C122.931 44.0125 123.126 43.6785 123.126 43.0795C123.126 42.5045 122.923 42.1865 122.728 41.9995C122.33 41.6345 121.713 41.6035 121.448 41.6035H117.856V44.5635H121.612V44.5565Z" fill="#86ACE6"/>
</svg>
