<svg width="112" height="70" viewBox="0 0 112 70" fill="none" xmlns="http://www.w3.org/2000/svg">
<path d="M23.7073 19.7198C23.7073 20.9471 22.7108 21.9396 21.4875 21.9396C20.2642 21.9396 19.2637 20.9471 19.2637 19.7198C19.2637 18.4925 20.2602 17.5 21.4875 17.5C22.7149 17.5 23.7073 18.4965 23.7073 19.7198Z" fill="#00A5B5"/>
<path d="M46.5022 21.9434C46.5022 23.1707 45.5057 24.1672 44.2824 24.1672C43.0591 24.1672 42.0586 23.1707 42.0586 21.9434C42.0586 20.7161 43.0551 19.7236 44.2824 19.7236C45.5097 19.7236 46.5022 20.7161 46.5022 21.9434Z" fill="#00A5B5"/>
<path d="M92.0838 21.9149C92.0838 23.1422 91.0874 24.1346 89.8645 24.1346C88.6408 24.1346 87.6406 23.1422 87.6406 21.9149C87.6406 20.6875 88.637 19.6951 89.8645 19.6951C91.0913 19.6951 92.0838 20.6875 92.0838 21.9149Z" fill="#00A5B5"/>
<path d="M69.2932 19.7198C69.2932 20.9471 68.2967 21.9396 67.0734 21.9396C65.8501 21.9396 64.8496 20.9471 64.8496 19.7198C64.8496 18.4925 65.8461 17.5 67.0734 17.5C68.3008 17.5 69.2932 18.4965 69.2932 19.7198Z" fill="#00A5B5"/>
<path d="M16.6748 39.6852C14.2484 39.6852 12.2757 37.7124 12.2757 35.2861C12.2757 32.8597 14.2484 30.8871 16.6748 30.8871C17.728 30.8871 18.6961 31.2597 19.4576 31.8795L20.7416 29.7529C19.6034 28.9144 18.1978 28.4121 16.6748 28.4121C12.8793 28.4121 9.80078 31.4906 9.80078 35.2861C9.80078 39.0816 12.8793 42.1601 16.6748 42.1601C18.3436 42.1601 19.8748 41.5647 21.0657 40.5722L19.7614 38.4132C18.9674 39.1991 17.8778 39.6811 16.6748 39.6811" fill="#54565A"/>
<path d="M30.874 28.4121C27.0785 28.4121 24 31.4906 24 35.2861C24 39.0816 27.0785 42.1601 30.874 42.1601C34.6695 42.1601 37.748 39.0856 37.748 35.2861C37.748 31.4866 34.6695 28.4121 30.874 28.4121ZM30.874 30.8142C33.3408 30.8142 35.3459 32.8192 35.3459 35.2861C35.3459 37.7529 33.3368 39.758 30.874 39.758C28.4112 39.758 26.4021 37.7529 26.4021 35.2861C26.4021 32.8192 28.4112 30.8142 30.874 30.8142Z" fill="#54565A"/>
<path d="M81.8564 28.4121C78.0609 28.4121 74.9824 31.4906 74.9824 35.2861C74.9824 39.0816 78.0609 42.1601 81.8564 42.1601C85.6518 42.1601 88.7303 39.0856 88.7303 35.2861C88.7303 31.4866 85.6518 28.4121 81.8564 28.4121ZM81.8564 30.8142C84.3233 30.8142 86.3283 32.8192 86.3283 35.2861C86.3283 37.7529 84.3192 39.758 81.8564 39.758C79.3936 39.758 77.3845 37.7529 77.3845 35.2861C77.3845 32.8192 79.3936 30.8142 81.8564 30.8142Z" fill="#54565A"/>
<path d="M42.0499 32.0861C42.0499 30.0851 43.6094 28.4121 46.2018 28.4121C47.8383 28.4121 49.2074 28.963 50.0094 29.8379L48.7537 31.5879C48.1056 30.96 47.4575 30.5995 46.3921 30.5995C45.2296 30.5995 44.5248 31.1909 44.5248 32.0659C44.5248 34.8284 50.5603 33.9494 50.5603 38.3849C50.5603 40.633 48.5997 42.156 46.1046 42.156C44.3911 42.156 42.3901 41.4148 41.7461 40.0619L43.0787 38.4619C43.8605 39.4704 45.1162 39.9647 46.141 39.9647C47.2469 39.9647 48.0854 39.4097 48.0854 38.4011C48.0854 35.7722 42.0499 36.4203 42.0499 32.082" fill="#54565A"/>
<path d="M93.0268 32.0861C93.0268 30.0851 94.5857 28.4121 97.1782 28.4121C98.8147 28.4121 100.184 28.963 100.986 29.8379L99.7303 31.5879C99.0824 30.96 98.4345 30.5995 97.3691 30.5995C96.2067 30.5995 95.5014 31.1909 95.5014 32.0659C95.5014 34.8284 101.537 33.9494 101.537 38.3849C101.537 40.633 99.5767 42.156 97.0812 42.156C95.3679 42.156 93.3706 41.4148 92.7227 40.0619L94.0558 38.4619C94.8371 39.4704 96.0926 39.9647 97.1216 39.9647C98.2234 39.9647 99.0622 39.4097 99.0622 38.4011C99.0622 35.7722 93.0268 36.4203 93.0268 32.082" fill="#54565A"/>
<path d="M66.274 28.6152L62.7418 37.9641L59.0395 28.6152H56.8643L54.4258 41.946H56.8683L58.4076 33.5327L61.7372 41.946H63.8031L66.999 33.4801L68.753 41.946H71.1996L68.4452 28.6152H66.274Z" fill="#54565A"/>
<path d="M14.0467 53.0245H13.2852V48.6985H14.0507L15.5292 50.7197L16.9388 48.6985H17.6558V53.0245H16.9024V49.8974L15.5373 51.8215H15.428L14.0507 49.9177V53.0286L14.0467 53.0245Z" fill="#54565A"/>
<path d="M19.5215 50.8613C19.5215 50.2294 19.7321 49.7029 20.1533 49.2734C20.5828 48.8441 21.1214 48.6294 21.7736 48.6294C22.4258 48.6294 22.9645 48.836 23.3858 49.2492C23.8152 49.6664 24.0299 50.2051 24.0299 50.8613C24.0299 51.5175 23.8152 52.0441 23.3858 52.4613C22.9564 52.8826 22.4177 53.0933 21.7736 53.0933C21.1296 53.0933 20.5828 52.8867 20.1615 52.4735C19.7361 52.0603 19.5255 51.5215 19.5255 50.8572L19.5215 50.8613ZM20.3235 50.8613C20.3235 51.2988 20.4612 51.6593 20.7366 51.951C21.0121 52.2385 21.3564 52.3843 21.7696 52.3843C22.2151 52.3843 22.5676 52.2385 22.8268 51.951C23.0901 51.6634 23.2237 51.2988 23.2237 50.8613C23.2237 50.4239 23.082 50.0552 22.8025 49.7677C22.523 49.4841 22.1787 49.3423 21.7696 49.3423C21.3604 49.3423 21.0081 49.4841 20.7326 49.7677C20.4612 50.0512 20.3235 50.4157 20.3235 50.8613Z" fill="#54565A"/>
<path d="M27.6356 51.874C27.6356 51.7403 27.587 51.6269 27.4898 51.5257C27.3926 51.4244 27.271 51.3434 27.1292 51.2785C26.9834 51.2137 26.8255 51.1408 26.6554 51.0557C26.4852 50.9707 26.3272 50.8815 26.1814 50.7884C26.0356 50.6952 25.9181 50.5656 25.8209 50.3995C25.7237 50.2335 25.6751 50.039 25.6751 49.8203C25.6751 49.4841 25.7966 49.2046 26.0396 48.9737C26.2908 48.7428 26.6189 48.6294 27.0239 48.6294C27.5708 48.6294 27.984 48.7833 28.2594 49.0912L27.8503 49.6624C27.6315 49.4476 27.3764 49.3423 27.0847 49.3423C26.8984 49.3423 26.7526 49.3869 26.6432 49.4719C26.5338 49.557 26.4812 49.6745 26.4812 49.8162C26.4812 49.8892 26.4974 49.958 26.5257 50.0229C26.5541 50.0877 26.5865 50.1403 26.6229 50.1808C26.6594 50.2214 26.7161 50.2659 26.7971 50.3185C26.8781 50.3672 26.9429 50.4036 26.9875 50.4279C27.0361 50.4522 27.1131 50.4846 27.2265 50.5372C27.3399 50.5859 27.4169 50.6224 27.4614 50.6426C27.6437 50.7236 27.8017 50.8127 27.9394 50.9018C28.0933 50.9909 28.2149 51.1205 28.308 51.2907C28.4012 51.4608 28.4457 51.6552 28.4457 51.87C28.4457 52.2345 28.308 52.5262 28.0325 52.753C27.7571 52.9798 27.4129 53.0933 26.9997 53.0933C26.7121 53.0933 26.4244 53.0325 26.1409 52.915C25.8696 52.7895 25.6832 52.6233 25.5859 52.4127L26.0194 51.8942C26.1369 52.0482 26.2827 52.1657 26.469 52.2507C26.6513 52.3358 26.8336 52.3803 27.0159 52.3803C27.1981 52.3803 27.3561 52.3358 27.4736 52.2426C27.591 52.1535 27.6477 52.0279 27.6477 51.87L27.6356 51.874Z" fill="#54565A"/>
<path d="M33.3119 52.036L33.6036 52.6031C33.4659 52.749 33.2714 52.8664 33.0203 52.9555C32.7651 53.0446 32.4978 53.0933 32.2183 53.0933C31.558 53.0933 31.0193 52.8907 30.6061 52.4816C30.193 52.0725 29.9863 51.5337 29.9863 50.8613C29.9863 50.1889 30.1808 49.6866 30.5737 49.2613C30.9626 48.8401 31.5013 48.6294 32.2021 48.6294C32.7529 48.6294 33.1944 48.7752 33.5186 49.0669L33.1783 49.6299C32.8866 49.4355 32.5586 49.3382 32.2021 49.3382C31.7889 49.3382 31.4527 49.476 31.1894 49.7514C30.9261 50.0269 30.7925 50.3955 30.7925 50.8572C30.7925 51.319 30.9301 51.6795 31.2056 51.959C31.4851 52.2385 31.8456 52.3803 32.2871 52.3803C32.6679 52.3803 33.0081 52.2669 33.3119 52.036Z" fill="#54565A"/>
<path d="M34.8477 50.8613C34.8477 50.2294 35.0583 49.7029 35.4795 49.2734C35.9089 48.8441 36.4477 48.6294 37.0998 48.6294C37.752 48.6294 38.2866 48.836 38.712 49.2492C39.1413 49.6664 39.3561 50.2051 39.3561 50.8613C39.3561 51.5175 39.1413 52.0441 38.712 52.4613C38.2826 52.8785 37.7438 53.0933 37.0998 53.0933C36.4558 53.0933 35.9089 52.8867 35.4877 52.4735C35.0624 52.0603 34.8517 51.5215 34.8517 50.8572L34.8477 50.8613ZM35.6497 50.8613C35.6497 51.2988 35.7874 51.6593 36.0629 51.951C36.3383 52.2385 36.6826 52.3843 37.0958 52.3843C37.5413 52.3843 37.8938 52.2385 38.153 51.951C38.4163 51.6634 38.55 51.2988 38.55 50.8613C38.55 50.4239 38.4082 50.0552 38.1287 49.7677C37.8492 49.4841 37.5048 49.3423 37.0958 49.3423C36.6867 49.3423 36.3342 49.4841 36.0588 49.7677C35.7874 50.0512 35.6497 50.4157 35.6497 50.8613Z" fill="#54565A"/>
<path d="M45.8393 48.6985H46.5684L45.3329 53.0245H44.6201L43.5749 49.8974L42.5501 53.0245H41.8332L40.541 48.6985H41.3957L42.2666 51.7851L43.2306 48.6985H43.9841L44.9724 51.7891L45.8393 48.6985Z" fill="#54565A"/>
<path d="M53.1322 48.6985H53.8938L52.1641 53.0408H51.5889L49.8066 48.6985H50.6167L51.9008 51.9066L53.1322 48.6985Z" fill="#54565A"/>
<path d="M55.5616 53.0236H55.4766V48.6975H55.5576C55.7398 48.6975 55.9303 48.6975 56.1328 48.6894C56.5378 48.6814 56.7444 48.6772 56.7525 48.6772C57.5951 48.6772 58.2148 48.892 58.6199 49.3213C58.9966 49.7223 59.1829 50.2205 59.1829 50.816C59.1829 51.4601 58.9682 51.9907 58.5348 52.412C58.1054 52.8292 57.4979 53.0358 56.7039 53.0358C56.5378 53.0358 56.3636 53.0358 56.1854 53.0277C56.0072 53.0236 55.8006 53.0196 55.5657 53.0196L55.5616 53.0236ZM56.7363 49.3902C56.5743 49.3902 56.4083 49.3942 56.2341 49.4064V52.3107C56.4244 52.3188 56.5864 52.3229 56.7241 52.3229C57.2386 52.3229 57.6437 52.1851 57.9353 51.9138C58.2269 51.6423 58.3728 51.2738 58.3728 50.812C58.3728 50.3502 58.2269 50.0221 57.9353 49.7669C57.6437 49.5117 57.2426 49.382 56.7323 49.382L56.7363 49.3902Z" fill="#54565A"/>
<path d="M64.7394 48.6985V53.0245H64.1319L61.7501 50.0271V53.0245H61.0371V48.6985H61.6447L64.0265 51.7081V48.6985H64.7394Z" fill="#54565A"/>
<path d="M70.4194 53.0245H69.666V51.1774H67.6893V53.0245H66.9277V48.6985H67.6893V50.4686H69.666V48.6985H70.4194V53.0245Z" fill="#54565A"/>
<path d="M78.3413 53.0245H77.5879V51.1774H75.6111V53.0245H74.8496V48.6985H75.6111V50.4686H77.5879V48.6985H78.3413V53.0245Z" fill="#54565A"/>
<path d="M80.2109 50.8613C80.2109 50.2294 80.4215 49.7029 80.8428 49.2734C81.2722 48.8441 81.811 48.6294 82.4631 48.6294C83.1153 48.6294 83.6539 48.836 84.0752 49.2492C84.5046 49.6664 84.7193 50.2051 84.7193 50.8613C84.7193 51.5175 84.5046 52.0441 84.0752 52.4613C83.6459 52.8826 83.1071 53.0933 82.4631 53.0933C81.819 53.0933 81.2722 52.8867 80.8509 52.4735C80.4256 52.0603 80.215 51.5215 80.215 50.8572L80.2109 50.8613ZM81.013 50.8613C81.013 51.2988 81.1507 51.6593 81.4261 51.951C81.7016 52.2385 82.0458 52.3843 82.459 52.3843C82.9046 52.3843 83.257 52.2385 83.5163 51.951C83.7796 51.6634 83.9132 51.2988 83.9132 50.8613C83.9132 50.4239 83.7714 50.0552 83.4919 49.7677C83.2124 49.4841 82.8681 49.3423 82.459 49.3423C82.0499 49.3423 81.6975 49.4841 81.4221 49.7677C81.1507 50.0512 81.013 50.4157 81.013 50.8613Z" fill="#54565A"/>
<path d="M87.2468 49.4073H85.8457V48.6985H89.4141V49.4073H88.0127V53.0245H87.2515V49.4073H87.2468Z" fill="#54565A"/>
<path d="M93.6282 53.0245H91.0645V48.6985H93.5677V49.4073H91.8257V50.4848H93.3853V51.1977H91.8257V52.3157H93.6329V53.0245H93.6282Z" fill="#54565A"/>
<path d="M98.3151 53.0245H95.6055V48.6985H96.3667V52.3157H98.3151V53.0245Z" fill="#54565A"/>
<path d="M23.7073 19.7198C23.7073 20.9471 22.7108 21.9396 21.4875 21.9396C20.2642 21.9396 19.2637 20.9471 19.2637 19.7198C19.2637 18.4925 20.2602 17.5 21.4875 17.5C22.7149 17.5 23.7073 18.4965 23.7073 19.7198Z" fill="#227BDD"/>
<path d="M46.5022 21.9434C46.5022 23.1707 45.5057 24.1672 44.2824 24.1672C43.0591 24.1672 42.0586 23.1707 42.0586 21.9434C42.0586 20.7161 43.0551 19.7236 44.2824 19.7236C45.5097 19.7236 46.5022 20.7161 46.5022 21.9434Z" fill="#227BDD"/>
<path d="M92.0838 21.9149C92.0838 23.1422 91.0874 24.1346 89.8645 24.1346C88.6408 24.1346 87.6406 23.1422 87.6406 21.9149C87.6406 20.6875 88.637 19.6951 89.8645 19.6951C91.0913 19.6951 92.0838 20.6875 92.0838 21.9149Z" fill="#227BDD"/>
<path d="M69.2932 19.7198C69.2932 20.9471 68.2967 21.9396 67.0734 21.9396C65.8501 21.9396 64.8496 20.9471 64.8496 19.7198C64.8496 18.4925 65.8461 17.5 67.0734 17.5C68.3008 17.5 69.2932 18.4965 69.2932 19.7198Z" fill="#227BDD"/>
<path d="M16.6748 39.6852C14.2484 39.6852 12.2757 37.7124 12.2757 35.2861C12.2757 32.8597 14.2484 30.8871 16.6748 30.8871C17.728 30.8871 18.6961 31.2597 19.4576 31.8795L20.7416 29.7529C19.6034 28.9144 18.1978 28.4121 16.6748 28.4121C12.8793 28.4121 9.80078 31.4906 9.80078 35.2861C9.80078 39.0816 12.8793 42.1601 16.6748 42.1601C18.3436 42.1601 19.8748 41.5647 21.0657 40.5722L19.7614 38.4132C18.9674 39.1991 17.8778 39.6811 16.6748 39.6811" fill="#227BDD"/>
<path d="M30.874 28.4121C27.0785 28.4121 24 31.4906 24 35.2861C24 39.0816 27.0785 42.1601 30.874 42.1601C34.6695 42.1601 37.748 39.0856 37.748 35.2861C37.748 31.4866 34.6695 28.4121 30.874 28.4121ZM30.874 30.8142C33.3408 30.8142 35.3459 32.8192 35.3459 35.2861C35.3459 37.7529 33.3368 39.758 30.874 39.758C28.4112 39.758 26.4021 37.7529 26.4021 35.2861C26.4021 32.8192 28.4112 30.8142 30.874 30.8142Z" fill="#227BDD"/>
<path d="M81.8564 28.4121C78.0609 28.4121 74.9824 31.4906 74.9824 35.2861C74.9824 39.0816 78.0609 42.1601 81.8564 42.1601C85.6518 42.1601 88.7303 39.0856 88.7303 35.2861C88.7303 31.4866 85.6518 28.4121 81.8564 28.4121ZM81.8564 30.8142C84.3233 30.8142 86.3283 32.8192 86.3283 35.2861C86.3283 37.7529 84.3192 39.758 81.8564 39.758C79.3936 39.758 77.3845 37.7529 77.3845 35.2861C77.3845 32.8192 79.3936 30.8142 81.8564 30.8142Z" fill="#227BDD"/>
<path d="M42.0499 32.0861C42.0499 30.0851 43.6094 28.4121 46.2018 28.4121C47.8383 28.4121 49.2074 28.963 50.0094 29.8379L48.7537 31.5879C48.1056 30.96 47.4575 30.5995 46.3921 30.5995C45.2296 30.5995 44.5248 31.1909 44.5248 32.0659C44.5248 34.8284 50.5603 33.9494 50.5603 38.3849C50.5603 40.633 48.5997 42.156 46.1046 42.156C44.3911 42.156 42.3901 41.4148 41.7461 40.0619L43.0787 38.4619C43.8605 39.4704 45.1162 39.9647 46.141 39.9647C47.2469 39.9647 48.0854 39.4097 48.0854 38.4011C48.0854 35.7722 42.0499 36.4203 42.0499 32.082" fill="#227BDD"/>
<path d="M93.0268 32.0861C93.0268 30.0851 94.5857 28.4121 97.1782 28.4121C98.8147 28.4121 100.184 28.963 100.986 29.8379L99.7303 31.5879C99.0824 30.96 98.4345 30.5995 97.3691 30.5995C96.2067 30.5995 95.5014 31.1909 95.5014 32.0659C95.5014 34.8284 101.537 33.9494 101.537 38.3849C101.537 40.633 99.5767 42.156 97.0812 42.156C95.3679 42.156 93.3706 41.4148 92.7227 40.0619L94.0558 38.4619C94.8371 39.4704 96.0926 39.9647 97.1216 39.9647C98.2234 39.9647 99.0622 39.4097 99.0622 38.4011C99.0622 35.7722 93.0268 36.4203 93.0268 32.082" fill="#227BDD"/>
<path d="M66.274 28.6152L62.7418 37.9641L59.0395 28.6152H56.8643L54.4258 41.946H56.8683L58.4076 33.5327L61.7372 41.946H63.8031L66.999 33.4801L68.753 41.946H71.1996L68.4452 28.6152H66.274Z" fill="#227BDD"/>
<path d="M14.0467 53.0245H13.2852V48.6985H14.0507L15.5292 50.7197L16.9388 48.6985H17.6558V53.0245H16.9024V49.8974L15.5373 51.8215H15.428L14.0507 49.9177V53.0286L14.0467 53.0245Z" fill="#227BDD"/>
<path d="M19.5215 50.8613C19.5215 50.2294 19.7321 49.7029 20.1533 49.2734C20.5828 48.8441 21.1214 48.6294 21.7736 48.6294C22.4258 48.6294 22.9645 48.836 23.3858 49.2492C23.8152 49.6664 24.0299 50.2051 24.0299 50.8613C24.0299 51.5175 23.8152 52.0441 23.3858 52.4613C22.9564 52.8826 22.4177 53.0933 21.7736 53.0933C21.1296 53.0933 20.5828 52.8867 20.1615 52.4735C19.7361 52.0603 19.5255 51.5215 19.5255 50.8572L19.5215 50.8613ZM20.3235 50.8613C20.3235 51.2988 20.4612 51.6593 20.7366 51.951C21.0121 52.2385 21.3564 52.3843 21.7696 52.3843C22.2151 52.3843 22.5676 52.2385 22.8268 51.951C23.0901 51.6634 23.2237 51.2988 23.2237 50.8613C23.2237 50.4239 23.082 50.0552 22.8025 49.7677C22.523 49.4841 22.1787 49.3423 21.7696 49.3423C21.3604 49.3423 21.0081 49.4841 20.7326 49.7677C20.4612 50.0512 20.3235 50.4157 20.3235 50.8613Z" fill="#227BDD"/>
<path d="M27.6356 51.874C27.6356 51.7403 27.587 51.6269 27.4898 51.5257C27.3926 51.4244 27.271 51.3434 27.1292 51.2785C26.9834 51.2137 26.8255 51.1408 26.6554 51.0557C26.4852 50.9707 26.3272 50.8815 26.1814 50.7884C26.0356 50.6952 25.9181 50.5656 25.8209 50.3995C25.7237 50.2335 25.6751 50.039 25.6751 49.8203C25.6751 49.4841 25.7966 49.2046 26.0396 48.9737C26.2908 48.7428 26.6189 48.6294 27.0239 48.6294C27.5708 48.6294 27.984 48.7833 28.2594 49.0912L27.8503 49.6624C27.6315 49.4476 27.3764 49.3423 27.0847 49.3423C26.8984 49.3423 26.7526 49.3869 26.6432 49.4719C26.5338 49.557 26.4812 49.6745 26.4812 49.8162C26.4812 49.8892 26.4974 49.958 26.5257 50.0229C26.5541 50.0877 26.5865 50.1403 26.6229 50.1808C26.6594 50.2214 26.7161 50.2659 26.7971 50.3185C26.8781 50.3672 26.9429 50.4036 26.9875 50.4279C27.0361 50.4522 27.1131 50.4846 27.2265 50.5372C27.3399 50.5859 27.4169 50.6224 27.4614 50.6426C27.6437 50.7236 27.8017 50.8127 27.9394 50.9018C28.0933 50.9909 28.2149 51.1205 28.308 51.2907C28.4012 51.4608 28.4457 51.6552 28.4457 51.87C28.4457 52.2345 28.308 52.5262 28.0325 52.753C27.7571 52.9798 27.4129 53.0933 26.9997 53.0933C26.7121 53.0933 26.4244 53.0325 26.1409 52.915C25.8696 52.7895 25.6832 52.6233 25.5859 52.4127L26.0194 51.8942C26.1369 52.0482 26.2827 52.1657 26.469 52.2507C26.6513 52.3358 26.8336 52.3803 27.0159 52.3803C27.1981 52.3803 27.3561 52.3358 27.4736 52.2426C27.591 52.1535 27.6477 52.0279 27.6477 51.87L27.6356 51.874Z" fill="#227BDD"/>
<path d="M33.3119 52.036L33.6036 52.6031C33.4659 52.749 33.2714 52.8664 33.0203 52.9555C32.7651 53.0446 32.4978 53.0933 32.2183 53.0933C31.558 53.0933 31.0193 52.8907 30.6061 52.4816C30.193 52.0725 29.9863 51.5337 29.9863 50.8613C29.9863 50.1889 30.1808 49.6866 30.5737 49.2613C30.9626 48.8401 31.5013 48.6294 32.2021 48.6294C32.7529 48.6294 33.1944 48.7752 33.5186 49.0669L33.1783 49.6299C32.8866 49.4355 32.5586 49.3382 32.2021 49.3382C31.7889 49.3382 31.4527 49.476 31.1894 49.7514C30.9261 50.0269 30.7925 50.3955 30.7925 50.8572C30.7925 51.319 30.9301 51.6795 31.2056 51.959C31.4851 52.2385 31.8456 52.3803 32.2871 52.3803C32.6679 52.3803 33.0081 52.2669 33.3119 52.036Z" fill="#227BDD"/>
<path d="M34.8477 50.8613C34.8477 50.2294 35.0583 49.7029 35.4795 49.2734C35.9089 48.8441 36.4477 48.6294 37.0998 48.6294C37.752 48.6294 38.2866 48.836 38.712 49.2492C39.1413 49.6664 39.3561 50.2051 39.3561 50.8613C39.3561 51.5175 39.1413 52.0441 38.712 52.4613C38.2826 52.8785 37.7438 53.0933 37.0998 53.0933C36.4558 53.0933 35.9089 52.8867 35.4877 52.4735C35.0624 52.0603 34.8517 51.5215 34.8517 50.8572L34.8477 50.8613ZM35.6497 50.8613C35.6497 51.2988 35.7874 51.6593 36.0629 51.951C36.3383 52.2385 36.6826 52.3843 37.0958 52.3843C37.5413 52.3843 37.8938 52.2385 38.153 51.951C38.4163 51.6634 38.55 51.2988 38.55 50.8613C38.55 50.4239 38.4082 50.0552 38.1287 49.7677C37.8492 49.4841 37.5048 49.3423 37.0958 49.3423C36.6867 49.3423 36.3342 49.4841 36.0588 49.7677C35.7874 50.0512 35.6497 50.4157 35.6497 50.8613Z" fill="#227BDD"/>
<path d="M45.8393 48.6985H46.5684L45.3329 53.0245H44.6201L43.5749 49.8974L42.5501 53.0245H41.8332L40.541 48.6985H41.3957L42.2666 51.7851L43.2306 48.6985H43.9841L44.9724 51.7891L45.8393 48.6985Z" fill="#227BDD"/>
<path d="M53.1322 48.6985H53.8938L52.1641 53.0408H51.5889L49.8066 48.6985H50.6167L51.9008 51.9066L53.1322 48.6985Z" fill="#227BDD"/>
<path d="M55.5616 53.0236H55.4766V48.6975H55.5576C55.7398 48.6975 55.9303 48.6975 56.1328 48.6894C56.5378 48.6814 56.7444 48.6772 56.7525 48.6772C57.5951 48.6772 58.2148 48.892 58.6199 49.3213C58.9966 49.7223 59.1829 50.2205 59.1829 50.816C59.1829 51.4601 58.9682 51.9907 58.5348 52.412C58.1054 52.8292 57.4979 53.0358 56.7039 53.0358C56.5378 53.0358 56.3636 53.0358 56.1854 53.0277C56.0072 53.0236 55.8006 53.0196 55.5657 53.0196L55.5616 53.0236ZM56.7363 49.3902C56.5743 49.3902 56.4083 49.3942 56.2341 49.4064V52.3107C56.4244 52.3188 56.5864 52.3229 56.7241 52.3229C57.2386 52.3229 57.6437 52.1851 57.9353 51.9138C58.2269 51.6423 58.3728 51.2738 58.3728 50.812C58.3728 50.3502 58.2269 50.0221 57.9353 49.7669C57.6437 49.5117 57.2426 49.382 56.7323 49.382L56.7363 49.3902Z" fill="#227BDD"/>
<path d="M64.7394 48.6985V53.0245H64.1319L61.7501 50.0271V53.0245H61.0371V48.6985H61.6447L64.0265 51.7081V48.6985H64.7394Z" fill="#227BDD"/>
<path d="M70.4194 53.0245H69.666V51.1774H67.6893V53.0245H66.9277V48.6985H67.6893V50.4686H69.666V48.6985H70.4194V53.0245Z" fill="#227BDD"/>
<path d="M78.3413 53.0245H77.5879V51.1774H75.6111V53.0245H74.8496V48.6985H75.6111V50.4686H77.5879V48.6985H78.3413V53.0245Z" fill="#227BDD"/>
<path d="M80.2109 50.8613C80.2109 50.2294 80.4215 49.7029 80.8428 49.2734C81.2722 48.8441 81.811 48.6294 82.4631 48.6294C83.1153 48.6294 83.6539 48.836 84.0752 49.2492C84.5046 49.6664 84.7193 50.2051 84.7193 50.8613C84.7193 51.5175 84.5046 52.0441 84.0752 52.4613C83.6459 52.8826 83.1071 53.0933 82.4631 53.0933C81.819 53.0933 81.2722 52.8867 80.8509 52.4735C80.4256 52.0603 80.215 51.5215 80.215 50.8572L80.2109 50.8613ZM81.013 50.8613C81.013 51.2988 81.1507 51.6593 81.4261 51.951C81.7016 52.2385 82.0458 52.3843 82.459 52.3843C82.9046 52.3843 83.257 52.2385 83.5163 51.951C83.7796 51.6634 83.9132 51.2988 83.9132 50.8613C83.9132 50.4239 83.7714 50.0552 83.4919 49.7677C83.2124 49.4841 82.8681 49.3423 82.459 49.3423C82.0499 49.3423 81.6975 49.4841 81.4221 49.7677C81.1507 50.0512 81.013 50.4157 81.013 50.8613Z" fill="#227BDD"/>
<path d="M87.2468 49.4073H85.8457V48.6985H89.4141V49.4073H88.0127V53.0245H87.2515V49.4073H87.2468Z" fill="#227BDD"/>
<path d="M93.6282 53.0245H91.0645V48.6985H93.5677V49.4073H91.8257V50.4848H93.3853V51.1977H91.8257V52.3157H93.6329V53.0245H93.6282Z" fill="#227BDD"/>
<path d="M98.3151 53.0245H95.6055V48.6985H96.3667V52.3157H98.3151V53.0245Z" fill="#227BDD"/>
</svg>
