<svg width="98" height="70" viewBox="0 0 98 70" fill="none" xmlns="http://www.w3.org/2000/svg">
<path d="M53.2285 12.6001C53.3756 12.6003 53.52 12.6386 53.6478 12.711C53.7756 12.7835 53.8823 12.8878 53.9574 13.0136C54.0325 13.1394 54.0736 13.2825 54.0765 13.4288C54.0794 13.5751 54.0442 13.7197 53.9741 13.8484L49.6779 23.5205C49.6035 23.6476 49.4971 23.7532 49.3694 23.8272C49.2417 23.9012 49.0968 23.9409 48.949 23.9426C48.8007 23.9433 48.6549 23.9045 48.5268 23.8303C48.3986 23.7561 48.2927 23.6491 48.22 23.5205L43.9239 13.8484C43.8611 13.7236 43.8311 13.5851 43.8366 13.4456C43.8366 13.2223 43.9253 13.0081 44.0835 12.8497C44.2415 12.6913 44.4562 12.6016 44.6805 12.6001H47.9567V14.4071H46.1163V16.2913H47.9567V18.2555H49.8498V16.2913H51.7969V14.4071H49.8498V12.6001H53.2285Z" fill="#E33623"/>
<path d="M42.0856 22.0999C42.2267 21.9873 42.3437 21.8476 42.4294 21.689C42.5151 21.5305 42.5679 21.3563 42.5845 21.1771C42.7868 19.0819 39.0769 18.8322 38.6486 21.4613C38.3715 23.1385 39.7989 24.5538 41.1529 24.6228H41.2915C46.142 24.5938 46.0713 17.3866 41.1654 17.3866C38.1373 17.3866 36.161 19.6777 34.4287 21.7757C34.724 21.5958 35.0652 21.5043 35.4113 21.5123C36.8443 21.5123 37.5122 22.6447 38.535 23.544C38.1264 22.8973 37.9719 22.1233 38.1012 21.3702C38.3493 20.0005 39.3139 19.0515 40.8369 19.0115C43.3314 18.9466 43.8332 21.9206 42.0578 22.7564C41.806 22.8756 41.5327 22.9431 41.2542 22.955C40.9756 22.9668 40.6975 22.9227 40.4364 22.8254C40.2796 22.7646 40.1442 22.6592 40.0471 22.5224C39.95 22.3855 39.8955 22.2232 39.8904 22.0557C39.8946 21.9031 39.9578 21.758 40.0668 21.6505C40.1758 21.5431 40.3223 21.4817 40.4757 21.479C40.629 21.4764 40.7776 21.5327 40.8903 21.6362C41.003 21.7398 41.0712 21.8827 41.0809 22.0351C41.0802 22.0812 41.0835 22.1273 41.0905 22.173C41.1432 22.4819 41.7252 22.3551 42.0897 22.0985L42.0856 22.0999ZM40.6277 15.8252C40.8411 16.1135 41.1682 16.3038 41.3206 16.1162C41.3489 16.0815 41.3744 16.0446 41.3968 16.0059C41.476 15.8749 41.6043 15.7806 41.7533 15.7438C41.9024 15.7069 42.06 15.7305 42.1916 15.8093C42.3232 15.8881 42.4179 16.0158 42.4549 16.1641C42.492 16.3125 42.4683 16.4694 42.3891 16.6004C42.3064 16.7365 42.1834 16.844 42.0371 16.908C43.0231 17.0601 43.9145 17.5786 44.5316 18.3591L44.2711 17.7852L44.1422 17.4859L43.2497 15.4652C43.0962 15.1324 42.9036 14.8189 42.676 14.5313C42.1147 13.9065 41.085 13.9948 40.6914 14.6238C40.5723 14.7994 40.5034 15.004 40.4922 15.2157C40.481 15.4273 40.5278 15.638 40.6277 15.8252ZM57.6197 16.2928C57.4455 16.5266 57.2154 16.7134 56.9503 16.8362C62.624 17.0225 64.8208 24.6255 67.8196 24.6255C70.6649 24.6255 70.4112 21.5633 68.5013 21.315C68.0425 21.2543 67.4231 21.5164 67.5606 21.8033C67.5801 21.8449 67.6038 21.8846 67.6311 21.922C67.7194 22.0522 67.752 22.2119 67.7218 22.3661C67.6916 22.5203 67.6015 22.6563 67.4705 22.7441C67.3395 22.8318 67.1788 22.8643 67.0241 22.8343C66.8694 22.8043 66.7325 22.7143 66.6442 22.584C66.5517 22.4446 66.5019 22.281 66.5019 22.1137C66.5019 21.9464 66.5517 21.7828 66.6442 21.6433C66.8344 21.3619 67.0923 21.1318 67.394 20.9739C67.6951 20.816 68.0318 20.7351 68.3727 20.7384C68.4983 20.7396 68.6228 20.7545 68.7455 20.7826C71.1486 21.3012 71.2968 25.1772 67.8196 25.1772C66.4782 25.1772 65.3555 24.0241 64.1652 22.6061C64.2737 22.8537 64.3342 23.1196 64.3425 23.3896C64.3425 24.031 64.1024 24.4517 63.7882 24.7248C63.5541 24.9325 63.2705 25.0764 62.9643 25.1426C62.6581 25.2088 62.3398 25.1951 62.0405 25.1028C61.8822 25.0662 61.7376 24.9851 61.6241 24.8692C61.5106 24.7533 61.433 24.6075 61.4003 24.449C61.3736 24.2984 61.4082 24.1435 61.4963 24.0183C61.5844 23.8931 61.7188 23.8078 61.8701 23.7813C62.0213 23.7548 62.177 23.7892 62.3028 23.8769C62.4286 23.9646 62.5142 24.0984 62.5408 24.2489C62.5475 24.2929 62.5577 24.3363 62.5713 24.3786C62.6212 24.5276 62.7903 24.5427 62.9871 24.482C63.0945 24.4488 63.1974 24.4025 63.2933 24.3441C63.3648 24.2976 63.432 24.2449 63.4942 24.1868C63.5974 24.0822 63.6762 23.957 63.7272 23.8196C63.7776 23.6822 63.7983 23.5356 63.7882 23.3896C63.7882 23.0089 63.5025 22.0723 62.4937 22.0723C60.5299 22.0723 60.0892 25.0751 56.7618 25.18H56.6426H56.5692C53.4427 25.1386 52.1081 22.4957 52.5502 20.195L50.8082 24.0917C50.4659 24.8586 49.6676 25.1841 48.9498 25.1827C48.2319 25.1814 47.4253 24.86 47.0913 24.0917L46.8238 23.4834L45.3562 20.1977C45.79 22.4985 44.4554 25.1414 41.3303 25.1827H41.2568H41.1376C37.8116 25.0779 37.3695 22.0751 35.4058 22.0751C34.3955 22.0751 34.1113 23.0116 34.1113 23.3924C34.102 23.5381 34.1236 23.6841 34.1746 23.821C34.2257 23.9579 34.3052 24.0826 34.408 24.1868C34.4711 24.2432 34.5388 24.2944 34.6103 24.3399C34.7061 24.3986 34.809 24.4449 34.9165 24.4779C35.1106 24.5386 35.281 24.5234 35.3323 24.3744C35.3464 24.3321 35.357 24.2888 35.3642 24.2448C35.3774 24.1705 35.4051 24.0996 35.4459 24.036C35.4866 23.9724 35.5395 23.9174 35.6017 23.8742C35.6637 23.8309 35.7338 23.8003 35.8078 23.7841C35.8817 23.7678 35.9582 23.7661 36.0328 23.7793C36.1075 23.7924 36.1788 23.82 36.2426 23.8606C36.3065 23.9011 36.3618 23.9538 36.4052 24.0156C36.4487 24.0774 36.4794 24.1471 36.4958 24.2207C36.5121 24.2944 36.5138 24.3705 36.5006 24.4448C36.4684 24.6035 36.3909 24.7497 36.2773 24.8657C36.1637 24.9816 36.0189 25.0625 35.8603 25.0986C35.561 25.1907 35.2428 25.2043 34.9366 25.138C34.6305 25.0718 34.3467 24.9281 34.1128 24.7207C33.7995 24.4448 33.5584 24.031 33.5584 23.3854C33.569 23.117 33.6306 22.8531 33.74 22.6075C32.5495 24.0255 31.427 25.1786 30.0854 25.1786C26.6069 25.1786 26.7594 21.3026 29.1583 20.784C29.2815 20.7559 29.4075 20.7411 29.5339 20.7398C29.873 20.737 30.2077 20.8174 30.5082 20.974C30.8087 21.1307 31.0657 21.3587 31.2565 21.6378C31.3497 21.7771 31.3995 21.9407 31.3995 22.1081C31.3995 22.2755 31.3497 22.4392 31.2565 22.5785C31.2135 22.6445 31.1577 22.7012 31.0925 22.7455C31.0271 22.7897 30.9537 22.8206 30.8763 22.8362C30.7989 22.8519 30.7191 22.8521 30.6417 22.8367C30.5642 22.8214 30.4906 22.7908 30.4251 22.7468C30.3596 22.7029 30.3037 22.6463 30.2604 22.5805C30.2171 22.5148 30.1874 22.4411 30.1731 22.3638C30.1588 22.2864 30.1601 22.2071 30.1769 22.1303C30.1937 22.0535 30.2258 21.9808 30.2711 21.9164C30.2972 21.8787 30.3204 21.839 30.3404 21.7978C30.479 21.5109 29.8595 21.246 29.4008 21.3095C27.4911 21.5592 27.2375 24.62 30.0827 24.62C33.0817 24.62 35.2782 17.0169 40.9519 16.8307C40.6867 16.7076 40.4562 16.5208 40.2812 16.2873C39.8391 15.7355 39.8349 14.9396 40.2189 14.3244C40.8258 13.3561 42.3073 13.2899 43.0931 14.1603C43.6696 14.8044 44.2586 16.3162 44.6536 17.2501L47.5902 23.8379C48.0961 24.9717 49.8007 24.9717 50.3065 23.8379L53.2459 17.2501C53.6409 16.3162 54.2285 14.8044 54.8064 14.1603C55.5921 13.2858 57.0736 13.3561 57.682 14.3299C57.8753 14.624 57.9729 14.97 57.9618 15.3212C57.9506 15.6723 57.8312 16.0115 57.6197 16.2928ZM57.2746 15.8252C57.3744 15.638 57.4213 15.4273 57.41 15.2157C57.3988 15.004 57.3299 14.7994 57.2108 14.6238C56.8172 13.9948 55.7876 13.9065 55.2263 14.5313C54.9944 14.8172 54.7981 15.1298 54.6415 15.4624L53.7531 17.4832L53.6242 17.7825L53.3637 18.3563C53.9808 17.5759 54.8722 17.0573 55.8582 16.9052C55.7135 16.8418 55.592 16.7353 55.5104 16.6004C55.4315 16.4698 55.4081 16.3134 55.4451 16.1655C55.4821 16.0177 55.5767 15.8905 55.7079 15.8121C55.8391 15.7336 55.9963 15.7102 56.1448 15.7471C56.2933 15.784 56.421 15.878 56.4999 16.0086C56.5223 16.0474 56.5478 16.0843 56.5761 16.119C56.7313 16.3066 57.0584 16.119 57.269 15.8279L57.2746 15.8252ZM55.8139 22.0999C56.1784 22.3564 56.7604 22.4834 56.8117 22.1744C56.8192 22.1288 56.8229 22.0827 56.8228 22.0364C56.8255 21.8795 56.8908 21.7301 57.0043 21.621C57.1177 21.512 57.2701 21.4523 57.4277 21.455C57.5854 21.4578 57.7355 21.5227 57.8451 21.6357C57.9546 21.7486 58.0146 21.9002 58.0118 22.0571C58.007 22.2244 57.9528 22.3867 57.8559 22.5236C57.7591 22.6605 57.6239 22.7659 57.4672 22.8268C57.2059 22.9243 56.9276 22.9685 56.6487 22.9566C56.37 22.9448 56.0964 22.8771 55.8443 22.7578C54.0704 21.922 54.5777 18.9481 57.0667 19.0129C58.5911 19.0529 59.5543 20.0019 59.8024 21.3716C59.9317 22.1246 59.7772 22.8987 59.3686 23.5455C60.39 22.6461 61.0593 21.5137 62.4923 21.5137C62.8381 21.5054 63.1789 21.5969 63.4735 21.7771C61.7426 19.6805 59.7691 17.3894 56.7382 17.3894C51.8323 17.3894 51.7561 24.5965 56.6122 24.6255H56.7507C58.1047 24.5565 59.5294 23.1413 59.2563 21.464C58.8281 18.828 55.1168 19.0846 55.3205 21.1799C55.3372 21.3591 55.3899 21.5332 55.4757 21.6918C55.5614 21.8503 55.6783 21.9901 55.8195 22.1026L55.8139 22.0999Z" fill="#752E1D"/>
<path d="M13.4401 33.8285C13.4401 32.633 13.4471 31.7396 13.4609 31.1484C13.4789 30.5594 13.526 30.1704 13.5995 29.9814C13.6254 29.8993 13.6777 29.8279 13.7482 29.7781C13.8188 29.7282 13.9038 29.7028 13.9903 29.7055V29.5221C13.8392 29.5221 13.6605 29.5221 13.454 29.5221C13.2475 29.5221 13.0216 29.5221 12.7777 29.529C12.5337 29.5359 12.2968 29.529 12.0847 29.5221C11.8727 29.5152 11.6912 29.5221 11.5304 29.5221V29.7042C11.618 29.7021 11.7041 29.7276 11.7763 29.7772C11.8485 29.8267 11.9031 29.8978 11.9323 29.98C12.0127 30.164 12.0621 30.5359 12.0806 31.096C12.0991 31.6559 12.106 32.5024 12.1014 33.6354V34.3871H6.16852V33.6492C6.16852 32.5125 6.17545 31.6629 6.18931 31.1001C6.20317 30.5373 6.2526 30.164 6.3376 29.98C6.3668 29.8978 6.4214 29.8267 6.49358 29.7772C6.56576 29.7276 6.65183 29.7021 6.7395 29.7042V29.5207C6.5829 29.5207 6.40135 29.5207 6.19347 29.5207C5.98559 29.5207 5.75554 29.5207 5.50054 29.5276C5.24554 29.5345 5.01411 29.5276 4.78544 29.5207H4.23109V29.7042C4.32188 29.6994 4.41184 29.7235 4.48787 29.7732C4.5639 29.8228 4.62203 29.8953 4.65378 29.98C4.7397 30.1685 4.79144 30.5576 4.809 31.147C4.82655 31.7364 4.83394 32.6298 4.83117 33.8271V36.034C4.83117 37.3159 4.82378 38.2691 4.809 38.8934C4.78959 39.5183 4.73416 39.9307 4.64546 40.1266C4.61401 40.2178 4.55325 40.2961 4.47259 40.3494C4.39193 40.4028 4.29585 40.4282 4.19922 40.4218V40.6011C4.34612 40.6011 4.53737 40.6011 4.77019 40.6011C5.00302 40.6011 5.25109 40.5942 5.51301 40.5942C5.77494 40.5942 5.9939 40.5942 6.20594 40.6011C6.41798 40.608 6.6217 40.6011 6.79493 40.6011V40.4218C6.70132 40.4277 6.60821 40.4042 6.52868 40.3547C6.44914 40.3053 6.38717 40.2323 6.35145 40.1459C6.26276 39.9583 6.21287 39.5707 6.18931 38.9859C6.16575 38.401 6.16159 37.5141 6.16575 36.3265V35.5181H12.1111V36.3251C12.1111 37.5132 12.1032 38.3997 12.0875 38.9845C12.0667 39.5694 12.0099 39.9569 11.917 40.1445C11.8776 40.2321 11.812 40.3056 11.7292 40.355C11.6464 40.4043 11.5504 40.4272 11.4542 40.4204V40.6011C11.6537 40.6011 11.87 40.6011 12.0986 40.6011C12.3273 40.6011 12.5754 40.5942 12.8387 40.5942C13.102 40.5942 13.3196 40.5942 13.5316 40.6011C13.7436 40.608 13.9363 40.6011 14.1081 40.6011V40.4218C14.0089 40.4292 13.9099 40.4053 13.8251 40.3536C13.7402 40.3018 13.6739 40.2248 13.6355 40.1335C13.5399 39.9377 13.4817 39.5252 13.4609 38.9004C13.4401 38.2755 13.4318 37.3224 13.436 36.041V33.834L13.4401 33.8285Z" fill="#752E1D"/>
<path d="M18.8465 36.0408C18.8465 37.3208 18.8396 38.2735 18.8257 38.8988C18.8119 39.5241 18.7656 39.9352 18.6871 40.132C18.6638 40.2169 18.6124 40.2916 18.5413 40.3438C18.4701 40.3961 18.3834 40.4231 18.2949 40.4202V40.601H19.4618C19.9663 40.601 20.534 40.5987 21.165 40.594C21.7083 40.594 23.1052 40.594 23.6499 40.601C24.1945 40.6079 24.6754 40.601 25.1106 40.601C25.1106 40.292 25.1166 39.9839 25.1286 39.6768C25.1397 39.3706 25.1535 39.0864 25.1674 38.8285H24.9969C24.9397 39.1044 24.814 39.2791 24.62 39.3526C24.3641 39.4363 24.0946 39.47 23.8259 39.452H20.4735C20.3432 39.452 20.2615 39.4285 20.2282 39.3871C20.1875 39.3012 20.1735 39.2051 20.188 39.1112V35.4836H23.0442C23.3907 35.466 23.7379 35.4873 24.0795 35.547C24.1692 35.5629 24.2515 35.6067 24.3145 35.6721C24.3775 35.7376 24.418 35.8213 24.4301 35.9111H24.5853C24.5853 35.7359 24.5742 35.5663 24.5742 35.4049C24.5742 35.2435 24.5742 35.0808 24.5742 34.9194C24.5742 34.758 24.5742 34.6242 24.5742 34.478C24.5742 34.3318 24.5742 34.1801 24.5853 34.0255H24.4301C24.4076 34.1084 24.3598 34.1823 24.2933 34.2369C24.2267 34.2915 24.1447 34.3242 24.0587 34.3304C23.7083 34.3769 23.3546 34.3935 23.0013 34.3801H20.188V30.6406H23.2784C23.6423 30.6166 24.0076 30.6582 24.3567 30.7634C24.4692 30.8071 24.5663 30.8827 24.6363 30.9807C24.7062 31.0787 24.7458 31.195 24.7503 31.3151H24.9193C24.9193 31.0116 24.9263 30.7096 24.9373 30.4102C24.9484 30.1109 24.9623 29.8116 24.9761 29.5137C24.5881 29.5137 24.1169 29.5137 23.5653 29.5137C23.0138 29.5137 21.5849 29.5137 21.0015 29.5205C20.4181 29.5275 19.8928 29.5205 19.4244 29.5137H18.3157V29.704C18.3996 29.7025 18.4816 29.7288 18.5488 29.7788C18.6161 29.8287 18.6647 29.8994 18.6871 29.9799C18.762 30.1684 18.8081 30.5574 18.8257 31.1468C18.8433 31.7363 18.8497 32.6296 18.8451 33.8269V36.0339L18.8465 36.0408Z" fill="#752E1D"/>
<path d="M31.0398 36.0396C31.0398 37.3142 31.0333 38.2609 31.0203 38.8797C31.0074 39.4986 30.9552 39.9051 30.8637 40.0991C30.8308 40.1886 30.7712 40.266 30.693 40.3209C30.6148 40.3759 30.5216 40.4058 30.4258 40.4067V40.6012C30.6106 40.5938 30.9672 40.5901 31.4957 40.5901H35.8597C36.4072 40.5901 36.8811 40.5901 37.2844 40.6012C37.2918 40.2434 37.2987 39.9295 37.3052 39.6591C37.3117 39.3887 37.3191 39.0926 37.3274 38.7708H37.1569C37.1395 38.887 37.098 38.9983 37.035 39.0977C36.9794 39.1812 36.9036 39.2494 36.8146 39.2963C36.7105 39.3623 36.5932 39.4051 36.4709 39.4218C36.3149 39.4443 36.1574 39.4545 35.9998 39.4522H32.5808C32.5527 39.456 32.5242 39.4542 32.4968 39.4469C32.4694 39.4395 32.4438 39.4268 32.4214 39.4094C32.3881 39.3595 32.3738 39.2993 32.3812 39.2398V33.8285C32.3812 32.6331 32.3882 31.7438 32.402 31.1609C32.4159 30.5778 32.4667 30.1935 32.5545 30.0077C32.586 29.9218 32.6422 29.8471 32.7162 29.7929C32.7901 29.7387 32.8785 29.7073 32.9703 29.7028V29.5194C32.8095 29.5194 32.6224 29.5194 32.4048 29.5194C32.1872 29.5194 31.9585 29.5194 31.7119 29.5263C31.4652 29.5332 31.2144 29.5263 30.9968 29.5194C30.7792 29.5125 30.5935 29.5194 30.4424 29.5194V29.7043C30.5338 29.7101 30.6215 29.742 30.6952 29.796C30.7689 29.85 30.8255 29.924 30.8582 30.0091C30.9427 30.1967 30.9968 30.5815 31.0134 31.1622C31.03 31.7429 31.0398 32.634 31.0356 33.8299V36.0369L31.0398 36.0396Z" fill="#752E1D"/>
<path d="M47.3732 33.8344C47.8721 32.6316 48.2518 31.735 48.5123 31.1447C48.6761 30.7379 48.8785 30.3476 49.1166 29.979C49.2552 29.7915 49.4007 29.7032 49.542 29.7032V29.5198C49.4321 29.5262 49.2783 29.5303 49.0806 29.5322H47.6947C47.4508 29.5322 47.2415 29.5322 47.0641 29.5198V29.7046C47.29 29.7046 47.4147 29.7984 47.4397 29.9805C47.4646 30.1625 47.3773 30.5129 47.1792 31.0467C46.981 31.5805 46.6622 32.3833 46.2215 33.4564C45.9194 34.2096 45.6649 34.8505 45.4579 35.3793C45.251 35.908 45.0708 36.3775 44.9174 36.7876C44.7636 37.2014 44.6181 37.6014 44.4781 37.9987H44.449C44.3151 37.5959 44.17 37.1876 44.0139 36.7738C43.8577 36.36 43.6734 35.8887 43.4609 35.36C43.2521 34.8331 42.9985 34.1976 42.7001 33.4537C42.2557 32.3759 41.9323 31.5695 41.73 31.0343C41.5318 30.4991 41.4528 30.1432 41.475 29.968C41.4971 29.7929 41.6344 29.7046 41.8686 29.706V29.5225C41.7022 29.5225 41.4971 29.5225 41.2546 29.5225C41.0121 29.5225 40.7516 29.5225 40.4702 29.5294C40.1889 29.5363 39.9408 29.5294 39.726 29.5225H39.2285V29.7046C39.3754 29.7046 39.5237 29.7929 39.6706 29.9805C39.9165 30.3467 40.1236 30.7373 40.2887 31.146C40.552 31.7364 40.9312 32.633 41.4265 33.8358L44.2979 40.7629H44.5127L47.3704 33.8358L47.3732 33.8344Z" fill="#752E1D"/>
<path d="M53.952 36.0408C53.952 37.3208 53.945 38.2735 53.9311 38.8988C53.9131 39.5237 53.866 39.9347 53.7926 40.132C53.7693 40.2169 53.7179 40.2916 53.6467 40.3438C53.5756 40.3961 53.4888 40.4231 53.4004 40.4202V40.601H54.5672C55.0717 40.601 55.6394 40.5987 56.2705 40.594C56.8138 40.594 58.2107 40.594 58.7539 40.601C59.2972 40.6079 59.7795 40.601 60.216 40.601C60.216 40.292 60.223 39.9844 60.234 39.6768C60.2451 39.3692 60.2576 39.0864 60.2728 38.8285H60.101C60.0437 39.1044 59.9185 39.2791 59.7254 39.3526C59.4696 39.4363 59.2 39.47 58.9313 39.452H55.5734C55.4417 39.452 55.3599 39.4285 55.3281 39.3871C55.2875 39.3012 55.273 39.2053 55.2865 39.1112V35.4836H58.1483C58.4952 35.466 58.8429 35.4873 59.1849 35.547C59.2742 35.5627 59.3562 35.6061 59.4192 35.671C59.4822 35.7359 59.5229 35.819 59.5355 35.9084H59.6908C59.6838 35.7332 59.6797 35.5635 59.6797 35.4022C59.6797 35.2408 59.6797 35.078 59.6797 34.9166C59.6797 34.7552 59.6797 34.6214 59.6797 34.4752C59.6797 34.329 59.6797 34.1773 59.6908 34.0228H59.5355C59.5131 34.1057 59.4652 34.1795 59.3987 34.2341C59.3322 34.2888 59.2502 34.3214 59.1642 34.3276C58.8133 34.3742 58.4591 34.3908 58.1054 34.3773H55.2865V30.6406H58.377C58.7413 30.6166 59.107 30.6581 59.4566 30.7634C59.5688 30.8073 59.6657 30.883 59.7354 30.981C59.8051 31.079 59.8445 31.1951 59.8487 31.3151H60.0192C60.0192 31.0116 60.0262 30.7096 60.0372 30.4102C60.0483 30.1109 60.0608 29.8116 60.076 29.5137C59.688 29.5137 59.2168 29.5137 58.6652 29.5137C58.1137 29.5137 56.6848 29.5137 56.1014 29.5205C55.518 29.5275 54.9927 29.5205 54.5243 29.5137H53.4156V29.704C53.4997 29.7022 53.582 29.7283 53.6495 29.7783C53.717 29.8283 53.7659 29.8992 53.7884 29.9799C53.8632 30.1684 53.9095 30.5574 53.927 31.1468C53.9445 31.7363 53.9528 32.6301 53.952 33.8283V36.0353V36.0408Z" fill="#752E1D"/>
<path d="M68.3502 36.0353C68.3502 37.3226 68.3425 38.2781 68.3271 38.9016C68.311 39.5251 68.2559 39.9347 68.1605 40.1306C68.1249 40.22 68.0621 40.2962 67.9809 40.3483C67.8997 40.4005 67.8042 40.4261 67.7076 40.4217V40.601C67.8683 40.594 68.0621 40.5899 68.2897 40.5899H69.7194C69.94 40.5899 70.1356 40.5899 70.3211 40.601V40.4217C70.2257 40.4307 70.1302 40.4087 70.0484 40.359C69.9666 40.3092 69.9032 40.2344 69.8682 40.1457C69.7758 39.9499 69.72 39.5361 69.7017 38.9043C69.6833 38.2726 69.6756 37.3149 69.678 36.0311V30.613H72.1367C72.4141 30.5875 72.6927 30.6351 72.9459 30.7509C73.1207 30.8521 73.2369 31.0516 73.295 31.3496H73.4793V29.5054C72.953 29.5118 72.3738 29.516 71.7414 29.5178C71.1095 29.5178 70.2174 29.5178 69.6211 29.5178H68.3934C67.86 29.5178 66.991 29.5178 66.3573 29.5178C65.7242 29.5178 65.1184 29.5178 64.5352 29.5054V31.351H64.7195C64.7764 31.053 64.8884 30.853 65.0592 30.7523C65.2293 30.6517 65.5067 30.6048 65.8908 30.6144H68.349V36.0353H68.3502Z" fill="#752E1D"/>
<path d="M79.4991 33.8285C79.4991 32.6285 79.5069 31.7356 79.5217 31.1498C79.5383 30.5636 79.5881 30.1843 79.6699 29.9912C79.6989 29.9077 79.7529 29.8351 79.8246 29.7836C79.8969 29.7319 79.9828 29.7037 80.0718 29.7028V29.5194C79.9176 29.5194 79.7291 29.5194 79.5074 29.5194C79.2858 29.5194 79.0546 29.5194 78.8145 29.5263C78.575 29.5332 78.3243 29.5263 78.1121 29.5194C77.8999 29.5125 77.7173 29.5194 77.5579 29.5194V29.7167C77.6468 29.7152 77.7345 29.7408 77.8086 29.79C77.8833 29.8393 77.9408 29.91 77.9734 29.9925C78.0581 30.1788 78.1121 30.5636 78.1287 31.1498C78.1453 31.7361 78.1536 32.6257 78.1506 33.8216V36.0493C78.1506 37.3257 78.1429 38.2738 78.1275 38.8935C78.1091 39.5129 78.0552 39.9212 77.968 40.117C77.936 40.2053 77.8779 40.2816 77.8003 40.3352C77.7232 40.3888 77.6314 40.4172 77.5371 40.4164V40.6012C77.6924 40.6012 77.8768 40.6012 78.0913 40.6012C78.3059 40.6012 78.5472 40.5943 78.8246 40.5943C79.0753 40.5943 79.3106 40.5943 79.5341 40.6012C79.757 40.6081 79.9579 40.6012 80.137 40.6012V40.4219C80.0397 40.4237 79.9443 40.3959 79.8637 40.3421C79.7825 40.2884 79.7203 40.2113 79.6853 40.1212C79.5934 39.9253 79.5383 39.5157 79.5187 38.8949C79.4992 38.2742 79.4909 37.3211 79.4938 36.041V33.834L79.4991 33.8285Z" fill="#752E1D"/>
<path d="M90.6503 37.4498C90.9745 38.2774 91.211 38.9027 91.3598 39.3258C91.5098 39.7506 91.5708 40.0389 91.5453 40.1906C91.5204 40.3423 91.4072 40.4196 91.2075 40.4223V40.6016C91.3888 40.5947 91.5969 40.5906 91.8322 40.5906H93.2418C93.4303 40.5906 93.5856 40.5906 93.706 40.6016V40.4223C93.5678 40.4223 93.4374 40.3313 93.2987 40.1354C93.0598 39.7429 92.8565 39.3303 92.6905 38.9023C92.4244 38.277 92.035 37.3243 91.5222 36.0442L88.8637 29.3364H88.6491L85.9064 36.0304C85.3741 37.3178 84.9698 38.276 84.6924 38.905C84.5205 39.3345 84.3089 39.7473 84.0605 40.1382C83.9218 40.3327 83.7736 40.4278 83.6367 40.4223V40.6016C83.7642 40.5947 83.9236 40.5906 84.1145 40.5906H85.46C85.6723 40.5906 85.8691 40.5906 86.0493 40.6016V40.4223C85.8483 40.4223 85.7345 40.3409 85.7055 40.1906C85.6764 40.0403 85.7404 39.7506 85.8928 39.3258C86.0451 38.9009 86.2935 38.2747 86.6355 37.4498H90.6503ZM87.0469 36.3725L87.0611 36.3298C87.498 35.2097 87.8252 34.3688 88.0421 33.8069C88.2591 33.245 88.4102 32.851 88.4956 32.6248C88.5798 32.3986 88.6337 32.2317 88.6758 32.1213H88.6894C88.7214 32.2359 88.7765 32.4055 88.8554 32.6317C88.9348 32.8579 89.0777 33.2497 89.2869 33.8111C89.4962 34.3725 89.8121 35.2111 90.233 36.3298V36.3725H87.0469Z" fill="#752E1D"/>
<path d="M19.6286 49.4718C20.5613 49.4718 21.2542 48.8166 21.2542 47.8082C21.2542 46.8303 20.5862 46.1406 19.6286 46.1406C18.671 46.1406 17.9961 46.8206 17.9961 47.8082C17.9961 48.7959 18.6807 49.4718 19.6286 49.4718ZM19.6286 49.0331C18.9828 49.0331 18.5518 48.5683 18.5518 47.8082C18.5518 47.0483 18.9828 46.5793 19.6286 46.5793C20.298 46.5793 20.7054 47.0731 20.7054 47.8082C20.7054 48.5683 20.2731 49.0331 19.6286 49.0331ZM23.9539 49.429H24.4736V46.6151H25.3619L25.5102 46.1765H23.0059V46.6151H23.9539V49.429ZM27.4352 49.429H29.1813V48.9904H27.9563V47.9931H29.0095V47.5545H27.9563V46.6151H29.0164L29.1661 46.1765H27.4352V49.429ZM31.195 49.4539C31.3349 49.4611 31.4742 49.4306 31.5981 49.3655C31.7221 49.3004 31.826 49.2032 31.899 49.0842C32.226 48.5848 32.445 47.4455 32.5199 46.6013H33.2031V49.429H33.7283V46.1696H32.0833C32.0029 47.0634 31.8061 48.2676 31.5068 48.7366C31.4717 48.8034 31.4192 48.8596 31.3549 48.8993C31.2905 48.9391 31.2167 48.961 31.1409 48.9628C31.1056 48.9632 31.0703 48.96 31.0356 48.9532V49.429C31.0879 49.4406 31.1415 49.4457 31.195 49.4442V49.4539ZM36.5666 49V47.8427H36.8285C37.0253 47.8266 37.2227 47.8643 37.3995 47.9517C37.4778 47.9997 37.5412 48.0685 37.5823 48.1504C37.6234 48.2323 37.6407 48.324 37.6323 48.4152C37.6323 48.8056 37.3953 48.9931 36.884 48.9931L36.5666 49ZM36.0455 49.429H36.8687C37.8111 49.429 38.1631 49.0056 38.1631 48.4124C38.1745 48.2406 38.1345 48.0692 38.0482 47.92C37.9619 47.7707 37.8331 47.6503 37.678 47.5738C37.4054 47.459 37.1103 47.4066 36.8147 47.4207H36.5666V46.1793H36.0455V49.429ZM42.8902 49.429H43.4099V46.6151H44.5186L44.6669 46.1765H42.8902V49.429ZM46.5946 49.429H48.3408V48.9904H47.1157V47.9931H48.1717V47.5545H47.1157V46.6151H48.1773L48.3256 46.1765H46.5946V49.429ZM50.3545 49.4539C50.4946 49.461 50.634 49.4305 50.7582 49.3654C50.8823 49.3004 50.9865 49.2032 51.0598 49.0842C51.3869 48.5848 51.6045 47.4455 51.6793 46.6013H52.364V49.429H52.8892V46.1696H51.2428C51.1638 47.0634 50.9656 48.2676 50.6677 48.7366C50.6321 48.8033 50.5793 48.8594 50.5148 48.8992C50.4503 48.9389 50.3763 48.9609 50.3004 48.9628C50.2656 48.9631 50.2307 48.9599 50.1965 48.9532V49.429C50.2483 49.4406 50.3014 49.4457 50.3545 49.4442V49.4539ZM55.7261 49V47.8427H55.9894C56.1857 47.8264 56.3827 47.8641 56.559 47.9517C56.6374 47.9996 56.701 48.0684 56.7424 48.1503C56.7837 48.2321 56.8013 48.3239 56.7932 48.4152C56.7932 48.8056 56.5548 48.9931 56.0434 48.9931L55.7261 49ZM55.2022 49.429H56.0337C56.9761 49.429 57.3281 49.0056 57.3281 48.4124C57.3395 48.2406 57.2996 48.0692 57.2132 47.92C57.1269 47.7707 56.9981 47.6503 56.8431 47.5738C56.5704 47.459 56.2753 47.4066 55.9797 47.4207H55.7316V46.1793H55.2022V49.429ZM59.4679 49.429H60.4504C61.1988 49.429 61.5855 49 61.5855 48.4814C61.5907 48.298 61.5312 48.1186 61.4173 47.9745C61.3033 47.8302 61.1421 47.7304 60.9618 47.6924V47.6828C61.0906 47.6222 61.1987 47.5254 61.2726 47.4043C61.3465 47.2831 61.383 47.143 61.3776 47.0013C61.3776 46.571 61.0658 46.1737 60.3659 46.1737H59.4707V49.429H59.4679ZM59.989 49V47.9807H60.4685C60.8302 47.9807 61.0644 48.1683 61.0644 48.48C61.0644 48.8456 60.8204 48.9931 60.4144 48.9931L59.989 49ZM59.989 47.5586V46.6055H60.2966C60.6888 46.6055 60.851 46.8083 60.851 47.08C60.851 47.3517 60.6583 47.5586 60.2966 47.5586H59.989ZM63.7309 49.429H65.4772V48.9904H64.2519V47.9931H65.3189V47.5545H64.2632V46.6151H65.3189L65.4689 46.1765H63.7362V49.429H63.7309ZM67.6751 49.429H70.1001V50.3422H70.6057V48.9862H70.1902V46.1696H69.6704V48.9794H68.2015V46.1696H67.6751V49.429ZM72.6638 49.429H73.1244L74.5737 47.4979C74.7373 47.2896 74.8618 47.113 74.9714 46.9599H74.9809C74.9714 47.0979 74.9714 47.2703 74.9714 47.4828V49.429H75.4913V46.1696H74.9809L73.5814 48.0207C73.4125 48.2386 73.2832 48.4152 73.1795 48.5724H73.17C73.17 48.4 73.1795 48.2165 73.1795 48.0138V46.1696H72.6638V49.429ZM77.5339 49.429H78.1397L78.5802 48.4966C78.7189 48.2097 78.8131 48.1255 78.9127 48.1255H79.3934V49.429H79.9192V46.1696H78.9489C78.3182 46.1696 77.8487 46.5006 77.8487 47.1352C77.8404 47.3097 77.8908 47.4821 77.991 47.6256C78.0911 47.7692 78.2358 47.876 78.4029 47.9296V47.9393C78.2737 48.0083 78.1949 48.1269 78.0704 48.3683L77.5298 49.4249L77.5339 49.429ZM78.3863 47.1682C78.3863 46.7889 78.6549 46.6013 79.0224 46.6013H79.3934V47.7048H79.0224C78.659 47.7048 78.3863 47.5517 78.3863 47.1752V47.1682Z" fill="#752E1D"/>
<path d="M30.573 57.6503L29.3631 56.7757L28.1532 57.6503L28.6161 56.235L27.4062 55.3605H28.9016L29.3631 53.9453L29.826 55.3605H31.3213L30.1115 56.235L30.573 57.6503Z" fill="#752E1D"/>
<path d="M37.1992 55.3605H38.6932L39.156 53.9453L39.6176 55.3605H41.1129L39.903 56.235L40.3659 57.6503L39.156 56.7757L37.9462 57.6503L38.4077 56.235L37.1992 55.3605Z" fill="#752E1D"/>
<path d="M66.584 55.3605H68.0795L68.5425 53.9453L69.0036 55.3605H70.4992L69.2893 56.235L69.7523 57.6503L68.5425 56.7757L67.3326 57.6503L67.7938 56.235L66.584 55.3605Z" fill="#752E1D"/>
<path d="M46.9922 55.3605H48.4876L48.9504 53.9453L49.4119 55.3605H50.9073L49.6974 56.235L50.1603 57.6503L48.9504 56.7757L47.7406 57.6503L48.2021 56.235L46.9922 55.3605Z" fill="#752E1D"/>
<path d="M59.9571 57.6503L58.7472 56.7757L57.5374 57.6503L57.9989 56.235L56.7891 55.3605H58.2844L58.7472 53.9453L59.2088 55.3605H60.7041L59.4942 56.235L59.9571 57.6503Z" fill="#752E1D"/>
<path d="M53.2285 12.6001C53.3756 12.6003 53.52 12.6386 53.6478 12.711C53.7756 12.7835 53.8823 12.8878 53.9574 13.0136C54.0325 13.1394 54.0736 13.2825 54.0765 13.4288C54.0794 13.5751 54.0442 13.7197 53.9741 13.8484L49.6779 23.5205C49.6035 23.6476 49.4971 23.7532 49.3694 23.8272C49.2417 23.9012 49.0968 23.9409 48.949 23.9426C48.8007 23.9433 48.6549 23.9045 48.5268 23.8303C48.3986 23.7561 48.2927 23.6491 48.22 23.5205L43.9239 13.8484C43.8611 13.7236 43.8311 13.5851 43.8366 13.4456C43.8366 13.2223 43.9253 13.0081 44.0835 12.8497C44.2415 12.6913 44.4562 12.6016 44.6805 12.6001H47.9567V14.4071H46.1163V16.2913H47.9567V18.2555H49.8498V16.2913H51.7969V14.4071H49.8498V12.6001H53.2285Z" fill="#227BDD"/>
<path d="M42.0856 22.0999C42.2267 21.9873 42.3437 21.8476 42.4294 21.689C42.5151 21.5305 42.5679 21.3563 42.5845 21.1771C42.7868 19.0819 39.0769 18.8322 38.6486 21.4613C38.3715 23.1385 39.7989 24.5538 41.1529 24.6228H41.2915C46.142 24.5938 46.0713 17.3866 41.1654 17.3866C38.1373 17.3866 36.161 19.6777 34.4287 21.7757C34.724 21.5958 35.0652 21.5043 35.4113 21.5123C36.8443 21.5123 37.5122 22.6447 38.535 23.544C38.1264 22.8973 37.9719 22.1233 38.1012 21.3702C38.3493 20.0005 39.3139 19.0515 40.8369 19.0115C43.3314 18.9466 43.8332 21.9206 42.0578 22.7564C41.806 22.8756 41.5327 22.9431 41.2542 22.955C40.9756 22.9668 40.6975 22.9227 40.4364 22.8254C40.2796 22.7646 40.1442 22.6592 40.0471 22.5224C39.95 22.3855 39.8955 22.2232 39.8904 22.0557C39.8946 21.9031 39.9578 21.758 40.0668 21.6505C40.1758 21.5431 40.3223 21.4817 40.4757 21.479C40.629 21.4764 40.7776 21.5327 40.8903 21.6362C41.003 21.7398 41.0712 21.8827 41.0809 22.0351C41.0802 22.0812 41.0835 22.1273 41.0905 22.173C41.1432 22.4819 41.7252 22.3551 42.0897 22.0985L42.0856 22.0999ZM40.6277 15.8252C40.8411 16.1135 41.1682 16.3038 41.3206 16.1162C41.3489 16.0815 41.3744 16.0446 41.3968 16.0059C41.476 15.8749 41.6043 15.7806 41.7533 15.7438C41.9024 15.7069 42.06 15.7305 42.1916 15.8093C42.3232 15.8881 42.4179 16.0158 42.4549 16.1641C42.492 16.3125 42.4683 16.4694 42.3891 16.6004C42.3064 16.7365 42.1834 16.844 42.0371 16.908C43.0231 17.0601 43.9145 17.5786 44.5316 18.3591L44.2711 17.7852L44.1422 17.4859L43.2497 15.4652C43.0962 15.1324 42.9036 14.8189 42.676 14.5313C42.1147 13.9065 41.085 13.9948 40.6914 14.6238C40.5723 14.7994 40.5034 15.004 40.4922 15.2157C40.481 15.4273 40.5278 15.638 40.6277 15.8252ZM57.6197 16.2928C57.4455 16.5266 57.2154 16.7134 56.9503 16.8362C62.624 17.0225 64.8208 24.6255 67.8196 24.6255C70.6649 24.6255 70.4112 21.5633 68.5013 21.315C68.0425 21.2543 67.4231 21.5164 67.5606 21.8033C67.5801 21.8449 67.6038 21.8846 67.6311 21.922C67.7194 22.0522 67.752 22.2119 67.7218 22.3661C67.6916 22.5203 67.6015 22.6563 67.4705 22.7441C67.3395 22.8318 67.1788 22.8643 67.0241 22.8343C66.8694 22.8043 66.7325 22.7143 66.6442 22.584C66.5517 22.4446 66.5019 22.281 66.5019 22.1137C66.5019 21.9464 66.5517 21.7828 66.6442 21.6433C66.8344 21.3619 67.0923 21.1318 67.394 20.9739C67.6951 20.816 68.0318 20.7351 68.3727 20.7384C68.4983 20.7396 68.6228 20.7545 68.7455 20.7826C71.1486 21.3012 71.2968 25.1772 67.8196 25.1772C66.4782 25.1772 65.3555 24.0241 64.1652 22.6061C64.2737 22.8537 64.3342 23.1196 64.3425 23.3896C64.3425 24.031 64.1024 24.4517 63.7882 24.7248C63.5541 24.9325 63.2705 25.0764 62.9643 25.1426C62.6581 25.2088 62.3398 25.1951 62.0405 25.1028C61.8822 25.0662 61.7376 24.9851 61.6241 24.8692C61.5106 24.7533 61.433 24.6075 61.4003 24.449C61.3736 24.2984 61.4082 24.1435 61.4963 24.0183C61.5844 23.8931 61.7188 23.8078 61.8701 23.7813C62.0213 23.7548 62.177 23.7892 62.3028 23.8769C62.4286 23.9646 62.5142 24.0984 62.5408 24.2489C62.5475 24.2929 62.5577 24.3363 62.5713 24.3786C62.6212 24.5276 62.7903 24.5427 62.9871 24.482C63.0945 24.4488 63.1974 24.4025 63.2933 24.3441C63.3648 24.2976 63.432 24.2449 63.4942 24.1868C63.5974 24.0822 63.6762 23.957 63.7272 23.8196C63.7776 23.6822 63.7983 23.5356 63.7882 23.3896C63.7882 23.0089 63.5025 22.0723 62.4937 22.0723C60.5299 22.0723 60.0892 25.0751 56.7618 25.18H56.6426H56.5692C53.4427 25.1386 52.1081 22.4957 52.5502 20.195L50.8082 24.0917C50.4659 24.8586 49.6676 25.1841 48.9498 25.1827C48.2319 25.1814 47.4253 24.86 47.0913 24.0917L46.8238 23.4834L45.3562 20.1977C45.79 22.4985 44.4554 25.1414 41.3303 25.1827H41.2568H41.1376C37.8116 25.0779 37.3695 22.0751 35.4058 22.0751C34.3955 22.0751 34.1113 23.0116 34.1113 23.3924C34.102 23.5381 34.1236 23.6841 34.1746 23.821C34.2257 23.9579 34.3052 24.0826 34.408 24.1868C34.4711 24.2432 34.5388 24.2944 34.6103 24.3399C34.7061 24.3986 34.809 24.4449 34.9165 24.4779C35.1106 24.5386 35.281 24.5234 35.3323 24.3744C35.3464 24.3321 35.357 24.2888 35.3642 24.2448C35.3774 24.1705 35.4051 24.0996 35.4459 24.036C35.4866 23.9724 35.5395 23.9174 35.6017 23.8742C35.6637 23.8309 35.7338 23.8003 35.8078 23.7841C35.8817 23.7678 35.9582 23.7661 36.0328 23.7793C36.1075 23.7924 36.1788 23.82 36.2426 23.8606C36.3065 23.9011 36.3618 23.9538 36.4052 24.0156C36.4487 24.0774 36.4794 24.1471 36.4958 24.2207C36.5121 24.2944 36.5138 24.3705 36.5006 24.4448C36.4684 24.6035 36.3909 24.7497 36.2773 24.8657C36.1637 24.9816 36.0189 25.0625 35.8603 25.0986C35.561 25.1907 35.2428 25.2043 34.9366 25.138C34.6305 25.0718 34.3467 24.9281 34.1128 24.7207C33.7995 24.4448 33.5584 24.031 33.5584 23.3854C33.569 23.117 33.6306 22.8531 33.74 22.6075C32.5495 24.0255 31.427 25.1786 30.0854 25.1786C26.6069 25.1786 26.7594 21.3026 29.1583 20.784C29.2815 20.7559 29.4075 20.7411 29.5339 20.7398C29.873 20.737 30.2077 20.8174 30.5082 20.974C30.8087 21.1307 31.0657 21.3587 31.2565 21.6378C31.3497 21.7771 31.3995 21.9407 31.3995 22.1081C31.3995 22.2755 31.3497 22.4392 31.2565 22.5785C31.2135 22.6445 31.1577 22.7012 31.0925 22.7455C31.0271 22.7897 30.9537 22.8206 30.8763 22.8362C30.7989 22.8519 30.7191 22.8521 30.6417 22.8367C30.5642 22.8214 30.4906 22.7908 30.4251 22.7468C30.3596 22.7029 30.3037 22.6463 30.2604 22.5805C30.2171 22.5148 30.1874 22.4411 30.1731 22.3638C30.1588 22.2864 30.1601 22.2071 30.1769 22.1303C30.1937 22.0535 30.2258 21.9808 30.2711 21.9164C30.2972 21.8787 30.3204 21.839 30.3404 21.7978C30.479 21.5109 29.8595 21.246 29.4008 21.3095C27.4911 21.5592 27.2375 24.62 30.0827 24.62C33.0817 24.62 35.2782 17.0169 40.9519 16.8307C40.6867 16.7076 40.4562 16.5208 40.2812 16.2873C39.8391 15.7355 39.8349 14.9396 40.2189 14.3244C40.8258 13.3561 42.3073 13.2899 43.0931 14.1603C43.6696 14.8044 44.2586 16.3162 44.6536 17.2501L47.5902 23.8379C48.0961 24.9717 49.8007 24.9717 50.3065 23.8379L53.2459 17.2501C53.6409 16.3162 54.2285 14.8044 54.8064 14.1603C55.5921 13.2858 57.0736 13.3561 57.682 14.3299C57.8753 14.624 57.9729 14.97 57.9618 15.3212C57.9506 15.6723 57.8312 16.0115 57.6197 16.2928ZM57.2746 15.8252C57.3744 15.638 57.4213 15.4273 57.41 15.2157C57.3988 15.004 57.3299 14.7994 57.2108 14.6238C56.8172 13.9948 55.7876 13.9065 55.2263 14.5313C54.9944 14.8172 54.7981 15.1298 54.6415 15.4624L53.7531 17.4832L53.6242 17.7825L53.3637 18.3563C53.9808 17.5759 54.8722 17.0573 55.8582 16.9052C55.7135 16.8418 55.592 16.7353 55.5104 16.6004C55.4315 16.4698 55.4081 16.3134 55.4451 16.1655C55.4821 16.0177 55.5767 15.8905 55.7079 15.8121C55.8391 15.7336 55.9963 15.7102 56.1448 15.7471C56.2933 15.784 56.421 15.878 56.4999 16.0086C56.5223 16.0474 56.5478 16.0843 56.5761 16.119C56.7313 16.3066 57.0584 16.119 57.269 15.8279L57.2746 15.8252ZM55.8139 22.0999C56.1784 22.3564 56.7604 22.4834 56.8117 22.1744C56.8192 22.1288 56.8229 22.0827 56.8228 22.0364C56.8255 21.8795 56.8908 21.7301 57.0043 21.621C57.1177 21.512 57.2701 21.4523 57.4277 21.455C57.5854 21.4578 57.7355 21.5227 57.8451 21.6357C57.9546 21.7486 58.0146 21.9002 58.0118 22.0571C58.007 22.2244 57.9528 22.3867 57.8559 22.5236C57.7591 22.6605 57.6239 22.7659 57.4672 22.8268C57.2059 22.9243 56.9276 22.9685 56.6487 22.9566C56.37 22.9448 56.0964 22.8771 55.8443 22.7578C54.0704 21.922 54.5777 18.9481 57.0667 19.0129C58.5911 19.0529 59.5543 20.0019 59.8024 21.3716C59.9317 22.1246 59.7772 22.8987 59.3686 23.5455C60.39 22.6461 61.0593 21.5137 62.4923 21.5137C62.8381 21.5054 63.1789 21.5969 63.4735 21.7771C61.7426 19.6805 59.7691 17.3894 56.7382 17.3894C51.8323 17.3894 51.7561 24.5965 56.6122 24.6255H56.7507C58.1047 24.5565 59.5294 23.1413 59.2563 21.464C58.8281 18.828 55.1168 19.0846 55.3205 21.1799C55.3372 21.3591 55.3899 21.5332 55.4757 21.6918C55.5614 21.8503 55.6783 21.9901 55.8195 22.1026L55.8139 22.0999Z" fill="#227BDD"/>
<path d="M13.4401 33.8285C13.4401 32.633 13.4471 31.7396 13.4609 31.1484C13.4789 30.5594 13.526 30.1704 13.5995 29.9814C13.6254 29.8993 13.6777 29.8279 13.7482 29.7781C13.8188 29.7282 13.9038 29.7028 13.9903 29.7055V29.5221C13.8392 29.5221 13.6605 29.5221 13.454 29.5221C13.2475 29.5221 13.0216 29.5221 12.7777 29.529C12.5337 29.5359 12.2968 29.529 12.0847 29.5221C11.8727 29.5152 11.6912 29.5221 11.5304 29.5221V29.7042C11.618 29.7021 11.7041 29.7276 11.7763 29.7772C11.8485 29.8267 11.9031 29.8978 11.9323 29.98C12.0127 30.164 12.0621 30.5359 12.0806 31.096C12.0991 31.6559 12.106 32.5024 12.1014 33.6354V34.3871H6.16852V33.6492C6.16852 32.5125 6.17545 31.6629 6.18931 31.1001C6.20317 30.5373 6.2526 30.164 6.3376 29.98C6.3668 29.8978 6.4214 29.8267 6.49358 29.7772C6.56576 29.7276 6.65183 29.7021 6.7395 29.7042V29.5207C6.5829 29.5207 6.40135 29.5207 6.19347 29.5207C5.98559 29.5207 5.75554 29.5207 5.50054 29.5276C5.24554 29.5345 5.01411 29.5276 4.78544 29.5207H4.23109V29.7042C4.32188 29.6994 4.41184 29.7235 4.48787 29.7732C4.5639 29.8228 4.62203 29.8953 4.65378 29.98C4.7397 30.1685 4.79144 30.5576 4.809 31.147C4.82655 31.7364 4.83394 32.6298 4.83117 33.8271V36.034C4.83117 37.3159 4.82378 38.2691 4.809 38.8934C4.78959 39.5183 4.73416 39.9307 4.64546 40.1266C4.61401 40.2178 4.55325 40.2961 4.47259 40.3494C4.39193 40.4028 4.29585 40.4282 4.19922 40.4218V40.6011C4.34612 40.6011 4.53737 40.6011 4.77019 40.6011C5.00302 40.6011 5.25109 40.5942 5.51301 40.5942C5.77494 40.5942 5.9939 40.5942 6.20594 40.6011C6.41798 40.608 6.6217 40.6011 6.79493 40.6011V40.4218C6.70132 40.4277 6.60821 40.4042 6.52868 40.3547C6.44914 40.3053 6.38717 40.2323 6.35145 40.1459C6.26276 39.9583 6.21287 39.5707 6.18931 38.9859C6.16575 38.401 6.16159 37.5141 6.16575 36.3265V35.5181H12.1111V36.3251C12.1111 37.5132 12.1032 38.3997 12.0875 38.9845C12.0667 39.5694 12.0099 39.9569 11.917 40.1445C11.8776 40.2321 11.812 40.3056 11.7292 40.355C11.6464 40.4043 11.5504 40.4272 11.4542 40.4204V40.6011C11.6537 40.6011 11.87 40.6011 12.0986 40.6011C12.3273 40.6011 12.5754 40.5942 12.8387 40.5942C13.102 40.5942 13.3196 40.5942 13.5316 40.6011C13.7436 40.608 13.9363 40.6011 14.1081 40.6011V40.4218C14.0089 40.4292 13.9099 40.4053 13.8251 40.3536C13.7402 40.3018 13.6739 40.2248 13.6355 40.1335C13.5399 39.9377 13.4817 39.5252 13.4609 38.9004C13.4401 38.2755 13.4318 37.3224 13.436 36.041V33.834L13.4401 33.8285Z" fill="#227BDD"/>
<path d="M18.8465 36.0408C18.8465 37.3208 18.8396 38.2735 18.8257 38.8988C18.8119 39.5241 18.7656 39.9352 18.6871 40.132C18.6638 40.2169 18.6124 40.2916 18.5413 40.3438C18.4701 40.3961 18.3834 40.4231 18.2949 40.4202V40.601H19.4618C19.9663 40.601 20.534 40.5987 21.165 40.594C21.7083 40.594 23.1052 40.594 23.6499 40.601C24.1945 40.6079 24.6754 40.601 25.1106 40.601C25.1106 40.292 25.1166 39.9839 25.1286 39.6768C25.1397 39.3706 25.1535 39.0864 25.1674 38.8285H24.9969C24.9397 39.1044 24.814 39.2791 24.62 39.3526C24.3641 39.4363 24.0946 39.47 23.8259 39.452H20.4735C20.3432 39.452 20.2615 39.4285 20.2282 39.3871C20.1875 39.3012 20.1735 39.2051 20.188 39.1112V35.4836H23.0442C23.3907 35.466 23.7379 35.4873 24.0795 35.547C24.1692 35.5629 24.2515 35.6067 24.3145 35.6721C24.3775 35.7376 24.418 35.8213 24.4301 35.9111H24.5853C24.5853 35.7359 24.5742 35.5663 24.5742 35.4049C24.5742 35.2435 24.5742 35.0808 24.5742 34.9194C24.5742 34.758 24.5742 34.6242 24.5742 34.478C24.5742 34.3318 24.5742 34.1801 24.5853 34.0255H24.4301C24.4076 34.1084 24.3598 34.1823 24.2933 34.2369C24.2267 34.2915 24.1447 34.3242 24.0587 34.3304C23.7083 34.3769 23.3546 34.3935 23.0013 34.3801H20.188V30.6406H23.2784C23.6423 30.6166 24.0076 30.6582 24.3567 30.7634C24.4692 30.8071 24.5663 30.8827 24.6363 30.9807C24.7062 31.0787 24.7458 31.195 24.7503 31.3151H24.9193C24.9193 31.0116 24.9263 30.7096 24.9373 30.4102C24.9484 30.1109 24.9623 29.8116 24.9761 29.5137C24.5881 29.5137 24.1169 29.5137 23.5653 29.5137C23.0138 29.5137 21.5849 29.5137 21.0015 29.5205C20.4181 29.5275 19.8928 29.5205 19.4244 29.5137H18.3157V29.704C18.3996 29.7025 18.4816 29.7288 18.5488 29.7788C18.6161 29.8287 18.6647 29.8994 18.6871 29.9799C18.762 30.1684 18.8081 30.5574 18.8257 31.1468C18.8433 31.7363 18.8497 32.6296 18.8451 33.8269V36.0339L18.8465 36.0408Z" fill="#227BDD"/>
<path d="M31.0398 36.0396C31.0398 37.3142 31.0333 38.2609 31.0203 38.8797C31.0074 39.4986 30.9552 39.9051 30.8637 40.0991C30.8308 40.1886 30.7712 40.266 30.693 40.3209C30.6148 40.3759 30.5216 40.4058 30.4258 40.4067V40.6012C30.6106 40.5938 30.9672 40.5901 31.4957 40.5901H35.8597C36.4072 40.5901 36.8811 40.5901 37.2844 40.6012C37.2918 40.2434 37.2987 39.9295 37.3052 39.6591C37.3117 39.3887 37.3191 39.0926 37.3274 38.7708H37.1569C37.1395 38.887 37.098 38.9983 37.035 39.0977C36.9794 39.1812 36.9036 39.2494 36.8146 39.2963C36.7105 39.3623 36.5932 39.4051 36.4709 39.4218C36.3149 39.4443 36.1574 39.4545 35.9998 39.4522H32.5808C32.5527 39.456 32.5242 39.4542 32.4968 39.4469C32.4694 39.4395 32.4438 39.4268 32.4214 39.4094C32.3881 39.3595 32.3738 39.2993 32.3812 39.2398V33.8285C32.3812 32.6331 32.3882 31.7438 32.402 31.1609C32.4159 30.5778 32.4667 30.1935 32.5545 30.0077C32.586 29.9218 32.6422 29.8471 32.7162 29.7929C32.7901 29.7387 32.8785 29.7073 32.9703 29.7028V29.5194C32.8095 29.5194 32.6224 29.5194 32.4048 29.5194C32.1872 29.5194 31.9585 29.5194 31.7119 29.5263C31.4652 29.5332 31.2144 29.5263 30.9968 29.5194C30.7792 29.5125 30.5935 29.5194 30.4424 29.5194V29.7043C30.5338 29.7101 30.6215 29.742 30.6952 29.796C30.7689 29.85 30.8255 29.924 30.8582 30.0091C30.9427 30.1967 30.9968 30.5815 31.0134 31.1622C31.03 31.7429 31.0398 32.634 31.0356 33.8299V36.0369L31.0398 36.0396Z" fill="#227BDD"/>
<path d="M47.3732 33.8344C47.8721 32.6316 48.2518 31.735 48.5123 31.1447C48.6761 30.7379 48.8785 30.3476 49.1166 29.979C49.2552 29.7915 49.4007 29.7032 49.542 29.7032V29.5198C49.4321 29.5262 49.2783 29.5303 49.0806 29.5322H47.6947C47.4508 29.5322 47.2415 29.5322 47.0641 29.5198V29.7046C47.29 29.7046 47.4147 29.7984 47.4397 29.9805C47.4646 30.1625 47.3773 30.5129 47.1792 31.0467C46.981 31.5805 46.6622 32.3833 46.2215 33.4564C45.9194 34.2096 45.6649 34.8505 45.4579 35.3793C45.251 35.908 45.0708 36.3775 44.9174 36.7876C44.7636 37.2014 44.6181 37.6014 44.4781 37.9987H44.449C44.3151 37.5959 44.17 37.1876 44.0139 36.7738C43.8577 36.36 43.6734 35.8887 43.4609 35.36C43.2521 34.8331 42.9985 34.1976 42.7001 33.4537C42.2557 32.3759 41.9323 31.5695 41.73 31.0343C41.5318 30.4991 41.4528 30.1432 41.475 29.968C41.4971 29.7929 41.6344 29.7046 41.8686 29.706V29.5225C41.7022 29.5225 41.4971 29.5225 41.2546 29.5225C41.0121 29.5225 40.7516 29.5225 40.4702 29.5294C40.1889 29.5363 39.9408 29.5294 39.726 29.5225H39.2285V29.7046C39.3754 29.7046 39.5237 29.7929 39.6706 29.9805C39.9165 30.3467 40.1236 30.7373 40.2887 31.146C40.552 31.7364 40.9312 32.633 41.4265 33.8358L44.2979 40.7629H44.5127L47.3704 33.8358L47.3732 33.8344Z" fill="#227BDD"/>
<path d="M53.952 36.0408C53.952 37.3208 53.945 38.2735 53.9311 38.8988C53.9131 39.5237 53.866 39.9347 53.7926 40.132C53.7693 40.2169 53.7179 40.2916 53.6467 40.3438C53.5756 40.3961 53.4888 40.4231 53.4004 40.4202V40.601H54.5672C55.0717 40.601 55.6394 40.5987 56.2705 40.594C56.8138 40.594 58.2107 40.594 58.7539 40.601C59.2972 40.6079 59.7795 40.601 60.216 40.601C60.216 40.292 60.223 39.9844 60.234 39.6768C60.2451 39.3692 60.2576 39.0864 60.2728 38.8285H60.101C60.0437 39.1044 59.9185 39.2791 59.7254 39.3526C59.4696 39.4363 59.2 39.47 58.9313 39.452H55.5734C55.4417 39.452 55.3599 39.4285 55.3281 39.3871C55.2875 39.3012 55.273 39.2053 55.2865 39.1112V35.4836H58.1483C58.4952 35.466 58.8429 35.4873 59.1849 35.547C59.2742 35.5627 59.3562 35.6061 59.4192 35.671C59.4822 35.7359 59.5229 35.819 59.5355 35.9084H59.6908C59.6838 35.7332 59.6797 35.5635 59.6797 35.4022C59.6797 35.2408 59.6797 35.078 59.6797 34.9166C59.6797 34.7552 59.6797 34.6214 59.6797 34.4752C59.6797 34.329 59.6797 34.1773 59.6908 34.0228H59.5355C59.5131 34.1057 59.4652 34.1795 59.3987 34.2341C59.3322 34.2888 59.2502 34.3214 59.1642 34.3276C58.8133 34.3742 58.4591 34.3908 58.1054 34.3773H55.2865V30.6406H58.377C58.7413 30.6166 59.107 30.6581 59.4566 30.7634C59.5688 30.8073 59.6657 30.883 59.7354 30.981C59.8051 31.079 59.8445 31.1951 59.8487 31.3151H60.0192C60.0192 31.0116 60.0262 30.7096 60.0372 30.4102C60.0483 30.1109 60.0608 29.8116 60.076 29.5137C59.688 29.5137 59.2168 29.5137 58.6652 29.5137C58.1137 29.5137 56.6848 29.5137 56.1014 29.5205C55.518 29.5275 54.9927 29.5205 54.5243 29.5137H53.4156V29.704C53.4997 29.7022 53.582 29.7283 53.6495 29.7783C53.717 29.8283 53.7659 29.8992 53.7884 29.9799C53.8632 30.1684 53.9095 30.5574 53.927 31.1468C53.9445 31.7363 53.9528 32.6301 53.952 33.8283V36.0353V36.0408Z" fill="#227BDD"/>
<path d="M68.3502 36.0353C68.3502 37.3226 68.3425 38.2781 68.3271 38.9016C68.311 39.5251 68.2559 39.9347 68.1605 40.1306C68.1249 40.22 68.0621 40.2962 67.9809 40.3483C67.8997 40.4005 67.8042 40.4261 67.7076 40.4217V40.601C67.8683 40.594 68.0621 40.5899 68.2897 40.5899H69.7194C69.94 40.5899 70.1356 40.5899 70.3211 40.601V40.4217C70.2257 40.4307 70.1302 40.4087 70.0484 40.359C69.9666 40.3092 69.9032 40.2344 69.8682 40.1457C69.7758 39.9499 69.72 39.5361 69.7017 38.9043C69.6833 38.2726 69.6756 37.3149 69.678 36.0311V30.613H72.1367C72.4141 30.5875 72.6927 30.6351 72.9459 30.7509C73.1207 30.8521 73.2369 31.0516 73.295 31.3496H73.4793V29.5054C72.953 29.5118 72.3738 29.516 71.7414 29.5178C71.1095 29.5178 70.2174 29.5178 69.6211 29.5178H68.3934C67.86 29.5178 66.991 29.5178 66.3573 29.5178C65.7242 29.5178 65.1184 29.5178 64.5352 29.5054V31.351H64.7195C64.7764 31.053 64.8884 30.853 65.0592 30.7523C65.2293 30.6517 65.5067 30.6048 65.8908 30.6144H68.349V36.0353H68.3502Z" fill="#227BDD"/>
<path d="M79.4991 33.8285C79.4991 32.6285 79.5069 31.7356 79.5217 31.1498C79.5383 30.5636 79.5881 30.1843 79.6699 29.9912C79.6989 29.9077 79.7529 29.8351 79.8246 29.7836C79.8969 29.7319 79.9828 29.7037 80.0718 29.7028V29.5194C79.9176 29.5194 79.7291 29.5194 79.5074 29.5194C79.2858 29.5194 79.0546 29.5194 78.8145 29.5263C78.575 29.5332 78.3243 29.5263 78.1121 29.5194C77.8999 29.5125 77.7173 29.5194 77.5579 29.5194V29.7167C77.6468 29.7152 77.7345 29.7408 77.8086 29.79C77.8833 29.8393 77.9408 29.91 77.9734 29.9925C78.0581 30.1788 78.1121 30.5636 78.1287 31.1498C78.1453 31.7361 78.1536 32.6257 78.1506 33.8216V36.0493C78.1506 37.3257 78.1429 38.2738 78.1275 38.8935C78.1091 39.5129 78.0552 39.9212 77.968 40.117C77.936 40.2053 77.8779 40.2816 77.8003 40.3352C77.7232 40.3888 77.6314 40.4172 77.5371 40.4164V40.6012C77.6924 40.6012 77.8768 40.6012 78.0913 40.6012C78.3059 40.6012 78.5472 40.5943 78.8246 40.5943C79.0753 40.5943 79.3106 40.5943 79.5341 40.6012C79.757 40.6081 79.9579 40.6012 80.137 40.6012V40.4219C80.0397 40.4237 79.9443 40.3959 79.8637 40.3421C79.7825 40.2884 79.7203 40.2113 79.6853 40.1212C79.5934 39.9253 79.5383 39.5157 79.5187 38.8949C79.4992 38.2742 79.4909 37.3211 79.4938 36.041V33.834L79.4991 33.8285Z" fill="#227BDD"/>
<path d="M90.6503 37.4498C90.9745 38.2774 91.211 38.9027 91.3598 39.3258C91.5098 39.7506 91.5708 40.0389 91.5453 40.1906C91.5204 40.3423 91.4072 40.4196 91.2075 40.4223V40.6016C91.3888 40.5947 91.5969 40.5906 91.8322 40.5906H93.2418C93.4303 40.5906 93.5856 40.5906 93.706 40.6016V40.4223C93.5678 40.4223 93.4374 40.3313 93.2987 40.1354C93.0598 39.7429 92.8565 39.3303 92.6905 38.9023C92.4244 38.277 92.035 37.3243 91.5222 36.0442L88.8637 29.3364H88.6491L85.9064 36.0304C85.3741 37.3178 84.9698 38.276 84.6924 38.905C84.5205 39.3345 84.3089 39.7473 84.0605 40.1382C83.9218 40.3327 83.7736 40.4278 83.6367 40.4223V40.6016C83.7642 40.5947 83.9236 40.5906 84.1145 40.5906H85.46C85.6723 40.5906 85.8691 40.5906 86.0493 40.6016V40.4223C85.8483 40.4223 85.7345 40.3409 85.7055 40.1906C85.6764 40.0403 85.7404 39.7506 85.8928 39.3258C86.0451 38.9009 86.2935 38.2747 86.6355 37.4498H90.6503ZM87.0469 36.3725L87.0611 36.3298C87.498 35.2097 87.8252 34.3688 88.0421 33.8069C88.2591 33.245 88.4102 32.851 88.4956 32.6248C88.5798 32.3986 88.6337 32.2317 88.6758 32.1213H88.6894C88.7214 32.2359 88.7765 32.4055 88.8554 32.6317C88.9348 32.8579 89.0777 33.2497 89.2869 33.8111C89.4962 34.3725 89.8121 35.2111 90.233 36.3298V36.3725H87.0469Z" fill="#227BDD"/>
<path d="M19.6286 49.4718C20.5613 49.4718 21.2542 48.8166 21.2542 47.8082C21.2542 46.8303 20.5862 46.1406 19.6286 46.1406C18.671 46.1406 17.9961 46.8206 17.9961 47.8082C17.9961 48.7959 18.6807 49.4718 19.6286 49.4718ZM19.6286 49.0331C18.9828 49.0331 18.5518 48.5683 18.5518 47.8082C18.5518 47.0483 18.9828 46.5793 19.6286 46.5793C20.298 46.5793 20.7054 47.0731 20.7054 47.8082C20.7054 48.5683 20.2731 49.0331 19.6286 49.0331ZM23.9539 49.429H24.4736V46.6151H25.3619L25.5102 46.1765H23.0059V46.6151H23.9539V49.429ZM27.4352 49.429H29.1813V48.9904H27.9563V47.9931H29.0095V47.5545H27.9563V46.6151H29.0164L29.1661 46.1765H27.4352V49.429ZM31.195 49.4539C31.3349 49.4611 31.4742 49.4306 31.5981 49.3655C31.7221 49.3004 31.826 49.2032 31.899 49.0842C32.226 48.5848 32.445 47.4455 32.5199 46.6013H33.2031V49.429H33.7283V46.1696H32.0833C32.0029 47.0634 31.8061 48.2676 31.5068 48.7366C31.4717 48.8034 31.4192 48.8596 31.3549 48.8993C31.2905 48.9391 31.2167 48.961 31.1409 48.9628C31.1056 48.9632 31.0703 48.96 31.0356 48.9532V49.429C31.0879 49.4406 31.1415 49.4457 31.195 49.4442V49.4539ZM36.5666 49V47.8427H36.8285C37.0253 47.8266 37.2227 47.8643 37.3995 47.9517C37.4778 47.9997 37.5412 48.0685 37.5823 48.1504C37.6234 48.2323 37.6407 48.324 37.6323 48.4152C37.6323 48.8056 37.3953 48.9931 36.884 48.9931L36.5666 49ZM36.0455 49.429H36.8687C37.8111 49.429 38.1631 49.0056 38.1631 48.4124C38.1745 48.2406 38.1345 48.0692 38.0482 47.92C37.9619 47.7707 37.8331 47.6503 37.678 47.5738C37.4054 47.459 37.1103 47.4066 36.8147 47.4207H36.5666V46.1793H36.0455V49.429ZM42.8902 49.429H43.4099V46.6151H44.5186L44.6669 46.1765H42.8902V49.429ZM46.5946 49.429H48.3408V48.9904H47.1157V47.9931H48.1717V47.5545H47.1157V46.6151H48.1773L48.3256 46.1765H46.5946V49.429ZM50.3545 49.4539C50.4946 49.461 50.634 49.4305 50.7582 49.3654C50.8823 49.3004 50.9865 49.2032 51.0598 49.0842C51.3869 48.5848 51.6045 47.4455 51.6793 46.6013H52.364V49.429H52.8892V46.1696H51.2428C51.1638 47.0634 50.9656 48.2676 50.6677 48.7366C50.6321 48.8033 50.5793 48.8594 50.5148 48.8992C50.4503 48.9389 50.3763 48.9609 50.3004 48.9628C50.2656 48.9631 50.2307 48.9599 50.1965 48.9532V49.429C50.2483 49.4406 50.3014 49.4457 50.3545 49.4442V49.4539ZM55.7261 49V47.8427H55.9894C56.1857 47.8264 56.3827 47.8641 56.559 47.9517C56.6374 47.9996 56.701 48.0684 56.7424 48.1503C56.7837 48.2321 56.8013 48.3239 56.7932 48.4152C56.7932 48.8056 56.5548 48.9931 56.0434 48.9931L55.7261 49ZM55.2022 49.429H56.0337C56.9761 49.429 57.3281 49.0056 57.3281 48.4124C57.3395 48.2406 57.2996 48.0692 57.2132 47.92C57.1269 47.7707 56.9981 47.6503 56.8431 47.5738C56.5704 47.459 56.2753 47.4066 55.9797 47.4207H55.7316V46.1793H55.2022V49.429ZM59.4679 49.429H60.4504C61.1988 49.429 61.5855 49 61.5855 48.4814C61.5907 48.298 61.5312 48.1186 61.4173 47.9745C61.3033 47.8302 61.1421 47.7304 60.9618 47.6924V47.6828C61.0906 47.6222 61.1987 47.5254 61.2726 47.4043C61.3465 47.2831 61.383 47.143 61.3776 47.0013C61.3776 46.571 61.0658 46.1737 60.3659 46.1737H59.4707V49.429H59.4679ZM59.989 49V47.9807H60.4685C60.8302 47.9807 61.0644 48.1683 61.0644 48.48C61.0644 48.8456 60.8204 48.9931 60.4144 48.9931L59.989 49ZM59.989 47.5586V46.6055H60.2966C60.6888 46.6055 60.851 46.8083 60.851 47.08C60.851 47.3517 60.6583 47.5586 60.2966 47.5586H59.989ZM63.7309 49.429H65.4772V48.9904H64.2519V47.9931H65.3189V47.5545H64.2632V46.6151H65.3189L65.4689 46.1765H63.7362V49.429H63.7309ZM67.6751 49.429H70.1001V50.3422H70.6057V48.9862H70.1902V46.1696H69.6704V48.9794H68.2015V46.1696H67.6751V49.429ZM72.6638 49.429H73.1244L74.5737 47.4979C74.7373 47.2896 74.8618 47.113 74.9714 46.9599H74.9809C74.9714 47.0979 74.9714 47.2703 74.9714 47.4828V49.429H75.4913V46.1696H74.9809L73.5814 48.0207C73.4125 48.2386 73.2832 48.4152 73.1795 48.5724H73.17C73.17 48.4 73.1795 48.2165 73.1795 48.0138V46.1696H72.6638V49.429ZM77.5339 49.429H78.1397L78.5802 48.4966C78.7189 48.2097 78.8131 48.1255 78.9127 48.1255H79.3934V49.429H79.9192V46.1696H78.9489C78.3182 46.1696 77.8487 46.5006 77.8487 47.1352C77.8404 47.3097 77.8908 47.4821 77.991 47.6256C78.0911 47.7692 78.2358 47.876 78.4029 47.9296V47.9393C78.2737 48.0083 78.1949 48.1269 78.0704 48.3683L77.5298 49.4249L77.5339 49.429ZM78.3863 47.1682C78.3863 46.7889 78.6549 46.6013 79.0224 46.6013H79.3934V47.7048H79.0224C78.659 47.7048 78.3863 47.5517 78.3863 47.1752V47.1682Z" fill="#227BDD"/>
<path d="M30.573 57.6503L29.3631 56.7757L28.1532 57.6503L28.6161 56.235L27.4062 55.3605H28.9016L29.3631 53.9453L29.826 55.3605H31.3213L30.1115 56.235L30.573 57.6503Z" fill="#227BDD"/>
<path d="M37.1992 55.3605H38.6932L39.156 53.9453L39.6176 55.3605H41.1129L39.903 56.235L40.3659 57.6503L39.156 56.7757L37.9462 57.6503L38.4077 56.235L37.1992 55.3605Z" fill="#227BDD"/>
<path d="M66.584 55.3605H68.0795L68.5425 53.9453L69.0036 55.3605H70.4992L69.2893 56.235L69.7523 57.6503L68.5425 56.7757L67.3326 57.6503L67.7938 56.235L66.584 55.3605Z" fill="#227BDD"/>
<path d="M46.9922 55.3605H48.4876L48.9504 53.9453L49.4119 55.3605H50.9073L49.6974 56.235L50.1603 57.6503L48.9504 56.7757L47.7406 57.6503L48.2021 56.235L46.9922 55.3605Z" fill="#227BDD"/>
<path d="M59.9571 57.6503L58.7472 56.7757L57.5374 57.6503L57.9989 56.235L56.7891 55.3605H58.2844L58.7472 53.9453L59.2088 55.3605H60.7041L59.4942 56.235L59.9571 57.6503Z" fill="#227BDD"/>
</svg>
