<svg width="142" height="67" viewBox="0 0 142 67" fill="none" xmlns="http://www.w3.org/2000/svg">
<path d="M58.9092 0.0559785C61.0692 0.0559785 63.2292 0.00397854 65.3892 0.0559785C67.4692 0.0359785 69.5392 0.417971 71.4792 1.17997C72.7992 1.72497 73.9492 2.61598 74.8092 3.75898C75.6692 4.90198 76.1992 6.25498 76.3392 7.67298C76.7492 9.87398 76.4092 12.146 75.3692 14.131C75.0392 14.662 74.6592 15.164 74.2392 15.63C74.1692 15.687 74.0892 15.726 73.9992 15.746C73.9092 15.767 73.8192 15.767 73.7392 15.747C72.8992 15.49 72.1292 15.035 71.5092 14.42C71.4492 14.354 71.4192 14.276 71.3992 14.193C71.3792 14.109 71.3792 14.022 71.3992 13.94C72.1492 12.646 72.5392 11.182 72.5392 9.69297C72.6092 8.23997 72.3392 6.78898 71.7292 5.46498C71.2892 4.57198 70.6392 3.79898 69.8392 3.21098C69.0292 2.62298 68.0992 2.23897 67.1092 2.09197C64.8292 1.72797 62.5192 1.60198 60.2192 1.71798C59.7192 1.71798 59.4191 2.02498 59.3291 2.57998C59.2591 2.94998 59.2192 3.32697 59.2192 3.70397V30.374C59.2292 30.821 59.2892 31.267 59.3692 31.705C59.4092 32.008 59.5492 32.291 59.7592 32.509C59.9792 32.728 60.2592 32.869 60.5592 32.912C61.3792 33.04 62.1992 33.12 63.0292 33.151C63.4592 33.17 63.6291 33.32 63.5791 33.741C63.5591 33.876 63.5591 34.012 63.5791 34.146C63.5791 34.399 63.4591 34.499 63.1991 34.491H52.3191C52.1091 34.491 51.7292 34.435 51.7192 34.356C51.6692 34.003 51.6692 33.645 51.7192 33.292C51.7192 33.243 51.9192 33.187 52.0292 33.176C52.5992 33.119 53.1592 33.112 53.7392 33.026C54.1392 33.003 54.5192 32.829 54.8092 32.539C55.0892 32.248 55.2492 31.863 55.2592 31.459C55.3292 30.999 55.3592 30.536 55.3692 30.072V4.43698C55.3592 3.88498 55.3091 3.33399 55.1991 2.79199C55.1491 2.42499 54.9791 2.08597 54.6991 1.84197C54.4191 1.59697 54.0591 1.46198 53.6891 1.46498C53.1491 1.40498 52.6091 1.37398 52.0691 1.37098C51.7591 1.37098 51.6292 1.27297 51.6392 0.955972C51.6692 -0.169028 51.5391 0.0139826 52.5691 0.00698257H58.8592L58.9092 0.0559785Z" fill="#86ACE6"/>
<path d="M71.9609 0.554009C72.7209 0.438009 73.361 0.310008 74.021 0.235008C77.061 0.0200084 80.101 -0.0409903 83.151 0.0520097C85.201 0.0250097 87.251 0.0520097 89.301 0.0520097C89.721 0.0520097 89.861 0.164007 89.851 0.584007C89.811 1.53901 89.921 1.40101 88.991 1.42701C88.571 1.43501 88.141 1.47001 87.731 1.53101C87.301 1.58101 86.911 1.78701 86.631 2.11001C86.351 2.43301 86.2009 2.84901 86.2209 3.27401C86.1709 4.02401 86.131 4.737 86.131 5.467V29.459C86.131 30.1 86.1609 30.745 86.2209 31.386C86.3209 32.559 86.971 33.125 88.291 33.186C88.671 33.208 89.0709 33.23 89.4609 33.238C89.7609 33.238 89.8409 33.391 89.8409 33.669C89.8609 34.569 89.8709 34.569 88.9509 34.569H78.541C78.351 34.569 78.011 34.484 78.001 34.408C77.971 34.055 77.981 33.701 78.031 33.351C78.031 33.31 78.251 33.267 78.361 33.257C79.001 33.213 79.661 33.227 80.291 33.13C81.801 32.894 82.231 32.407 82.301 30.881V3.98C82.301 3.536 82.2709 3.09201 82.2109 2.65301C82.2009 2.52701 82.171 2.403 82.121 2.29C82.071 2.176 81.991 2.075 81.891 1.993C81.801 1.911 81.681 1.85101 81.561 1.81501C81.441 1.78001 81.3109 1.77001 81.1909 1.78701C79.3009 1.83201 77.391 1.81701 75.501 2.00001C75.121 2.07701 74.731 2.06401 74.361 1.96201C73.981 1.86101 73.641 1.67401 73.351 1.41601C72.921 1.08601 72.4509 0.798009 71.9609 0.554009Z" fill="#86ACE6"/>
<path d="M77.1294 18.95C74.6794 18.958 72.2593 18.49 69.9993 17.575C68.6693 17.025 67.5194 16.126 66.6794 14.974C65.8294 13.822 65.3193 12.4621 65.1893 11.0421C64.8393 9.00605 65.1294 6.91104 66.0194 5.04504C66.3694 4.43804 66.7594 3.85104 67.1794 3.28604C67.2394 3.18204 67.3393 3.10405 67.4593 3.07005C67.5693 3.03605 67.6994 3.04704 67.7994 3.10304C68.6094 3.35704 69.3493 3.77705 69.9893 4.33505C70.0393 4.37305 70.0893 4.42104 70.1193 4.47604C70.1593 4.53204 70.1793 4.59404 70.1893 4.65904C70.1993 4.72404 70.1894 4.79004 70.1794 4.85304C70.1594 4.91604 70.1293 4.97404 70.0893 5.02504C69.4193 6.24304 69.0293 7.59605 68.9593 8.98305C68.8793 10.37 69.1294 11.755 69.6694 13.036C70.5294 15.285 72.4094 16.387 74.6794 16.852C75.7094 17.04 76.7394 17.165 77.7694 17.226C78.1494 17.256 78.3094 17.35 78.2594 17.724V17.994C78.2494 19.111 78.3894 18.932 77.1294 18.95Z" fill="#86ACE6"/>
<path d="M69.6396 18.357C68.3396 18.534 67.1396 18.732 65.9296 18.848C65.1796 18.927 64.4296 18.908 63.6696 18.953C63.3296 18.953 63.1595 18.868 63.1995 18.499C63.2295 18.13 63.0896 17.626 63.2796 17.375C63.4696 17.125 63.9695 17.259 64.3295 17.206C65.2395 17.082 66.1496 16.948 67.0596 16.832C67.1896 16.813 67.3196 16.84 67.4296 16.907C68.1296 17.35 68.8196 17.81 69.6396 18.357Z" fill="#86ACE6"/>
<path d="M70.7896 19.986C69.6096 21.223 68.0395 22.003 66.3395 22.186C65.0495 22.357 63.7595 22.434 62.4595 22.418C59.8695 22.392 57.3795 21.972 55.4495 20.008C54.4995 20.985 53.2795 21.67 51.9395 21.983C49.4995 22.553 46.9695 22.621 44.4995 22.182C43.0595 21.988 41.6995 21.386 40.5895 20.447C40.4195 20.301 40.2695 20.151 40.1095 20.004C37.7795 22.343 34.7896 22.429 31.8096 22.455V24.243C31.8596 24.267 31.8995 24.283 31.9595 24.292C34.5895 24.429 37.2395 24.121 39.7695 23.381C39.9495 23.308 40.1495 23.291 40.3395 23.332C42.7195 24.062 45.1995 24.39 47.6895 24.303C50.0895 24.393 52.4896 24.109 54.7996 23.46C55.2396 23.312 55.7095 23.312 56.1495 23.46C58.3095 24.076 60.5596 24.358 62.7996 24.295C65.4396 24.41 68.0795 24.079 70.6095 23.317C70.7495 23.272 70.9096 23.272 71.0496 23.317C73.1196 23.975 75.2895 24.297 77.4595 24.273C79.9495 24.426 82.4395 24.203 84.8595 23.613C85.7095 23.349 86.6295 23.349 87.4795 23.613C89.8495 24.192 92.2995 24.414 94.7395 24.273C96.9595 24.304 99.1695 23.979 101.28 23.31C101.44 23.261 101.61 23.261 101.76 23.31C104.26 24.058 106.869 24.381 109.479 24.265C109.729 24.265 109.859 24.197 109.839 23.935V22.729C109.839 22.466 109.719 22.391 109.469 22.402H108.109C105.649 22.283 103.309 21.852 101.479 19.966C100.719 20.821 99.7295 21.446 98.6295 21.769C97.6395 22.056 96.6295 22.253 95.6095 22.359C93.6695 22.574 91.7096 22.466 89.8096 22.04C88.3996 21.74 87.1095 21.022 86.1195 19.979C84.9395 21.179 83.3895 21.954 81.7195 22.183C79.9495 22.476 78.1495 22.531 76.3595 22.344C74.2695 22.278 72.2796 21.437 70.7896 19.986ZM109.76 19.112V17.237C106.74 17.193 103.759 17.092 101.459 14.792C99.5495 16.291 98.9395 16.666 96.8795 16.966C95.4695 17.16 94.0595 17.233 92.6395 17.183C90.2195 17.105 87.8995 16.636 86.1095 14.777C86.0395 14.824 85.9796 14.874 85.9296 14.927C85.0096 15.834 83.8595 16.467 82.5895 16.756C80.2195 17.305 77.7695 17.38 75.3595 16.977C73.8595 16.799 72.4395 16.186 71.2795 15.215C71.1095 15.069 70.9495 14.915 70.8695 14.84L68.1095 16.64C68.9095 17.055 69.6795 17.532 70.4995 17.88C72.3795 18.601 74.3595 18.982 76.3695 19.004C79.0495 19.234 81.7495 19.057 84.3695 18.48C85.5295 18.151 86.7495 18.151 87.8995 18.48C90.2995 19.022 92.7695 19.208 95.2295 19.03C97.2595 19.032 99.2895 18.717 101.229 18.097C101.369 18.05 101.52 18.05 101.66 18.097C103 18.556 104.4 18.839 105.81 18.94C107.12 19.022 108.43 19.052 109.76 19.112ZM31.7795 19.06C34.2295 19.191 36.6696 18.938 39.0396 18.31C39.7296 18.106 40.4695 18.106 41.1595 18.31C45.0595 19.231 49.1096 19.341 53.0496 18.632C53.7896 18.396 54.5495 18.211 55.3195 18.081C56.0995 18.185 56.8795 18.357 57.6295 18.595C60.9595 19.176 64.3695 19.233 67.7195 18.764C68.3895 18.679 69.0695 18.494 69.7395 18.355C68.9595 17.834 68.2295 17.343 67.4695 16.855C67.3595 16.784 67.2295 16.756 67.0995 16.777C65.0895 17.22 63.0195 17.326 60.9795 17.092C58.9295 17.027 56.9695 16.207 55.4795 14.79H55.3795C54.3595 15.837 53.0395 16.55 51.5995 16.834C49.8995 17.191 48.1596 17.304 46.4296 17.171C45.1196 17.127 43.8195 16.873 42.5895 16.421C41.6495 16.049 40.7995 15.479 40.0995 14.749C37.7595 17.096 34.7795 17.178 31.7695 17.226L31.7795 19.06Z" fill="#86ACE6"/>
<path d="M70.7791 19.985C72.2791 21.443 74.279 22.286 76.379 22.346C78.159 22.532 79.969 22.478 81.739 22.185C83.409 21.956 84.959 21.18 86.139 19.98C87.129 21.023 88.419 21.742 89.829 22.042C91.729 22.468 93.689 22.576 95.629 22.361C96.649 22.255 97.659 22.057 98.649 21.771C99.729 21.446 100.709 20.828 101.459 19.986C103.289 21.86 105.629 22.303 108.079 22.422C108.539 22.445 108.989 22.422 109.439 22.422C109.679 22.422 109.819 22.487 109.819 22.749V23.96C109.819 24.222 109.699 24.289 109.459 24.289C106.849 24.398 104.239 24.076 101.739 23.334C101.579 23.285 101.419 23.285 101.259 23.334C99.149 24.004 96.939 24.329 94.719 24.297C92.279 24.439 89.829 24.217 87.449 23.638C86.599 23.373 85.689 23.373 84.839 23.638C82.419 24.228 79.929 24.45 77.439 24.297C75.259 24.322 73.0991 23.999 71.0291 23.342C70.8791 23.297 70.729 23.297 70.589 23.342C68.059 24.108 65.4191 24.438 62.7791 24.32C60.5291 24.388 58.289 24.106 56.119 23.484C55.689 23.336 55.2091 23.336 54.7791 23.484C52.4691 24.141 50.0691 24.425 47.6691 24.327C45.1791 24.416 42.6891 24.088 40.3091 23.357C40.1291 23.316 39.929 23.333 39.749 23.406C37.219 24.146 34.5691 24.454 31.9291 24.316C31.8791 24.308 31.8291 24.291 31.7891 24.267V22.455C34.7791 22.429 37.759 22.343 40.089 20.004C40.249 20.15 40.399 20.3 40.569 20.447C41.689 21.39 43.049 21.993 44.509 22.182C46.979 22.623 49.509 22.555 51.959 21.983C53.289 21.667 54.509 20.982 55.469 20.008C57.389 21.972 59.879 22.392 62.479 22.418C63.769 22.434 65.069 22.357 66.349 22.186C68.049 21.999 69.6191 21.219 70.7791 19.985Z" fill="#86ACE6"/>
<path d="M109.759 19.1109C108.419 19.0509 107.119 19.021 105.799 18.924C104.389 18.824 102.989 18.5399 101.649 18.0809C101.509 18.0339 101.359 18.0339 101.219 18.0809C99.2794 18.7069 97.2594 19.028 95.2194 19.033C92.7594 19.211 90.2894 19.0249 87.8894 18.4819C86.7394 18.1539 85.5194 18.1539 84.3594 18.4819C81.7394 19.0599 79.0394 19.237 76.3594 19.007C74.3494 18.983 72.3694 18.602 70.4894 17.879C69.6694 17.531 68.8994 17.055 68.1094 16.639L70.8594 14.839C70.9494 14.915 71.0994 15.068 71.2694 15.215C72.4294 16.186 73.8494 16.799 75.3594 16.976C77.7594 17.379 80.2294 17.303 82.5994 16.751C83.8694 16.463 85.0394 15.824 85.9594 14.907C86.0194 14.854 86.0794 14.804 86.1394 14.757C87.9394 16.631 90.2594 17.0839 92.6794 17.1629C94.0994 17.2139 95.5194 17.141 96.9294 16.946C98.9894 16.657 99.5994 16.286 101.519 14.772C103.799 17.073 106.769 17.1739 109.809 17.2169L109.759 19.1109Z" fill="#86ACE6"/>
<path d="M31.7891 19.06V17.226C34.7991 17.178 37.769 17.095 40.109 14.749C40.809 15.477 41.659 16.046 42.599 16.417C43.829 16.869 45.129 17.122 46.439 17.167C48.169 17.3 49.909 17.187 51.609 16.829C53.049 16.546 54.359 15.833 55.379 14.786H55.489C56.969 16.201 58.929 17.02 60.989 17.087C63.039 17.332 65.119 17.232 67.139 16.791C67.269 16.771 67.399 16.798 67.509 16.87C68.269 17.35 68.9791 17.845 69.7791 18.369C69.1091 18.507 68.439 18.691 67.749 18.777C64.399 19.246 60.9991 19.189 57.6691 18.609C56.9091 18.369 56.139 18.197 55.359 18.095C54.589 18.222 53.829 18.406 53.099 18.646C49.149 19.355 45.099 19.245 41.199 18.324C40.509 18.12 39.769 18.12 39.079 18.324C36.699 18.936 34.2391 19.184 31.7891 19.06Z" fill="#86ACE6"/>
<path d="M133.411 39.141C133.491 39.342 133.541 39.551 133.561 39.763V49.962C133.741 49.812 133.841 49.734 133.941 49.643L136.851 46.754C136.881 46.724 136.911 46.691 136.941 46.656C137.091 46.42 137.231 46.184 137.381 45.951L136.601 45.576C136.481 45.115 136.521 45.06 137.031 45.055H140.171V45.689C139.761 45.724 139.351 45.851 138.991 46.059C138.631 46.267 138.311 46.551 138.071 46.892C137.481 47.488 136.841 48.129 136.191 48.766L136.431 49.167C137.401 50.699 138.371 52.233 139.341 53.769C140.101 54.968 140.101 54.968 141.411 55.371V55.919C140.721 55.919 140.031 55.866 139.351 55.919C139.061 55.967 138.761 55.916 138.501 55.773C138.251 55.631 138.041 55.406 137.931 55.135C137.011 53.524 136.011 51.953 135.031 50.368C134.961 50.244 134.871 50.128 134.751 49.955C134.381 50.363 134.001 50.731 133.651 51.121C133.581 51.233 133.551 51.364 133.561 51.495V54.149C133.561 55.033 133.741 55.172 134.621 55.245C134.681 55.254 134.751 55.266 134.811 55.282C134.811 55.394 134.841 55.495 134.841 55.597C134.831 55.698 134.821 55.8 134.801 55.9H130.451C130.351 55.9 130.181 55.709 130.191 55.619C130.201 55.53 130.351 55.271 130.441 55.271C131.431 55.271 131.571 54.897 131.571 53.94V42.256C131.541 40.73 131.311 40.809 130.211 40.689C130.091 40.341 130.171 40.183 130.591 40.089C131.341 39.913 132.101 39.643 132.821 39.396C132.961 39.323 133.091 39.234 133.201 39.13L133.411 39.141Z" fill="#86ACE6"/>
<path d="M89.2006 55.329C89.2006 55.408 89.2307 55.498 89.2307 55.582C89.2307 55.667 89.2106 55.788 89.1906 55.912H84.9107V55.322C84.9707 55.302 85.0306 55.287 85.0906 55.277C85.8506 55.213 86.0507 55.056 86.0507 54.318C86.0507 52.118 86.0507 49.913 85.9807 47.713C86.0107 47.326 85.9307 46.939 85.7307 46.603C85.5307 46.268 85.2307 46.001 84.8807 45.84C84.5007 45.7 84.0906 45.674 83.6906 45.764C83.3006 45.854 82.9407 46.056 82.6607 46.346C82.2707 46.701 81.9207 47.094 81.6207 47.519C81.5107 47.681 81.4606 47.87 81.4606 48.062C81.4606 49.996 81.4606 51.929 81.4606 53.861C81.4706 54.071 81.4907 54.282 81.5107 54.49C81.5807 55.067 81.7407 55.24 82.3107 55.24C82.5607 55.24 82.6807 55.311 82.6807 55.596C82.6807 55.881 82.5007 55.915 82.2707 55.915H78.3907C78.2307 55.33 78.2507 55.3 78.7907 55.24C79.3307 55.18 79.4706 54.987 79.4706 54.42C79.4706 52.92 79.4906 51.421 79.4706 49.922C79.4906 49.053 79.4507 48.184 79.3607 47.32C79.3607 46.995 79.2606 46.678 79.0806 46.407C78.9006 46.137 78.6406 45.924 78.3406 45.796C78.0406 45.667 77.7107 45.628 77.3907 45.684C77.0707 45.74 76.7707 45.888 76.5307 46.11C75.9807 46.551 75.4707 47.043 75.0207 47.578C74.9407 47.701 74.9007 47.847 74.9107 47.994V54.157C74.8907 54.438 74.9607 54.719 75.1107 54.958C75.2607 55.138 75.6207 55.138 75.8607 55.259C75.9207 55.291 75.9807 55.338 76.0207 55.394C76.0607 55.451 76.0907 55.516 76.1007 55.585C76.1007 55.694 75.9407 55.893 75.8507 55.893H71.5806C71.4306 55.278 71.4407 55.259 71.9907 55.226C72.6107 55.189 72.8207 55.008 72.9007 54.39C72.9307 54.122 72.9407 53.853 72.9307 53.584V47.782C72.9407 47.602 72.9407 47.422 72.9307 47.242C72.8507 46.567 72.6807 46.399 72.0007 46.32C71.8607 46.32 71.7206 46.294 71.5706 46.283C71.4606 45.946 71.4807 45.77 71.9107 45.665C72.6907 45.463 73.4606 45.2129 74.2106 44.9159C74.6806 44.7319 74.7807 44.762 74.8107 45.29C74.8107 45.687 74.8407 46.084 74.8707 46.583C75.2207 46.272 75.4707 46.029 75.7507 45.803C76.1807 45.403 76.7007 45.105 77.2607 44.931C77.8207 44.757 78.4207 44.712 79.0007 44.799C79.4707 44.848 79.9207 45.021 80.2907 45.3C80.6707 45.579 80.9607 45.953 81.1407 46.384C81.1707 46.455 81.2007 46.523 81.2407 46.59C81.2807 46.641 81.3307 46.689 81.3907 46.733C81.6207 46.439 81.8707 46.16 82.1407 45.897C82.5407 45.499 83.0307 45.193 83.5607 44.999C84.0907 44.805 84.6607 44.728 85.2307 44.773C85.9307 44.778 86.6107 45.054 87.1207 45.542C87.6307 46.031 87.9206 46.695 87.9506 47.396C88.0106 47.841 88.0407 48.289 88.0407 48.738V53.91C88.0407 55.06 88.0906 55.127 89.2006 55.329Z" fill="#86ACE6"/>
<path d="M44.8309 55.341V55.896H40.611C40.421 55.39 40.451 55.312 40.981 55.266C41.071 55.27 41.161 55.254 41.251 55.219C41.331 55.185 41.4109 55.133 41.4709 55.067C41.5409 55.001 41.581 54.922 41.611 54.836C41.641 54.75 41.651 54.659 41.651 54.569C41.651 52.275 41.671 49.985 41.621 47.691C41.661 47.32 41.591 46.945 41.401 46.618C41.221 46.292 40.941 46.03 40.601 45.87C40.231 45.731 39.8309 45.701 39.4409 45.785C39.0609 45.869 38.711 46.063 38.431 46.342C38.011 46.725 37.611 47.138 37.251 47.579C37.151 47.724 37.101 47.898 37.111 48.074V54.011C37.111 54.235 37.141 54.458 37.181 54.678C37.181 54.762 37.201 54.844 37.241 54.919C37.281 54.993 37.331 55.06 37.391 55.114C37.461 55.168 37.531 55.209 37.611 55.233C37.691 55.257 37.781 55.265 37.861 55.256C38.361 55.237 38.421 55.473 38.301 55.901C38.191 55.901 38.0809 55.931 37.9609 55.935H34.161C33.921 55.935 33.7109 55.935 33.7109 55.597C33.7209 55.26 33.881 55.275 34.121 55.26C34.881 55.223 35.111 55.001 35.121 54.237V47.4C35.121 46.651 34.901 46.433 34.131 46.347C33.941 46.324 33.7309 46.384 33.7209 46.074C33.7109 45.764 33.911 45.774 34.121 45.699C34.911 45.452 35.6909 45.194 36.4609 44.901C36.8609 44.747 36.971 44.785 36.991 45.212C37.021 45.64 37.0409 46.066 37.0709 46.573C37.4509 46.236 37.7709 45.951 38.0909 45.696C38.8609 45.031 39.871 44.697 40.891 44.769C41.461 44.776 42.0109 44.961 42.4709 45.297C42.9309 45.633 43.2709 46.104 43.4409 46.642L43.611 46.777C43.691 46.6 43.791 46.433 43.901 46.279C44.631 45.444 45.641 44.904 46.741 44.761C47.131 44.684 47.531 44.691 47.921 44.78C48.311 44.869 48.681 45.038 48.991 45.277C49.311 45.516 49.581 45.819 49.771 46.166C49.961 46.513 50.081 46.896 50.111 47.291C50.181 47.794 50.2109 48.301 50.2109 48.808C50.2109 50.458 50.2109 52.106 50.2109 53.752C50.2009 54.003 50.221 54.254 50.261 54.502C50.341 55.042 50.501 55.177 51.061 55.221L51.361 55.252V55.851H47.0909V55.298C47.1109 55.279 47.131 55.264 47.161 55.253C48.121 55.129 48.231 55.01 48.241 54.032V48.458C48.231 47.933 48.151 47.412 48.001 46.91C47.951 46.685 47.8509 46.474 47.7109 46.292C47.5709 46.109 47.3909 45.959 47.1909 45.852C46.9809 45.745 46.751 45.684 46.521 45.672C46.291 45.661 46.061 45.699 45.851 45.785C44.931 46.114 44.1609 46.771 43.7109 47.63C43.6609 47.739 43.641 47.859 43.661 47.978V53.87C43.671 55.075 43.7009 55.075 44.8309 55.341Z" fill="#86ACE6"/>
<path d="M0 40.558V39.906C0.12 39.906 0.239976 39.869 0.349976 39.869C2.42998 39.869 4.49998 39.869 6.59998 39.892C7.25998 39.909 7.92006 39.993 8.56006 40.145C9.54006 40.327 10.41 40.866 11 41.656C11.6 42.446 11.87 43.429 11.77 44.41C11.79 45.476 11.4 46.508 10.66 47.284C9.92003 48.06 8.90997 48.518 7.83997 48.56C6.74997 48.698 5.65005 48.691 4.55005 48.747H3.85999C3.83999 48.871 3.82995 48.996 3.81995 49.121C3.81995 50.71 3.81995 52.3 3.81995 53.889C3.81995 54.901 4.09 55.133 5.13 55.167H5.81006V55.886H0.0200195V55.193C0.24002 55.193 0.460054 55.175 0.680054 55.16C1.34005 55.115 1.59994 54.886 1.68994 54.232C1.70994 54.069 1.71996 53.905 1.70996 53.741V41.78C1.67996 40.899 1.44004 40.656 0.540039 40.573L0 40.558ZM3.87 47.81C5.07 47.909 6.27996 47.827 7.45996 47.566C7.97996 47.432 8.44005 47.152 8.80005 46.76C9.16005 46.368 9.38997 45.881 9.46997 45.359C9.57997 44.814 9.60995 44.259 9.56995 43.706C9.56995 43.013 9.31998 42.342 8.84998 41.827C8.37998 41.312 7.74004 40.99 7.04004 40.923C6.30004 40.819 5.54003 40.767 4.78003 40.77C3.91003 40.747 3.82995 40.814 3.81995 41.662C3.79995 43.596 3.81995 45.53 3.81995 47.464C3.82995 47.58 3.85 47.695 3.87 47.81Z" fill="#86ACE6"/>
<path d="M96.49 40.547V39.906C96.61 39.886 96.74 39.874 96.87 39.869C98.93 39.869 101.02 39.831 103.07 39.899C103.96 39.925 104.85 40.078 105.71 40.353C106.43 40.582 107.06 41.032 107.51 41.637C107.96 42.242 108.21 42.972 108.22 43.726C108.28 44.353 108.23 44.986 108.08 45.599C107.91 46.36 107.49 47.047 106.9 47.563C106.31 48.079 105.57 48.399 104.79 48.478C103.51 48.642 102.22 48.739 100.93 48.771H100.38C100.35 48.828 100.32 48.892 100.31 48.958C100.31 50.678 100.31 52.402 100.34 54.127C100.36 54.941 100.64 55.162 101.47 55.199H102.3V55.948H96.53C96.39 55.263 96.4 55.248 97.03 55.221C97.87 55.184 98.1199 54.948 98.1899 54.116V42.064C98.1699 40.85 97.98 40.651 96.74 40.565C96.66 40.568 96.57 40.562 96.49 40.547ZM100.33 44.523H100.28V47.402C100.28 47.702 100.36 47.837 100.69 47.824C101.38 47.798 102.08 47.824 102.77 47.79C104.52 47.696 105.63 46.868 105.95 45.376C106.05 44.863 106.09 44.339 106.05 43.817C106.09 43.139 105.87 42.473 105.43 41.947C105 41.421 104.39 41.072 103.72 40.968C102.76 40.84 101.8 40.777 100.84 40.781C100.77 40.773 100.7 40.781 100.63 40.803C100.57 40.826 100.51 40.863 100.46 40.912C100.41 40.961 100.38 41.02 100.36 41.085C100.33 41.15 100.33 41.219 100.34 41.287C100.33 42.383 100.33 43.444 100.33 44.527V44.523Z" fill="#86ACE6"/>
<path d="M58.6993 46.311C58.5693 45.937 58.6993 45.79 59.0793 45.689C59.8493 45.475 60.5993 45.216 61.3393 44.913C61.7693 44.745 61.8794 44.786 61.8794 45.251V52.174C61.8794 52.679 61.9394 53.182 62.0594 53.673C62.1194 53.928 62.2193 54.1689 62.3693 54.3819C62.5193 54.5949 62.7193 54.7759 62.9393 54.9119C63.1593 55.0479 63.4094 55.1379 63.6694 55.1749C63.9294 55.2119 64.1893 55.196 64.4493 55.127C65.3993 54.914 66.2294 54.335 66.7594 53.516C66.8294 53.388 66.8593 53.241 66.8493 53.094V47.562C66.8493 47.428 66.8393 47.294 66.8193 47.16C66.7393 46.527 66.6394 46.411 66.0194 46.351L65.6594 46.302C65.5494 45.928 65.6194 45.785 66.0394 45.68C66.8094 45.468 67.5594 45.209 68.2994 44.904C68.7294 44.735 68.8393 44.777 68.8393 45.249V54.272C68.8693 55.021 69.0694 55.224 69.7994 55.302L70.1794 55.336L70.2093 55.853C69.9493 55.839 69.6894 55.839 69.4294 55.853C68.7494 55.92 68.0794 55.998 67.4094 56.096C67.1094 56.141 66.9593 56.0959 66.9493 55.7479C66.9493 55.3999 66.8993 54.9569 66.8693 54.5669L66.7093 54.47C66.6393 54.614 66.5393 54.75 66.4393 54.874C65.8593 55.455 65.1293 55.864 64.3293 56.055C63.5293 56.246 62.6894 56.213 61.9094 55.958C61.4594 55.83 61.0493 55.579 60.7393 55.233C60.4193 54.888 60.2093 54.461 60.1193 54.002C59.9893 53.433 59.9194 52.8529 59.9194 52.2699C59.8894 50.9089 59.9194 49.545 59.9194 48.181V47.686C59.8894 46.543 59.8393 46.506 58.6993 46.311Z" fill="#86ACE6"/>
<path d="M119.861 55.19L119.991 55.719C119.721 55.9 119.401 56.021 119.081 56.075C118.751 56.129 118.411 56.115 118.091 56.032C117.771 55.95 117.471 55.802 117.201 55.598C116.941 55.393 116.731 55.137 116.571 54.845C116.441 54.946 116.321 55.037 116.201 55.134C115.611 55.605 114.931 55.933 114.201 56.09C113.461 56.247 112.701 56.229 111.981 56.037C111.451 55.962 110.961 55.723 110.571 55.353C110.191 54.984 109.931 54.503 109.841 53.979C109.691 53.413 109.731 52.818 109.931 52.272C110.141 51.725 110.511 51.254 110.991 50.921C111.871 50.31 112.851 49.861 113.891 49.598C114.651 49.399 115.381 49.223 116.131 49.058C116.401 49.002 116.531 48.905 116.501 48.615C116.481 48.019 116.421 47.425 116.331 46.835C116.271 46.508 116.101 46.21 115.851 45.986C115.601 45.761 115.291 45.622 114.951 45.587C114.361 45.428 113.731 45.5 113.191 45.788C112.651 46.077 112.251 46.56 112.051 47.139C111.881 47.514 111.711 47.832 111.261 47.888C111.121 47.935 110.981 47.942 110.841 47.909C110.701 47.876 110.571 47.803 110.471 47.701C110.371 47.598 110.301 47.469 110.271 47.329C110.241 47.189 110.261 47.044 110.311 46.91C110.381 46.627 110.511 46.361 110.701 46.129C110.881 45.898 111.101 45.704 111.361 45.561C112.351 44.976 113.491 44.695 114.651 44.755C115.021 44.751 115.401 44.779 115.781 44.839C116.551 44.908 117.261 45.275 117.761 45.861C118.271 46.447 118.521 47.205 118.461 47.973C118.491 49.846 118.461 51.691 118.461 53.55C118.461 53.8 118.471 54.051 118.491 54.3C118.631 55.247 118.901 55.423 119.861 55.19ZM116.501 49.74C115.171 49.991 113.921 50.514 112.811 51.277C112.531 51.498 112.291 51.772 112.101 52.083C111.931 52.356 111.831 52.666 111.801 52.987C111.771 53.308 111.821 53.631 111.951 53.928C112.071 54.226 112.271 54.489 112.521 54.696C112.771 54.903 113.061 55.048 113.381 55.118C113.931 55.216 114.501 55.169 115.031 54.983C115.561 54.796 116.031 54.476 116.391 54.054C116.461 53.975 116.501 53.876 116.501 53.773C116.501 52.458 116.501 51.143 116.501 49.74Z" fill="#86ACE6"/>
<path d="M32.1996 50.281H24.8496C24.8496 51.78 24.9496 53.17 25.9396 54.328C26.2196 54.638 26.5696 54.889 26.9496 55.066C27.3296 55.244 27.7397 55.345 28.1597 55.363C28.5797 55.382 28.9997 55.317 29.3997 55.174C29.7897 55.03 30.1596 54.811 30.4696 54.527C30.8596 54.148 31.2296 53.745 31.5796 53.321L32.1197 53.579C31.7397 54.39 31.1296 55.069 30.3596 55.532C29.5896 55.995 28.6997 56.221 27.7997 56.181C27.3497 56.164 26.8996 56.111 26.4496 56.023C25.7896 55.916 25.1697 55.6449 24.6397 55.2349C24.1197 54.8259 23.6996 54.291 23.4396 53.681C22.9996 52.738 22.7596 51.717 22.7296 50.681C22.6996 49.644 22.8897 48.612 23.2697 47.646C23.4897 47.066 23.8297 46.537 24.2697 46.093C24.7097 45.648 25.2297 45.296 25.8097 45.059C26.3897 44.823 27.0097 44.706 27.6297 44.715C28.2597 44.725 28.8696 44.862 29.4496 45.117C31.0096 45.747 31.6797 47.088 31.9997 48.636C32.0997 49.156 32.1296 49.692 32.1996 50.281ZM30.0896 49.505C30.1596 48.548 29.9797 47.59 29.5497 46.727C29.3897 46.416 29.1597 46.147 28.8697 45.944C28.5897 45.74 28.2497 45.609 27.9097 45.56C27.5597 45.511 27.1997 45.546 26.8697 45.663C26.5397 45.779 26.2397 45.973 25.9997 46.229C25.2097 47.136 24.7996 48.307 24.8496 49.505H30.0896Z" fill="#86ACE6"/>
<path d="M13.4105 55.9299V55.3319C13.4605 55.3109 13.5006 55.2939 13.5606 55.2829C14.6406 55.1739 14.7505 55.0619 14.7505 53.9939V47.6499C14.7505 46.5659 14.6605 46.4769 13.5705 46.3419C13.5205 46.3339 13.4706 46.3209 13.4306 46.3049C13.3106 45.9679 13.4005 45.8249 13.7805 45.7209C14.5605 45.5009 15.3205 45.2399 16.0705 44.9369C16.5305 44.7579 16.6005 44.7689 16.6205 45.2899C16.6505 45.7019 16.6805 46.1149 16.7105 46.6199C17.0605 46.2449 17.3305 45.9379 17.6405 45.6499C17.9505 45.3089 18.3405 45.0539 18.7805 44.9109C19.2205 44.7669 19.6905 44.7389 20.1405 44.8289C20.5505 44.8969 20.9106 45.1119 21.1706 45.4339C21.4206 45.7549 21.5505 46.1599 21.5205 46.5679C21.5305 46.7369 21.4805 46.9059 21.3805 47.0429C21.2805 47.1809 21.1305 47.2779 20.9705 47.3179C20.8005 47.3689 20.6205 47.3589 20.4605 47.2909C20.2905 47.2219 20.1605 47.0999 20.0805 46.9429C19.9605 46.7379 19.8705 46.5129 19.7705 46.2979C19.7305 46.1869 19.6705 46.0849 19.5905 45.9999C19.5105 45.9149 19.4106 45.8499 19.3006 45.8099C19.1906 45.7699 19.0805 45.7549 18.9605 45.7679C18.8405 45.7799 18.7305 45.8199 18.6305 45.8829C17.8305 46.3089 17.1805 46.9609 16.7505 47.7559C16.6805 47.8539 16.7105 48.0189 16.7105 48.1529V54.0419C16.7605 55.0279 16.9705 55.2559 17.9605 55.2749C18.3105 55.2749 18.4405 55.4059 18.3705 55.7239C18.3505 55.8079 18.2305 55.9339 18.1505 55.9339C16.6005 55.9329 15.0105 55.9319 13.4105 55.9299Z" fill="#86ACE6"/>
<path d="M125.98 55.295V55.895H121.03V55.317C121.11 55.307 121.19 55.292 121.27 55.272C122.2 55.201 122.38 55.025 122.38 54.077V47.558C122.38 46.614 122.22 46.462 121.27 46.347C121.2 46.342 121.12 46.33 121.05 46.314C120.91 45.939 121.05 45.819 121.41 45.718C122.18 45.497 122.949 45.223 123.699 44.931C124.139 44.762 124.23 44.781 124.25 45.257V46.498L124.41 46.542L124.87 46.036C125.14 45.691 125.47 45.402 125.85 45.185C126.23 44.968 126.649 44.827 127.079 44.771C127.339 44.735 127.599 44.753 127.839 44.824C128.089 44.895 128.32 45.017 128.51 45.183C128.71 45.348 128.859 45.554 128.969 45.785C129.079 46.016 129.14 46.267 129.14 46.522C129.16 46.696 129.11 46.869 129.01 47.011C128.9 47.153 128.759 47.256 128.589 47.302C128.409 47.354 128.22 47.341 128.05 47.267C127.89 47.193 127.75 47.062 127.67 46.897C127.56 46.702 127.48 46.489 127.38 46.29C127.35 46.185 127.299 46.088 127.219 46.007C127.149 45.925 127.049 45.861 126.949 45.82C126.849 45.778 126.74 45.759 126.63 45.764C126.52 45.77 126.41 45.8 126.31 45.852C125.49 46.28 124.82 46.939 124.38 47.745C124.32 47.829 124.35 47.981 124.35 48.12V54.276C124.42 55.025 124.67 55.246 125.41 55.287L125.98 55.295Z" fill="#86ACE6"/>
<path d="M52.6399 46.327C52.4999 45.896 52.6599 45.795 53.0399 45.709C53.8599 45.517 54.6698 45.274 55.4498 44.982C56.0998 44.738 56.1199 44.719 56.1199 45.431V53.302C56.1099 53.677 56.1299 54.052 56.1699 54.426C56.2199 55.033 56.44 55.232 57.06 55.269L57.5999 55.303V55.907H52.6199V55.3L53.1599 55.273C53.8499 55.236 54.1199 54.988 54.1299 54.306V47.455C54.1299 46.555 53.9599 46.405 53.0499 46.331L52.6399 46.327Z" fill="#86ACE6"/>
<path d="M53.8203 41.9821C53.8203 40.9551 54.5304 40.3301 55.3804 40.5951C55.6704 40.7121 55.9104 40.9201 56.0604 41.1861C56.2204 41.4521 56.2804 41.7621 56.2504 42.0681C56.2604 42.3691 56.1704 42.6661 55.9904 42.9111C55.8204 43.1551 55.5604 43.3341 55.2704 43.4181C54.4504 43.6051 53.8203 42.9761 53.8203 41.9821Z" fill="#86ACE6"/>
<path d="M62.71 62.17C63.06 62.205 63.39 62.342 63.65 62.565C63.92 62.787 64.12 63.084 64.22 63.418C64.37 63.865 64.43 64.34 64.39 64.811C64.35 65.283 64.21 65.741 63.99 66.157C63.82 66.396 63.6 66.588 63.34 66.718C63.08 66.847 62.79 66.908 62.5 66.895C62.21 66.882 61.9301 66.796 61.6801 66.645C61.4301 66.493 61.23 66.282 61.09 66.03C60.86 65.57 60.75 65.065 60.75 64.554C60.75 64.043 60.86 63.539 61.09 63.079C61.22 62.826 61.42 62.61 61.65 62.451C61.89 62.292 62.17 62.195 62.45 62.168L62.71 62.17ZM61.27 64.516C61.34 64.988 61.43 65.456 61.55 65.918C61.61 66.139 61.7501 66.333 61.9301 66.469C62.1201 66.605 62.35 66.675 62.58 66.667C62.8 66.666 63.0099 66.595 63.1899 66.465C63.3699 66.336 63.4999 66.153 63.5699 65.944C63.8899 65.063 63.9 64.1 63.6 63.212C63.54 62.988 63.4 62.792 63.2 62.656C63.01 62.521 62.78 62.452 62.54 62.462C62.31 62.455 62.09 62.525 61.91 62.661C61.72 62.797 61.59 62.992 61.53 63.212C61.42 63.642 61.33 64.077 61.27 64.516Z" fill="#86ACE6"/>
<path d="M51.1594 62.3459H52.5594C52.1494 62.6979 52.0994 63.0199 52.2194 64.3319H53.9094C53.9794 64.3319 54.0894 64.1559 54.0994 64.0549C54.1194 63.7549 54.1194 63.4549 54.0994 63.1549C54.0994 62.8479 54.1794 62.4959 53.7294 62.3569H55.0693C54.6093 62.4919 54.6194 62.8259 54.6294 63.1809V66.0599C54.6294 66.3789 54.6594 66.6379 55.0494 66.7269H53.7494C54.1494 66.6149 54.0994 66.2919 54.0994 65.9959V64.6239H52.1594C52.2994 65.3209 51.9293 66.0669 52.4393 66.7319H51.1094C51.7594 66.5409 51.6394 66.114 51.6494 65.739V63.1749C51.6694 62.6229 51.6694 62.6229 51.1594 62.3459Z" fill="#86ACE6"/>
<path d="M79.7301 64.6239V66.2209C79.7301 66.3139 79.7901 66.4829 79.8301 66.4869C80.1401 66.5279 80.4601 66.5279 80.7701 66.5539C81.1701 66.5849 81.3402 66.3629 81.4102 66.0109C81.4402 65.9389 81.4802 65.8729 81.5302 65.8159C81.7302 66.4719 81.5302 66.7749 80.9202 66.7749C80.2102 66.7749 79.5001 66.7749 78.7501 66.7189C79.1901 66.5989 79.2101 66.2969 79.2001 65.9689V63.1389C79.2001 62.8209 79.2602 62.465 78.6602 62.502L78.7701 62.3779H81.3301L81.4801 63.2929C81.3601 63.2359 81.3002 63.2289 81.2902 63.2029C81.2502 63.0699 81.1901 62.9469 81.1001 62.8409C81.0101 62.7359 80.9001 62.6509 80.7701 62.5919C80.6401 62.5319 80.5101 62.4999 80.3701 62.4959C80.2301 62.4929 80.0901 62.5189 79.9601 62.5729C79.9001 62.6049 79.8502 62.6499 79.8102 62.7039C79.7702 62.7589 79.7401 62.8209 79.7301 62.8869C79.7001 63.2019 79.7301 63.5169 79.7301 63.8319V64.2669C80.4101 64.4919 80.5701 64.4199 80.9601 63.6819V65.3009C80.5901 64.4969 80.5901 64.4969 79.7301 64.6239Z" fill="#86ACE6"/>
<path d="M73.0805 63.407C73.0205 62.564 72.5705 62.403 71.8405 62.624V65.912C71.8405 66.287 71.8405 66.643 72.3505 66.726H70.8405C71.3905 66.648 71.3505 66.257 71.3505 65.875V62.996C71.3505 62.828 71.4405 62.554 71.1205 62.561C70.8005 62.568 70.4205 62.4 70.2505 62.831C70.1905 62.989 70.1605 63.157 70.1005 63.367C69.7905 62.73 70.0305 62.303 70.6305 62.299C71.3105 62.299 71.9905 62.329 72.6705 62.299C73.0705 62.276 73.2205 62.437 73.2205 62.805V63.311L73.0805 63.407Z" fill="#86ACE6"/>
<path d="M90.1493 65.813C90.0993 66.072 90.0693 66.334 90.0093 66.586C90.0093 66.653 89.8992 66.754 89.8392 66.754C88.9892 66.754 88.1493 66.754 87.2593 66.705C87.7493 66.608 87.7092 66.263 87.7092 65.956V63.219C87.7092 62.661 87.7092 62.661 87.1992 62.365H88.6393C88.1193 62.504 88.2192 62.916 88.2192 63.273V66.14C88.2192 66.443 88.3193 66.586 88.6293 66.567C88.7793 66.556 88.9292 66.556 89.0792 66.567C89.5292 66.604 89.8593 66.489 89.9093 65.977C89.9093 65.917 89.9893 65.86 90.0193 65.808L90.1493 65.813Z" fill="#86ACE6"/>
</svg>
