<svg width="127" height="77" viewBox="0 0 127 77" fill="none" xmlns="http://www.w3.org/2000/svg">
<path d="M0 49H4.57098C5.20498 49 5.74403 49.0956 6.18903 49.2867C6.60203 49.4559 6.97302 49.7146 7.27502 50.0442C7.55302 50.3567 7.76 50.7253 7.883 51.125C8.139 51.9361 8.139 52.8062 7.883 53.6173C7.759 54.0144 7.55102 54.3804 7.27502 54.691C6.97302 55.0206 6.60203 55.2793 6.18903 55.4485C5.74403 55.6396 5.20498 55.7352 4.57098 55.7352H2.22601V59.4996H0V49ZM3.95801 53.941C4.20501 53.9417 4.45198 53.9221 4.69598 53.8822C4.91698 53.8486 5.12998 53.7712 5.32098 53.6544C5.50498 53.5366 5.65399 53.3715 5.75299 53.1764C5.86199 52.9704 5.91599 52.7008 5.91699 52.3676C5.91699 52.0344 5.86299 51.7648 5.75299 51.5588C5.65399 51.3638 5.50498 51.1987 5.32098 51.0808C5.12998 50.964 4.91698 50.8866 4.69598 50.853C4.45198 50.8134 4.20501 50.7937 3.95801 50.7942H2.22601V53.94L3.95801 53.941Z" fill="#86ACE6"/>
<path d="M13.2021 53.6178L9.32709 49.0005H11.9531L15.5021 53.324V49H17.6451V53.3088L21.194 49H23.8201L19.902 53.559L24.1891 59.5001H21.4351L18.2111 54.9117L17.6431 55.6028V59.4996H15.501V55.6028L14.8061 54.9264L11.6971 59.4996H8.95703L13.2021 53.6178Z" fill="#86ACE6"/>
<path d="M24.7695 57.5583H25.6205C25.9155 57.144 26.1555 56.6941 26.3375 56.2193C26.5295 55.7099 26.6725 55.1831 26.7635 54.6463C26.8675 54.0333 26.9335 53.4145 26.9625 52.7933C26.9955 52.1266 27.0125 51.4061 27.0125 50.6318V49H34.3635V57.5583H35.4715V61.8965H33.4555V59.4996H26.7845V61.8965H24.7695V57.5583ZM32.1355 57.5583V50.8972H29.1425V51.0885C29.1425 51.8046 29.1255 52.4662 29.0915 53.0734C29.0575 53.6806 29.0015 54.2467 28.9215 54.7717C28.8475 55.2704 28.7335 55.7624 28.5815 56.2431C28.4355 56.6979 28.2485 57.1385 28.0225 57.5593L32.1355 57.5583Z" fill="#86ACE6"/>
<path d="M41.1899 54.5889V56.383H36.918V54.5889H41.1899Z" fill="#86ACE6"/>
<path d="M47.1829 59.7348C45.7919 59.7348 44.7179 59.404 43.9609 58.7423C43.2029 58.0807 42.8149 57.1567 42.7969 55.9704H44.9969C44.9979 56.2848 45.0629 56.5957 45.1889 56.8837C45.2959 57.1244 45.4559 57.338 45.6569 57.5089C45.8559 57.6743 46.0889 57.7954 46.3389 57.864C46.6129 57.9396 46.8979 57.9767 47.1829 57.9741C47.7029 57.9741 48.1239 57.8099 48.4459 57.4815C48.6039 57.3221 48.7279 57.1325 48.8109 56.9241C48.8939 56.7156 48.9339 56.4926 48.9289 56.2683C48.9289 55.974 48.8769 55.7313 48.7729 55.5402C48.6729 55.3535 48.5259 55.1961 48.3469 55.0835C48.1609 54.9685 47.9539 54.8911 47.7379 54.8557C47.5029 54.8161 47.2659 54.7964 47.0279 54.7968H46.2599V53.235C46.3639 53.2458 46.4679 53.2507 46.5719 53.2498H46.8559C48.0769 53.2498 48.6869 52.7743 48.6869 51.8235C48.6869 51.4118 48.5479 51.0932 48.2689 50.8675C47.9899 50.6419 47.6229 50.5291 47.1689 50.5291C46.6199 50.5291 46.1819 50.6663 45.8549 50.9406C45.5289 51.2149 45.3429 51.6072 45.2969 52.1173H43.1969C43.2059 51.5294 43.3199 51.0245 43.5369 50.6027C43.7449 50.1928 44.0429 49.8357 44.4099 49.5584C44.7889 49.2775 45.2169 49.0709 45.6729 48.9496C46.1649 48.8151 46.6729 48.7481 47.1829 48.7502C47.6669 48.7461 48.1479 48.818 48.6099 48.9633C49.0209 49.0906 49.4059 49.2925 49.7449 49.559C50.0579 49.809 50.3139 50.1223 50.4979 50.4784C50.6849 50.8497 50.7799 51.2608 50.7749 51.6768C50.7749 52.2059 50.6329 52.6625 50.3489 53.0468C50.0819 53.4189 49.6879 53.6808 49.2409 53.7835C49.5059 53.8327 49.7609 53.9273 49.9939 54.0631C50.2269 54.1981 50.4339 54.3751 50.6029 54.5852C50.7799 54.8076 50.9169 55.0589 51.0089 55.3281C51.1099 55.6263 51.1609 55.9395 51.1579 56.2546C51.1629 56.7397 51.0589 57.2198 50.8529 57.6591C50.6529 58.0806 50.3679 58.4562 50.0159 58.7621C49.6469 59.0794 49.2199 59.3239 48.7599 59.4826C48.2529 59.6567 47.7189 59.742 47.1829 59.7348Z" fill="#86ACE6"/>
<path d="M52.3477 57.5583H53.1986C53.4936 57.1444 53.7346 56.6948 53.9156 56.2203C54.1076 55.7109 54.2506 55.1842 54.3416 54.6473C54.4456 54.0343 54.5116 53.4155 54.5406 52.7943C54.5736 52.1276 54.5906 51.4071 54.5906 50.6328V49H61.9436V57.5583H63.0507V61.8965H61.0327V59.4996H54.3626V61.8965H52.3477V57.5583ZM59.7147 57.5583V50.8972H56.7206V51.0885C56.7206 51.8046 56.7036 52.4662 56.6696 53.0734C56.6356 53.6806 56.5796 54.2467 56.4996 54.7717C56.4246 55.2704 56.3116 55.7624 56.1586 56.2431C56.0136 56.6979 55.8266 57.1385 55.6006 57.5593L59.7147 57.5583Z" fill="#86ACE6"/>
<path d="M69.2674 59.7356C68.4824 59.7356 67.7814 59.5959 67.1664 59.3164C66.5684 59.0497 66.0354 58.6558 65.6054 58.1621C65.1704 57.656 64.8374 57.07 64.6264 56.437C64.3944 55.7476 64.2794 55.0244 64.2854 54.2973C64.2804 53.5582 64.3954 52.8231 64.6264 52.121C64.8364 51.4753 65.1684 50.8761 65.6054 50.3563C66.0334 49.8545 66.5664 49.4528 67.1664 49.1796C67.7814 48.8955 68.4824 48.7533 69.2674 48.7529C70.0434 48.7529 70.7404 48.8952 71.3614 49.1796C71.9644 49.4516 72.4994 49.8534 72.9294 50.3563C73.3664 50.8761 73.6984 51.4753 73.9084 52.121C74.1394 52.8231 74.2544 53.5582 74.2494 54.2973C74.2554 55.0244 74.1404 55.7476 73.9084 56.437C73.6974 57.07 73.3644 57.656 72.9294 58.1621C72.4974 58.6569 71.9614 59.0509 71.3614 59.3164C70.7414 59.5962 70.0434 59.7359 69.2674 59.7356ZM69.2674 57.8074C69.7684 57.8074 70.1944 57.707 70.5454 57.506C70.8884 57.3109 71.1804 57.0362 71.3964 56.7049C71.6184 56.3602 71.7794 55.9796 71.8714 55.58C71.9724 55.1584 72.0224 54.7265 72.0214 54.2932C72.0224 53.843 71.9724 53.3941 71.8714 52.9552C71.7814 52.5457 71.6204 52.1551 71.3964 51.8009C71.1824 51.4662 70.8904 51.1886 70.5454 50.9921C70.1954 50.7901 69.7694 50.6892 69.2674 50.6892C68.7654 50.6892 68.3394 50.7906 67.9914 50.9936C67.6464 51.19 67.3534 51.4676 67.1394 51.8024C66.9154 52.1567 66.7544 52.5473 66.6644 52.9567C66.5644 53.3956 66.5144 53.8445 66.5154 54.2947C66.5144 54.728 66.5644 55.1599 66.6644 55.5815C66.7564 55.9813 66.9174 56.3619 67.1394 56.7064C67.3554 57.0378 67.6474 57.3126 67.9914 57.5076C68.3414 57.7105 68.7674 57.812 69.2694 57.812L69.2674 57.8074Z" fill="#86ACE6"/>
<path d="M76.3203 49H80.8913C81.5253 49 82.0643 49.0956 82.5093 49.2867C82.9233 49.4559 83.2933 49.7146 83.5953 50.0442C83.8733 50.3567 84.0813 50.7253 84.2043 51.125C84.4593 51.9361 84.4593 52.8062 84.2043 53.6173C84.0793 54.0144 83.8723 54.3804 83.5953 54.691C83.2933 55.0206 82.9233 55.2793 82.5093 55.4485C82.0643 55.6396 81.5253 55.7352 80.8913 55.7352H78.5493V59.4996H76.3203V49ZM80.2783 53.941C80.5253 53.9417 80.7723 53.9221 81.0163 53.8822C81.2383 53.8486 81.4503 53.7712 81.6413 53.6544C81.8253 53.5366 81.9753 53.3715 82.0743 53.1764C82.1823 52.9704 82.2373 52.7008 82.2373 52.3676C82.2373 52.0344 82.1833 51.7648 82.0743 51.5588C81.9753 51.3638 81.8253 51.1987 81.6413 51.0808C81.4503 50.964 81.2383 50.8866 81.0163 50.853C80.7723 50.8134 80.5253 50.7937 80.2783 50.7942H78.5463V53.94L80.2783 53.941Z" fill="#86ACE6"/>
<path d="M90.8835 59.7356C90.0985 59.7356 89.3985 59.5959 88.7835 59.3164C88.1845 59.0497 87.6525 58.6558 87.2215 58.1621C86.7865 57.656 86.4545 57.07 86.2425 56.437C86.0115 55.7476 85.8966 55.0244 85.9026 54.2973C85.8966 53.5582 86.0115 52.8231 86.2425 52.121C86.4525 51.4753 86.7845 50.8761 87.2215 50.3563C87.6495 49.8545 88.1825 49.4528 88.7835 49.1796C89.3985 48.8955 90.0985 48.7533 90.8835 48.7529C91.6595 48.7529 92.3576 48.8952 92.9776 49.1796C93.5806 49.4516 94.1165 49.8534 94.5465 50.3563C94.9835 50.8761 95.3156 51.4753 95.5256 52.121C95.7566 52.8231 95.8716 53.5582 95.8656 54.2973C95.8716 55.0244 95.7566 55.7476 95.5256 56.437C95.3136 57.07 94.9815 57.656 94.5465 58.1621C94.1135 58.6569 93.5786 59.0509 92.9776 59.3164C92.3576 59.5962 91.6595 59.7359 90.8835 59.7356ZM90.8835 57.8074C91.3855 57.8074 91.8105 57.707 92.1615 57.506C92.5055 57.3109 92.7976 57.0362 93.0126 56.7049C93.2356 56.3602 93.3956 55.9796 93.4886 55.58C93.5886 55.1584 93.6386 54.7265 93.6376 54.2932C93.6386 53.843 93.5886 53.3941 93.4886 52.9552C93.3976 52.5457 93.2376 52.1551 93.0126 51.8009C92.7986 51.4662 92.5065 51.1886 92.1615 50.9921C91.8105 50.7901 91.3845 50.6892 90.8835 50.6892C90.3835 50.6892 89.9566 50.7906 89.6056 50.9936C89.2596 51.19 88.9676 51.4676 88.7536 51.8024C88.5296 52.1567 88.3685 52.5473 88.2785 52.9567C88.1775 53.3956 88.1276 53.8445 88.1296 54.2947C88.1296 54.7281 88.1805 55.16 88.2815 55.5815C88.3735 55.9813 88.5336 56.3619 88.7566 56.7064C88.9726 57.0378 89.2646 57.3126 89.6086 57.5076C89.9576 57.7105 90.3835 57.812 90.8855 57.812L90.8835 57.8074Z" fill="#86ACE6"/>
<path d="M97.9424 49.0002H102.711C103.155 48.9963 103.597 49.0407 104.031 49.1327C104.397 49.2078 104.744 49.3553 105.053 49.5665C105.339 49.771 105.567 50.0476 105.712 50.3682C105.868 50.7017 105.947 51.1134 105.947 51.6032C105.947 52.1322 105.831 52.5733 105.599 52.9265C105.367 53.2796 105.024 53.5688 104.57 53.7941C105.195 53.9802 105.661 54.3061 105.968 54.7719C106.276 55.2377 106.43 55.799 106.43 56.4559C106.43 56.985 106.33 57.4433 106.132 57.831C105.943 58.2061 105.668 58.5312 105.33 58.7793C104.983 59.0295 104.593 59.2138 104.18 59.3233C103.747 59.441 103.301 59.5003 102.853 59.4998H97.9414L97.9424 49.0002ZM102.427 53.2502C102.824 53.2502 103.151 53.1521 103.407 52.9559C103.662 52.7597 103.79 52.4411 103.79 52C103.79 51.7551 103.747 51.5541 103.662 51.3972C103.583 51.2466 103.465 51.1197 103.321 51.0293C103.171 50.938 103.005 50.8757 102.832 50.8456C102.642 50.8113 102.45 50.7943 102.257 50.7949H100.17V53.2507L102.427 53.2502ZM102.555 57.7062C102.765 57.7071 102.975 57.685 103.18 57.6402C103.367 57.6009 103.546 57.5259 103.705 57.4195C103.859 57.313 103.984 57.1687 104.067 57.0004C104.156 56.8238 104.201 56.5984 104.202 56.324C104.202 55.7848 104.055 55.4001 103.762 55.1697C103.468 54.9393 103.081 54.8242 102.598 54.8242H100.17V57.7062H102.555Z" fill="#86ACE6"/>
<path d="M108.484 49H110.712V52.7938H113.097C113.578 52.7893 114.057 52.8562 114.518 52.9922C114.934 53.1144 115.321 53.3217 115.653 53.6011C115.984 53.8863 116.244 54.2435 116.414 54.6453C116.599 55.0668 116.692 55.5618 116.692 56.1305C116.692 56.7089 116.602 57.2089 116.422 57.6303C116.253 58.0353 115.993 58.3953 115.66 58.6817C115.319 58.969 114.919 59.1795 114.489 59.2992C114 59.4362 113.493 59.503 112.985 59.4976H108.485L108.484 49ZM112.813 57.6176C113.353 57.6176 113.774 57.5048 114.077 57.2792C114.38 57.0536 114.532 56.6614 114.534 56.1026C114.54 55.8633 114.497 55.6253 114.406 55.4039C114.327 55.2209 114.202 55.0613 114.044 54.9406C113.878 54.8187 113.69 54.7312 113.49 54.6834C113.265 54.6282 113.034 54.6011 112.802 54.6027H110.715V57.6171L112.813 57.6176Z" fill="#86ACE6"/>
<path d="M118.648 49H126.228V50.9423H120.877V53.1921H125.788V54.9863H120.877V57.5593H126.342V59.5006H118.648V49Z" fill="#86ACE6"/>
<path fill-rule="evenodd" clip-rule="evenodd" d="M24.798 71.9733L24.113 72.3667L24.061 72.2869C23.925 72.0816 23.742 71.9123 23.527 71.7939C23.312 71.6756 23.071 71.6117 22.825 71.6076C21.836 71.608 21.074 72.3919 21.074 73.5316C21.074 74.6637 21.837 75.4549 22.826 75.4552C23.071 75.4527 23.313 75.3896 23.528 75.2713C23.743 75.1529 23.926 74.983 24.06 74.7768L24.112 74.6965L24.805 75.0908L24.739 75.1824C24.319 75.7698 23.717 76.2117 22.825 76.2117C21.383 76.2107 20.25 75.1179 20.25 73.5311C20.25 71.9449 21.383 70.8516 22.826 70.8516C23.717 70.8516 24.338 71.3 24.736 71.8826L24.798 71.9733ZM22.826 75.5567C21.774 75.5567 20.972 74.7123 20.972 73.5316C20.972 72.3428 21.774 71.5061 22.826 71.5061C23.088 71.5103 23.346 71.5786 23.576 71.705C23.806 71.8313 24.001 72.012 24.145 72.2312L24.653 71.9399C24.634 71.9119 24.614 71.8842 24.594 71.8569C24.209 71.3377 23.635 70.953 22.826 70.953C21.441 70.953 20.351 71.9993 20.351 73.5311C20.351 75.0635 21.441 76.1092 22.825 76.1102C23.635 76.1102 24.194 75.7311 24.596 75.2055C24.617 75.1785 24.637 75.1511 24.657 75.1233L24.145 74.8321C24.002 75.0524 23.807 75.2338 23.577 75.3602C23.347 75.4867 23.089 75.5541 22.826 75.5567Z" fill="#86ACE6"/>
<path d="M20.9725 73.5317C20.9725 74.7124 21.7745 75.5568 22.8265 75.5568C23.0895 75.5542 23.3476 75.4868 23.5776 75.3603C23.8076 75.2339 24.0026 75.0525 24.1456 74.8322L24.6575 75.1234C24.6375 75.1512 24.6176 75.1786 24.5966 75.2056C24.1946 75.7312 23.6356 76.1103 22.8256 76.1103C21.4416 76.1093 20.3516 75.0636 20.3516 73.5312C20.3516 71.9994 21.4415 70.9531 22.8265 70.9531C23.6355 70.9531 24.2095 71.3378 24.5945 71.857C24.6145 71.8843 24.6346 71.912 24.6536 71.94L24.1456 72.2313C24.0016 72.0121 23.8065 71.8314 23.5765 71.7051C23.3465 71.5787 23.0885 71.5104 22.8265 71.5062C21.7745 71.5062 20.9725 72.3429 20.9725 73.5317Z" fill="#86ACE6"/>
<path fill-rule="evenodd" clip-rule="evenodd" d="M26.7578 76.1217V70.9346H30.1128V71.6901H27.5598V73.0941H30.0628V73.8496H27.5598V75.3657H30.1128V76.1212L26.7578 76.1217ZM27.4588 75.4672V73.7481H29.9618V73.1955H27.4588V71.5886H30.0108V71.036H26.8588V76.0202L30.0108 76.0197V75.4672H27.4588Z" fill="#86ACE6"/>
<path d="M27.4594 75.4671H30.0114V76.0196L26.8594 76.0201V71.0359H30.0114V71.5885H27.4594V73.1954H29.9623V73.748H27.4594V75.4671Z" fill="#86ACE6"/>
<path fill-rule="evenodd" clip-rule="evenodd" d="M33.4908 76.1217V71.6901H31.9688V70.9346H35.8198V71.6901H34.2928V76.1217H33.4908ZM34.1918 71.5886H35.7188V71.036H32.0698V71.5886H33.5917V76.0202H34.1918V71.5886Z" fill="#86ACE6"/>
<path d="M34.1923 71.5885V76.0201H33.5923V71.5885H32.0703V71.0359H35.7193V71.5885H34.1923Z" fill="#86ACE6"/>
<path fill-rule="evenodd" clip-rule="evenodd" d="M38.6476 70.9346V72.9134H39.8796C40.3816 72.9134 40.7856 73.0952 41.0646 73.3906C41.3416 73.685 41.4886 74.0862 41.4886 74.5163C41.4886 74.9456 41.3466 75.3471 41.0706 75.6422C40.7936 75.9383 40.3886 76.1202 39.8796 76.1202H37.8477V70.9346H38.6476ZM38.5457 73.0149V71.036H37.9486V76.0187H39.8796C40.8466 76.0187 41.3876 75.3307 41.3876 74.5163C41.3876 73.7019 40.8316 73.0149 39.8796 73.0149H38.5457ZM38.5457 75.4677V73.5695H39.8076C40.3776 73.5695 40.7667 73.9576 40.7667 74.5183C40.7667 75.079 40.3776 75.4677 39.8076 75.4677H38.5457ZM38.6476 73.671V75.3662H39.8076C40.0696 75.3662 40.2826 75.2775 40.4296 75.1312C40.5766 74.985 40.6656 74.7745 40.6656 74.5183C40.6656 74.2621 40.5766 74.0518 40.4296 73.9057C40.2816 73.7596 40.0686 73.671 39.8076 73.671H38.6476Z" fill="#86ACE6"/>
<path fill-rule="evenodd" clip-rule="evenodd" d="M41.3882 74.5162C41.3882 75.3306 40.8472 76.0186 39.8802 76.0186H37.9492V71.0359H38.5463V73.0148H39.8802C40.8322 73.0148 41.3882 73.7018 41.3882 74.5162ZM39.8082 73.5694C40.3782 73.5694 40.7673 73.9575 40.7673 74.5182C40.7673 75.0789 40.3782 75.4676 39.8082 75.4676H38.5463V73.5694H39.8082Z" fill="#86ACE6"/>
<path fill-rule="evenodd" clip-rule="evenodd" d="M51.1662 71.9733L50.4802 72.3667L50.4282 72.2869C50.2932 72.0816 50.1092 71.9123 49.8942 71.7939C49.6792 71.6756 49.4382 71.6117 49.1922 71.6076C48.2032 71.608 47.4412 72.3918 47.4412 73.5316C47.4412 74.6637 48.2022 75.4549 49.1932 75.4552C49.4382 75.4527 49.6802 75.3896 49.8952 75.2713C50.1112 75.1529 50.2932 74.983 50.4272 74.7768L50.4792 74.6966L51.1732 75.0908L51.1082 75.1824C50.6882 75.7698 50.0842 76.2117 49.1922 76.2117C47.7502 76.2107 46.6172 75.1179 46.6172 73.5311C46.6172 71.9449 47.7502 70.8516 49.1932 70.8516C50.0852 70.8516 50.7052 71.3 51.1042 71.8826L51.1662 71.9733ZM49.1932 75.5567C48.1392 75.5567 47.3392 74.7123 47.3392 73.5316C47.3392 72.3428 48.1402 71.5061 49.1932 71.5061C49.4562 71.5103 49.7132 71.5786 49.9432 71.705C50.1732 71.8313 50.3682 72.012 50.5122 72.2312L51.0202 71.9399C51.0012 71.9119 50.9812 71.8842 50.9612 71.8569C50.5762 71.3377 50.0022 70.953 49.1932 70.953C47.8082 70.953 46.7192 71.9993 46.7192 73.5311C46.7192 75.0635 47.8082 76.1092 49.1922 76.1102C50.0022 76.1102 50.5622 75.7311 50.9642 75.2055C50.9852 75.1785 51.0052 75.1511 51.0252 75.1233L50.5122 74.8321C50.3692 75.0524 50.1742 75.2338 49.9442 75.3602C49.7142 75.4867 49.4562 75.5541 49.1932 75.5567Z" fill="#86ACE6"/>
<path d="M47.3387 73.5317C47.3387 74.7124 48.1387 75.5568 49.1927 75.5568C49.4557 75.5542 49.7137 75.4868 49.9437 75.3603C50.1737 75.2339 50.3688 75.0525 50.5118 74.8322L51.0248 75.1234C51.0048 75.1512 50.9847 75.1786 50.9637 75.2056C50.5617 75.7312 50.0018 76.1103 49.1918 76.1103C47.8078 76.1093 46.7188 75.0636 46.7188 73.5312C46.7188 71.9994 47.8077 70.9531 49.1927 70.9531C50.0017 70.9531 50.5758 71.3378 50.9608 71.857C50.9808 71.8843 51.0008 71.912 51.0198 71.94L50.5118 72.2313C50.3678 72.0121 50.1727 71.8314 49.9427 71.7051C49.7127 71.5787 49.4557 71.5104 49.1927 71.5062C48.1397 71.5062 47.3387 72.3429 47.3387 73.5317Z" fill="#86ACE6"/>
<path fill-rule="evenodd" clip-rule="evenodd" d="M56.5901 76.1217L56.1641 75.0161H53.9061L53.4821 76.1217H52.5781L54.5901 70.9346H55.4711L57.4891 76.1217H56.5901ZM53.8371 74.9146H56.2331L56.6591 76.0202H57.3411L55.4011 71.036H54.6601L52.7261 76.0202H53.4121L53.8371 74.9146ZM54.0121 74.3615H56.0531L55.0351 71.6789L54.0121 74.3615ZM55.0351 71.9643L54.1591 74.2601H55.9061L55.0351 71.9643Z" fill="#86ACE6"/>
<path fill-rule="evenodd" clip-rule="evenodd" d="M56.2335 74.9145H53.8375L53.4125 76.0201H52.7266L54.6605 71.0359H55.4016L57.3416 76.0201H56.6595L56.2335 74.9145ZM56.0535 74.3614H54.0126L55.0355 71.6788L56.0535 74.3614Z" fill="#86ACE6"/>
<path fill-rule="evenodd" clip-rule="evenodd" d="M62.7128 76.1217V73.8354H60.1028V76.1217H59.3008V70.9346H60.1028V73.0788H62.7128V70.9346H63.5137V76.1217H62.7128ZM62.8148 73.1803H60.0018V71.036H59.4017V76.0202H60.0018V73.7339H62.8148V76.0202H63.4128V71.036H62.8148V73.1803Z" fill="#86ACE6"/>
<path d="M62.8154 73.1802V71.0359H63.4134V76.0201H62.8154V73.7338H60.0024V76.0201H59.4023V71.0359H60.0024V73.1802H62.8154Z" fill="#86ACE6"/>
<path fill-rule="evenodd" clip-rule="evenodd" d="M69.3342 76.1217L68.9083 75.0161H66.6533L66.2272 76.1217H65.3242L67.3362 70.9346H68.2183L70.2372 76.1217H69.3342ZM66.5833 74.9146H68.9783L69.4042 76.0202H70.0883L68.1492 71.036H67.4062L65.4722 76.0202H66.1572L66.5833 74.9146ZM66.7562 74.3615H68.7972L67.7803 71.6789L66.7562 74.3615ZM67.7803 71.9643L66.9033 74.2601H68.6503L67.7803 71.9643Z" fill="#86ACE6"/>
<path fill-rule="evenodd" clip-rule="evenodd" d="M68.9787 74.9145H66.5837L66.1577 76.0201H65.4727L67.4067 71.0359H68.1497L70.0887 76.0201H69.4047L68.9787 74.9145ZM68.7977 74.3614H66.7567L67.7807 71.6788L68.7977 74.3614Z" fill="#86ACE6"/>
<path fill-rule="evenodd" clip-rule="evenodd" d="M73.2446 76.1217V71.6901H71.7227V70.9346H75.5746V71.6901H74.0466V76.1217H73.2446ZM73.9446 71.5886H75.4736V71.036H71.8236V71.5886H73.3456V76.0202H73.9446V71.5886Z" fill="#86ACE6"/>
<path d="M73.9453 71.5885V76.0201H73.3463V71.5885H71.8242V71.0359H75.4742V71.5885H73.9453Z" fill="#86ACE6"/>
<path fill-rule="evenodd" clip-rule="evenodd" d="M77.4062 73.5311C77.4062 72.0131 78.4023 70.8516 79.8923 70.8516C81.3833 70.8516 82.3812 72.0125 82.3812 73.5311C82.3812 75.05 81.3783 76.2107 79.8923 76.2107C78.4073 76.2107 77.4062 75.0498 77.4062 73.5311ZM81.1042 72.1466C80.8172 71.8091 80.4033 71.6071 79.8953 71.6071C79.3873 71.6071 78.9732 71.8093 78.6862 72.147C78.3972 72.486 78.2292 72.9677 78.2292 73.5311C78.2292 74.0909 78.3952 74.5725 78.6832 74.9124C78.9702 75.2508 79.3843 75.4547 79.8953 75.4547C80.4063 75.4547 80.8202 75.2505 81.1072 74.912C81.3952 74.572 81.5612 74.0904 81.5612 73.5311C81.5612 72.9672 81.3942 72.4855 81.1042 72.1466ZM79.8923 70.953C78.4673 70.953 77.5082 72.0597 77.5082 73.5311C77.5082 75.0031 78.4723 76.1092 79.8923 76.1092C81.3133 76.1092 82.2803 75.0031 82.2803 73.5311C82.2803 72.0592 81.3183 70.953 79.8923 70.953ZM79.8953 71.5056C80.9703 71.5056 81.6622 72.3641 81.6622 73.5311C81.6622 74.6885 80.9763 75.5562 79.8953 75.5562C78.8143 75.5562 78.1282 74.6895 78.1282 73.5311C78.1282 72.3651 78.8203 71.5056 79.8953 71.5056Z" fill="#86ACE6"/>
<path fill-rule="evenodd" clip-rule="evenodd" d="M77.5078 73.5312C77.5078 72.0598 78.4668 70.9531 79.8918 70.9531C81.3178 70.9531 82.2798 72.0593 82.2798 73.5312C82.2798 75.0032 81.3128 76.1093 79.8918 76.1093C78.4718 76.1093 77.5078 75.0032 77.5078 73.5312ZM79.8948 71.5057C80.9698 71.5057 81.6618 72.3642 81.6618 73.5312C81.6618 74.6886 80.9758 75.5563 79.8948 75.5563C78.8138 75.5563 78.1278 74.6896 78.1278 73.5312C78.1278 72.3652 78.8198 71.5057 79.8948 71.5057Z" fill="#86ACE6"/>
<path fill-rule="evenodd" clip-rule="evenodd" d="M84.5508 76.122V70.9346H86.5848C87.0928 70.9346 87.4978 71.1165 87.7748 71.4125C88.0508 71.7075 88.1937 72.109 88.1937 72.5385C88.1937 72.9687 88.0467 73.3698 87.7687 73.6642C87.4897 73.9595 87.0858 74.1413 86.5848 74.1413H85.3528V76.1199L84.5508 76.122ZM85.2507 74.0398H86.5848C87.5348 74.0398 88.0928 73.3528 88.0928 72.5385C88.0928 71.7241 87.5498 71.036 86.5848 71.036H84.6517V76.0202L85.2507 76.0187V74.0398ZM87.1337 71.9353C86.9857 71.7837 86.7727 71.6906 86.5137 71.6906H85.3528V73.3858H86.5137C86.7757 73.3858 86.9898 73.3012 87.1368 73.1599C87.2828 73.019 87.3707 72.8142 87.3707 72.5582C87.3707 72.3032 87.2827 72.0872 87.1337 71.9353ZM86.5137 73.4873C87.0827 73.4873 87.4728 73.1189 87.4728 72.5582C87.4728 72.0001 87.0827 71.5891 86.5137 71.5891H85.2518V73.4873H86.5137Z" fill="#86ACE6"/>
<path fill-rule="evenodd" clip-rule="evenodd" d="M88.0934 72.5384C88.0934 73.3527 87.5354 74.0397 86.5854 74.0397H85.2513V76.0186L84.6523 76.0201V71.0359H86.5854C87.5504 71.0359 88.0934 71.724 88.0934 72.5384ZM87.4734 72.5581C87.4734 73.1188 87.0833 73.4872 86.5143 73.4872H85.2524V71.589H86.5143C87.0833 71.589 87.4734 72 87.4734 72.5581Z" fill="#86ACE6"/>
<path fill-rule="evenodd" clip-rule="evenodd" d="M90.2188 76.1217V70.9346H91.0208V74.6116L93.6368 70.9346H94.4037V76.1217H93.6017V72.365L90.9498 76.1217H90.2188ZM93.7028 72.0453V76.0202H94.3018V71.036H93.6888L90.9188 74.9293V71.036H90.3198V76.0202H90.8967L93.7028 72.0453Z" fill="#86ACE6"/>
<path d="M93.7033 72.0452L90.8973 76.0201H90.3203V71.0359H90.9193V74.9292L93.6893 71.0359H94.3023V76.0201H93.7033V72.0452Z" fill="#86ACE6"/>
<path fill-rule="evenodd" clip-rule="evenodd" d="M96.7617 76.1217V70.9346H100.117V71.6901H97.5647V73.0941H100.068V73.8496H97.5647V75.3657H100.118V76.1212L96.7617 76.1217ZM97.4637 75.4672V73.7481H99.9667V73.1955H97.4637V71.5886H100.015V71.036H96.8627V76.0202L100.017 76.0197V75.4672H97.4637Z" fill="#86ACE6"/>
<path d="M97.4643 75.4671H100.017V76.0196L96.8633 76.0201V71.0359H100.015V71.5885H97.4643V73.1954H99.9673V73.748H97.4643V75.4671Z" fill="#86ACE6"/>
<path fill-rule="evenodd" clip-rule="evenodd" d="M102.305 76.1218V70.9346H104.549C104.989 70.9346 105.353 71.0724 105.608 71.3177C105.863 71.5631 106 71.9079 106 72.3045C106 72.8446 105.719 73.2466 105.359 73.4411C105.785 73.6513 106.092 74.1484 106.092 74.6741C106.092 75.0956 105.957 75.4594 105.697 75.7181C105.436 75.9768 105.06 76.1202 104.599 76.1202M104.599 76.0187C105.479 76.0187 105.991 75.4732 105.991 74.6741C105.991 74.1491 105.663 73.6641 105.237 73.4981C105.178 73.4751 105.117 73.4582 105.054 73.4482C105.115 73.4347 105.176 73.4149 105.234 73.3891C105.597 73.2302 105.898 72.8452 105.898 72.3045C105.898 71.5592 105.386 71.036 104.549 71.036H102.406V76.0202L104.599 76.0187ZM105.272 72.2904C105.23 71.8926 104.945 71.5891 104.447 71.5891H103.003V73.196H104.445C104.945 73.196 105.229 72.903 105.27 72.4992C105.274 72.4683 105.275 72.4368 105.275 72.4047C105.275 72.4019 105.276 72.3991 105.276 72.3964C105.276 72.3965 105.276 72.3962 105.276 72.3964H105.278C105.278 72.3965 105.278 72.3962 105.278 72.3964C105.278 72.3937 105.278 72.3906 105.278 72.3879C105.277 72.3549 105.275 72.3223 105.272 72.2904ZM103.105 73.0946H104.445C104.694 73.0946 104.873 73.0162 104.991 72.8961C105.109 72.7754 105.174 72.6026 105.174 72.3959V72.3351C105.162 72.1585 105.099 72.006 104.992 71.8948C104.874 71.7719 104.694 71.6906 104.447 71.6906H103.105V73.0946ZM105.269 74.6419V74.6081C105.269 74.402 105.2 74.2133 105.071 74.077C104.943 73.9417 104.747 73.8501 104.477 73.8501H103.107V75.3662H104.477C104.739 75.3662 104.934 75.2899 105.064 75.1638C105.188 75.0441 105.262 74.8691 105.269 74.6419ZM105.371 74.6081C105.371 74.661 105.368 74.7123 105.361 74.761C105.302 75.2011 104.983 75.4677 104.477 75.4677H103.005V73.7486H104.477C105.007 73.7486 105.307 74.0752 105.361 74.4737C105.367 74.5174 105.37 74.562 105.37 74.6071C105.37 74.607 105.37 74.6073 105.37 74.6071C105.37 74.6073 105.371 74.608 105.371 74.6081Z" fill="#86ACE6"/>
<path fill-rule="evenodd" clip-rule="evenodd" d="M105.991 74.674C105.991 75.4731 105.479 76.0186 104.599 76.0186L102.406 76.0201V71.0359H104.549C105.386 71.0359 105.898 71.5591 105.898 72.3044C105.898 72.8451 105.597 73.2301 105.234 73.389C105.176 73.4148 105.115 73.4346 105.054 73.4481C105.117 73.4581 105.178 73.475 105.237 73.498C105.663 73.664 105.991 74.149 105.991 74.674ZM104.447 71.589C104.945 71.589 105.23 71.8925 105.272 72.2903C105.275 72.3222 105.277 72.3548 105.278 72.3878C105.278 72.3905 105.278 72.3931 105.278 72.3958H105.276C105.276 72.3985 105.275 72.4018 105.275 72.4046C105.275 72.4367 105.274 72.4682 105.27 72.4991C105.229 72.9029 104.945 73.1959 104.445 73.1959H103.003V71.589H104.447ZM105.371 74.608C105.371 74.6609 105.368 74.7122 105.361 74.7609C105.302 75.201 104.983 75.4676 104.477 75.4676H103.005V73.7485H104.477C105.007 73.7485 105.307 74.0751 105.361 74.4736C105.367 74.5173 105.37 74.5619 105.37 74.607L105.371 74.608Z" fill="#86ACE6"/>
<path d="M58.3149 9.4543C58.5179 9.5359 58.721 9.6192 58.924 9.7045C59.525 9.2549 60.99 8.1387 63.254 6.2872C79.857 20.4715 91.4189 13.5983 91.4189 13.5983C91.4189 13.5983 91.4149 12.4434 91.4149 8.9617C77.5169 15.43 63.2399 0 63.2399 0C59.3249 4.2429 54.3069 7.1264 53.0859 7.8647C54.7609 8.197 56.4949 8.7272 58.3149 9.4543Z" fill="#86ACE6"/>
<path d="M68.1793 26.0295C67.9763 25.9476 67.7733 25.8642 67.5703 25.7793C66.9693 26.2289 65.5042 27.3452 63.2402 29.1966C46.6362 15.0123 35.0742 21.8856 35.0742 21.8856C35.0742 21.8856 35.0782 23.0404 35.0782 26.5222C48.9762 20.0528 63.2532 35.4828 63.2532 35.4828C67.1682 31.2399 72.1862 28.3564 73.4072 27.6181C71.7322 27.2843 69.9983 26.7561 68.1793 26.0295Z" fill="#86ACE6"/>
<path d="M79.5223 20.2583C74.6043 20.2583 69.2163 17.8537 63.7533 15.3954C63.5553 15.3061 62.7673 14.9468 62.5713 14.8601C57.4383 12.5768 52.0733 10.4873 46.7913 10.4873C38.7853 10.4873 35.7883 12.4464 35.0703 13.0309V17.7116C35.9363 17.1981 39.8983 15.098 46.7913 15.098C51.7763 15.098 57.2443 17.568 62.7823 20.0609C62.9073 20.1167 63.2963 20.2973 63.3663 20.3288C68.6133 22.674 74.1123 24.8695 79.5203 24.8695C88.9303 24.8695 91.4203 22.163 91.4203 22.163V17.532C91.4203 17.532 87.3753 20.2583 79.5223 20.2583Z" fill="#86ACE6"/>
</svg>
