<svg width="133" height="70" viewBox="0 0 133 70" fill="none" xmlns="http://www.w3.org/2000/svg">
<path d="M19.5096 24.814C19.7856 25.5917 20.2022 26.2877 20.7593 26.9022C20.9435 27.1169 21.1386 27.3226 21.3446 27.5191C21.661 27.7511 21.9774 27.9832 22.2938 28.2152C22.4467 28.3681 22.5997 28.5211 22.7526 28.674C22.6498 29.2515 22.8027 29.7525 23.2114 30.1768C23.331 30.2233 23.4417 30.2814 23.5436 30.3509C23.6417 30.9445 23.5942 31.5246 23.4012 32.091C22.764 31.9042 22.1839 31.6089 21.661 31.2051C21.6793 31.9327 21.9535 32.5497 22.4837 33.056C22.1476 33.2403 21.789 33.3563 21.4079 33.4041C20.8923 33.4474 20.3755 33.4632 19.8576 33.4515C19.8523 33.0926 19.8365 32.734 19.8101 32.3758C19.7029 31.2458 19.0965 30.5656 17.9909 30.335C16.6864 30.13 15.5948 30.5149 14.7162 31.4899C14.2362 32.1596 13.962 32.9083 13.8936 33.7363C13.7978 34.7204 13.9349 35.6696 14.3049 36.5838C14.8668 37.759 15.7791 38.5131 17.0417 38.8461C18.1837 39.1245 19.3333 39.1562 20.4904 38.941C21.3769 38.7932 22.2417 38.5664 23.0848 38.2607C23.0901 38.7776 23.0848 39.2944 23.069 39.8111C22.9505 40.4647 22.6393 41.0079 22.1356 41.4405C21.3348 42.0358 20.4383 42.4154 19.4463 42.5795C17.7732 42.8713 16.1174 42.7974 14.4789 42.358C12.0752 41.5785 10.4985 39.9807 9.74879 37.5647C9.38804 36.2908 9.23512 34.9936 9.29002 33.673C9.00732 33.414 8.8122 33.0976 8.70469 32.7238C8.57519 32.6085 8.42228 32.5452 8.24592 32.534C8.05314 32.5554 7.8633 32.5924 7.67641 32.6447C7.4548 32.7297 7.23333 32.8036 7.01198 32.8662C7.42554 32.4452 7.69447 31.9443 7.81878 31.3633C7.85875 30.5835 7.49489 30.1248 6.72722 29.987C6.23462 29.9493 5.74948 29.981 5.27181 30.0819C5.71636 29.7465 6.00639 29.3088 6.14189 28.7689C6.20605 28.0693 5.96875 27.4946 5.43001 27.0445C4.85292 26.6137 4.20958 26.3289 3.5 26.1903C3.73925 26.0683 3.99237 25.984 4.25935 25.9372C5.85166 25.6915 7.37036 25.9236 8.81543 26.6332C9.30789 26.8934 9.72446 27.2467 10.0652 27.6932C10.3734 28.128 10.7056 28.5446 11.0618 28.9429C11.1462 29.0062 11.2306 29.0062 11.3149 28.9429C12.3713 27.9506 13.6158 27.3073 15.0484 27.0129C16.1989 26.7783 17.359 26.7151 18.5287 26.8231C18.8777 26.8522 19.2204 26.9102 19.557 26.9971C19.4675 26.7177 19.3832 26.4329 19.3039 26.1428C19.1884 25.7694 19.199 25.4003 19.3355 25.0354C19.3892 24.9557 19.4472 24.8819 19.5096 24.814Z" fill="#5BAB43"/>
<path d="M77.8082 20.2563C78.3752 20.2829 78.9325 20.3682 79.4802 20.5123C79.3036 20.6605 79.133 20.814 78.9684 20.9729C79.1383 21.1827 79.3146 21.3874 79.4973 21.5871C79.5174 21.6207 79.5061 21.6434 79.4632 21.6553C79.0083 21.5428 78.5477 21.4632 78.0812 21.4165C77.6087 21.509 77.1423 21.6285 76.6822 21.7748C76.2997 21.8615 75.913 21.8956 75.5221 21.8771C75.2134 21.8198 74.9063 21.7573 74.6008 21.6895C74.6008 22.0989 74.6008 22.5084 74.6008 22.9179C74.7259 22.9179 74.851 22.9179 74.9761 22.9179C74.9557 23.135 74.9955 23.3398 75.0956 23.532C75.6347 24.2862 76.1864 25.0312 76.7505 25.767C78.7637 25.7784 80.7769 25.7898 82.79 25.8012C83.5778 25.8206 84.3399 25.9685 85.0762 26.2447C85.8997 26.6133 86.4627 27.2218 86.7652 28.0703C86.9773 28.7244 87.091 29.3955 87.1065 30.0835C87.1292 33.5866 87.1292 37.0898 87.1065 40.593C87.1104 41.0098 87.008 41.3965 86.7994 41.7531C86.5507 42.0112 86.2493 42.1761 85.8951 42.2479C85.4211 42.3303 84.9434 42.3758 84.462 42.3844C83.7797 42.4015 83.0972 42.4072 82.4147 42.4015C82.4204 38.6367 82.4147 34.8719 82.3976 31.1071C82.2847 30.3574 81.8468 29.965 81.084 29.9299C79.5258 29.9128 77.9675 29.9071 76.4093 29.9128C76.4093 34.0416 76.4093 38.1703 76.4093 42.2991C74.851 42.2991 73.2928 42.2991 71.7346 42.2991C71.7289 36.9192 71.7346 31.5393 71.7516 26.1594C72.3867 25.2627 73.0351 24.3755 73.6966 23.4979C73.785 23.3147 73.8248 23.1213 73.816 22.9179C73.9411 22.9179 74.0662 22.9179 74.1913 22.9179C74.1913 22.1103 74.1913 21.3028 74.1913 20.4952C74.3283 20.4896 74.4648 20.4952 74.6008 20.5123C74.9532 20.616 75.3114 20.6899 75.6756 20.7341C75.8435 20.7232 76.0085 20.6948 76.1704 20.6487C76.7057 20.4523 77.2517 20.3215 77.8082 20.2563Z" fill="#292D78"/>
<path fill-rule="evenodd" clip-rule="evenodd" d="M38.9234 29.2481C39.3014 29.237 39.6767 29.2631 40.0494 29.3263C40.1412 29.3294 40.1829 29.3763 40.1745 29.467C40.1218 30.8707 39.5379 31.9915 38.4229 32.8294C37.0931 33.792 35.6856 34.6365 34.2003 35.363C34.0049 35.449 33.8068 35.4595 33.606 35.3943C33.3839 35.1531 33.1806 34.8976 32.9961 34.628C32.9753 34.5133 32.9753 34.3986 32.9961 34.2839C33.0656 34.0928 33.1594 33.9155 33.2776 33.7522C34.1508 32.6388 35.1048 31.591 36.1396 30.6087C36.9044 29.8197 37.8323 29.3661 38.9234 29.2481ZM37.4533 30.5618C38.0503 30.5331 38.3944 30.8146 38.4855 31.4063C38.3951 32.0026 38.051 32.2789 37.4533 32.2352C36.9782 32.0927 36.754 31.7747 36.7808 31.2812C36.8721 30.9137 37.0962 30.6739 37.4533 30.5618Z" fill="#005093"/>
<path fill-rule="evenodd" clip-rule="evenodd" d="M30.0433 30.9693C31.0481 30.9079 32.0385 30.9965 33.0148 31.2351C33.1751 31.2833 33.3315 31.3407 33.4839 31.4072C33.0021 31.9853 32.5277 32.5692 32.0608 33.1588C31.7943 33.5569 31.6431 33.9948 31.6072 34.4725C30.7673 34.3458 29.9436 34.4136 29.1362 34.6758C29.6314 34.7915 30.0171 35.0573 30.2935 35.4734C29.9949 35.5407 29.6925 35.598 29.3865 35.6454C28.8242 35.7752 28.355 36.0567 27.9789 36.4899C28.1074 36.4806 28.2377 36.4649 28.3699 36.443C28.8322 36.5103 29.2858 36.6146 29.7305 36.7558C29.4513 36.988 29.1854 37.2382 28.9329 37.5065C28.7219 37.7588 28.6125 38.0507 28.6045 38.3823C28.6139 38.6046 28.64 38.8235 28.6827 39.0391C28.8742 38.8209 29.1088 38.6697 29.3865 38.5856C29.6919 38.5618 29.9942 38.5201 30.2935 38.4605C30.537 38.3317 30.7299 38.1492 30.8722 37.9131C31.1133 38.2731 31.1967 38.6693 31.1224 39.1017C31.0926 39.2783 31.0457 39.4504 30.9817 39.6178C30.9921 39.6334 31.0025 39.649 31.0129 39.6647C31.4015 39.4794 31.6778 39.1875 31.8418 38.7889C31.9612 38.3995 32.0863 38.0137 32.2172 37.6316C32.6595 38.0576 32.8993 38.5789 32.9366 39.1955C33.4098 38.435 33.5766 37.6217 33.437 36.7558C33.8716 36.839 34.2939 36.7921 34.7038 36.615C35.4113 36.2613 36.1098 35.8912 36.7995 35.5046C37.0922 36.9832 36.941 38.422 36.3459 39.8211C35.4547 41.6309 34.0107 42.71 32.0139 43.0584C30.3365 43.3401 28.7622 43.0586 27.2908 42.2139C25.7699 41.1597 24.8994 39.7053 24.6791 37.8505C24.4648 36.3836 24.6838 34.9865 25.3359 33.6592C26.1882 32.2458 27.4341 31.3961 29.0737 31.11C29.4004 31.0549 29.7236 31.008 30.0433 30.9693Z" fill="#005093"/>
<path d="M47.3004 26.8169C47.5542 26.9535 47.7675 27.1414 47.9404 27.3807C47.6109 28.1439 47.4534 28.9414 47.468 29.7733C47.5074 29.2626 47.609 28.7648 47.7728 28.2798C47.8732 28.0636 48.0002 27.8655 48.1538 27.6855C48.1843 27.6652 48.2147 27.6652 48.2452 27.6855C48.4824 27.9838 48.6958 28.2987 48.8853 28.6303C48.7466 28.8618 48.6196 29.1006 48.5043 29.3466C48.4148 29.5421 48.364 29.7452 48.3519 29.9562C48.5763 29.6607 48.8303 29.3965 49.1138 29.1637C49.3385 29.6144 49.4909 30.0919 49.571 30.5962C49.6214 34.0801 49.6315 37.5648 49.6015 41.0502C49.6027 41.484 49.4554 41.8548 49.1596 42.1627C48.748 42.4075 48.301 42.5294 47.8185 42.5284C47.0571 42.5662 46.2951 42.5814 45.5327 42.5741C45.5377 41.1721 45.5327 39.7701 45.5174 38.3681C44.4549 39.8515 43.0072 40.5068 41.1743 40.334C39.8664 40.1913 38.9877 39.5056 38.5379 38.2767C38.4317 37.9385 38.3606 37.5931 38.3246 37.2404C38.28 36.4586 38.2698 35.6764 38.2941 34.8936C39.4385 34.1152 40.5307 33.2669 41.5705 32.3487C41.8621 32.0775 42.1313 31.788 42.3782 31.4801C42.3883 32.6179 42.3985 33.7558 42.4086 34.8936C42.4063 35.4183 42.518 35.9161 42.7439 36.3871C43.047 36.7658 43.4382 36.903 43.9173 36.7985C44.3195 36.7012 44.6396 36.4827 44.8774 36.1432C45.2988 35.3984 45.5121 34.5958 45.5174 33.7354C45.5276 32.6687 45.5377 31.602 45.5479 30.5352C45.6247 29.2471 46.0819 28.1194 46.9194 27.1522C47.0515 27.0435 47.1784 26.9317 47.3004 26.8169Z" fill="#EB8B2D"/>
<path d="M54.6219 23.4912C54.6418 23.4948 54.6579 23.5055 54.6703 23.5235C54.7563 23.9107 54.8424 24.2979 54.9284 24.6852C55.5066 25.6372 56.0767 26.5945 56.6387 27.5572C56.6494 30.655 56.6602 33.7529 56.671 36.8507C57.9725 34.9791 59.274 33.1075 60.5756 31.2359C60.6222 30.9381 60.6383 30.6369 60.624 30.3323C60.473 30.3377 60.3224 30.3323 60.1722 30.3162C60.5227 29.9648 60.797 29.5615 60.9951 29.1061C61.0413 28.6347 61.0574 28.1614 61.0435 27.6862C61.1618 27.6862 61.2801 27.6862 61.3984 27.6862C61.3984 27.8476 61.3984 28.0089 61.3984 28.1703C61.7964 28.1703 62.1944 28.1703 62.5924 28.1703C62.5924 28.0089 62.5924 27.8476 62.5924 27.6862C62.7107 27.6862 62.829 27.6862 62.9474 27.6862C62.9334 28.1721 62.9495 28.6562 62.9958 29.1384C63.1733 29.5634 63.4046 29.956 63.6896 30.3162C63.5393 30.3323 63.3888 30.3377 63.2378 30.3323C63.2378 30.569 63.2378 30.8056 63.2378 31.0422C63.7373 31.1424 64.216 31.3038 64.6738 31.5263C64.6953 34.7962 64.6953 38.0662 64.6738 41.3362C64.6763 41.8135 64.5095 42.2169 64.1736 42.5463C63.7916 42.7518 63.3829 42.8594 62.9474 42.869C62.1949 42.9088 61.442 42.9249 60.6885 42.9174C60.6939 40.8844 60.6885 38.8514 60.6724 36.8185C59.2364 38.9214 57.8004 41.0242 56.3644 43.1271C55.0744 43.0638 53.8266 42.8003 52.6212 42.3365C52.6158 37.3993 52.6212 32.4621 52.6373 27.5249C53.2074 26.5891 53.7775 25.6533 54.3476 24.7174C54.4535 24.3116 54.5449 23.9028 54.6219 23.4912ZM54.4928 26.46C54.5919 26.4498 54.6887 26.4605 54.7832 26.4923C54.993 26.8472 55.2027 27.2022 55.4125 27.5572C55.4286 28.0411 55.434 28.5251 55.4286 29.0093C54.9015 29.0093 54.3745 29.0093 53.8474 29.0093C53.842 28.5144 53.8474 28.0196 53.8635 27.5249C54.0903 27.1788 54.3 26.8238 54.4928 26.46Z" fill="#D9146B"/>
<path fill-rule="evenodd" clip-rule="evenodd" d="M96.8869 26.1379C96.9258 26.1403 96.9517 26.1611 96.9646 26.2001C97.1814 26.9229 97.4041 27.6429 97.6329 28.3603C98.2857 28.375 98.9384 28.3699 99.591 28.3447C99.5956 28.3774 99.5905 28.4085 99.5755 28.438C98.8572 29.104 98.22 29.8344 97.664 30.6292C97.1738 30.4963 96.6765 30.3824 96.1721 30.2873C95.7288 30.2219 95.2833 30.1856 94.8356 30.1785C94.5422 29.2344 94.1589 28.3278 93.6855 27.4589C93.6959 27.4434 93.7063 27.4278 93.7166 27.4123C94.3321 27.6434 94.9538 27.8454 95.5815 28.0184C96.0235 27.3953 96.4586 26.7685 96.8869 26.1379Z" fill="#009D90"/>
<path fill-rule="evenodd" clip-rule="evenodd" d="M93.7772 31.1427C94.9524 31.0839 96.1024 31.2238 97.2272 31.5623C98.8012 32.1543 99.6973 33.2887 99.9157 34.9657C99.9604 35.2647 99.9915 35.5652 100.009 35.8671C100.03 38.0635 100.03 40.2599 100.009 42.4563C99.9094 42.8564 99.6659 43.131 99.2785 43.2799C98.7468 43.4404 98.2029 43.5077 97.6468 43.482C96.9981 43.471 96.3506 43.4399 95.7042 43.3887C95.7094 42.8603 95.7042 42.3319 95.6887 41.8036C94.241 43.1665 92.5575 43.5758 90.6379 43.0313C89.5889 42.5935 88.9311 41.8217 88.6643 40.7157C88.44 39.7399 88.554 38.8075 89.0062 37.9184C89.3266 37.4324 89.7462 37.0542 90.265 36.784C90.8681 36.507 91.5001 36.3308 92.1609 36.2556C93.3711 36.164 94.5833 36.1277 95.7974 36.1468C95.8217 35.0991 95.3348 34.4205 94.3366 34.111C93.3472 33.8664 92.3526 33.8456 91.3528 34.0488C90.9039 34.1588 90.4584 34.2779 90.0163 34.4062C90.0429 34.0439 90.0688 33.6813 90.094 33.3184C90.164 32.7899 90.4074 32.36 90.8244 32.0285C91.3984 31.6402 92.0303 31.3915 92.7204 31.2826C93.0756 31.223 93.4279 31.1764 93.7772 31.1427ZM95.3001 38.4157C95.4452 38.4157 95.5902 38.4157 95.7353 38.4157C95.6641 39.2579 95.2911 39.9262 94.6163 40.4205C94.1888 40.6463 93.764 40.6463 93.342 40.4205C92.9406 39.9981 92.8732 39.5267 93.14 39.0063C93.3206 38.7328 93.5745 38.5722 93.9015 38.5245C94.3727 38.4911 94.839 38.4548 95.3001 38.4157Z" fill="#009D90"/>
<path d="M110.266 30.5013C112.894 30.4024 114.481 31.6394 115.026 34.2123C115.382 35.9652 115.242 37.6755 114.607 39.3432C113.372 42.1467 111.248 43.26 108.233 42.683C107.629 42.5129 107.108 42.2064 106.668 41.7634C106.652 43.3875 106.647 45.0118 106.652 46.636C105.254 46.636 103.855 46.636 102.457 46.636C102.452 41.8064 102.457 36.9767 102.473 32.1471C102.491 31.7925 102.599 31.4698 102.796 31.179C103.074 30.9247 103.402 30.7795 103.78 30.7434C104.736 30.6649 105.693 30.6272 106.652 30.6304C106.637 32.9655 106.653 35.2996 106.701 37.6329C106.791 38.2275 107.054 38.7277 107.491 39.1334C108.479 39.6629 109.356 39.5177 110.121 38.6978C110.743 37.8038 110.979 36.8142 110.831 35.729C110.784 35.2446 110.623 34.8036 110.347 34.4059C110.085 34.0838 109.746 33.9009 109.33 33.8574C108.835 33.9388 108.55 34.2292 108.475 34.7286C108.457 35.0208 108.457 35.3112 108.475 35.5999C107.803 34.6143 107.512 33.5279 107.604 32.3407C107.774 31.5901 108.22 31.0791 108.943 30.8079C109.376 30.65 109.817 30.5478 110.266 30.5013Z" fill="#84BF41"/>
<path d="M119.071 23.4937C119.113 23.4962 119.14 23.5181 119.154 23.5594C119.53 24.4207 119.869 25.2967 120.172 26.1873C120.351 26.665 120.427 27.1578 120.402 27.6655C120.237 28.1646 119.947 28.5752 119.531 28.8974C119.692 28.9419 119.829 29.024 119.942 29.1438C119.981 29.2153 119.998 29.292 119.991 29.3737C120.353 29.3737 120.714 29.3737 121.075 29.3737C121.075 31.2899 121.075 33.2062 121.075 35.1224C121.478 35.133 121.877 35.122 122.274 35.0895C123.22 33.6415 124.025 32.114 124.689 30.507C126.156 30.4906 127.623 30.4851 129.091 30.4906C129.101 30.6472 129.084 30.8005 129.041 30.9505C128.202 32.9106 127.101 34.7009 125.74 36.3214C126.24 37.096 126.727 37.879 127.202 38.6701C127.448 39.102 127.76 39.4798 128.138 39.8034C128.535 40.0679 128.973 40.172 129.452 40.1155C129.667 41.3461 129.185 42.14 128.007 42.4971C127.282 42.6673 126.549 42.7221 125.806 42.6614C125.034 42.6013 124.426 42.2564 123.983 41.6266C123.821 41.3802 123.668 41.1284 123.523 40.8711C123.103 40.021 122.692 39.1669 122.291 38.3088C121.886 38.276 121.481 38.265 121.075 38.2759C121.075 39.6666 121.075 41.0572 121.075 42.4478C119.663 42.4478 118.25 42.4478 116.838 42.4478C116.822 38.5492 116.839 34.6511 116.887 30.7534C116.949 30.0122 117.349 29.5907 118.086 29.4887C118.049 29.3086 118.103 29.1553 118.25 29.0288C118.349 28.9794 118.448 28.9301 118.546 28.881C118.302 28.6532 118.088 28.4014 117.905 28.1254C117.68 27.729 117.636 27.3129 117.774 26.8772C117.846 26.577 117.934 26.2814 118.037 25.9902C118.355 25.1461 118.7 24.3139 119.071 23.4937Z" fill="#D8232A"/>
<path d="M19.5096 24.814C19.7856 25.5917 20.2022 26.2877 20.7593 26.9022C20.9435 27.1169 21.1386 27.3226 21.3446 27.5191C21.661 27.7511 21.9774 27.9832 22.2938 28.2152C22.4467 28.3681 22.5997 28.5211 22.7526 28.674C22.6498 29.2515 22.8027 29.7525 23.2114 30.1768C23.331 30.2233 23.4417 30.2814 23.5436 30.3509C23.6417 30.9445 23.5942 31.5246 23.4012 32.091C22.764 31.9042 22.1839 31.6089 21.661 31.2051C21.6793 31.9327 21.9535 32.5497 22.4837 33.056C22.1476 33.2403 21.789 33.3563 21.4079 33.4041C20.8923 33.4474 20.3755 33.4632 19.8576 33.4515C19.8523 33.0926 19.8365 32.734 19.8101 32.3758C19.7029 31.2458 19.0965 30.5656 17.9909 30.335C16.6864 30.13 15.5948 30.5149 14.7162 31.4899C14.2362 32.1596 13.962 32.9083 13.8936 33.7363C13.7978 34.7204 13.9349 35.6696 14.3049 36.5838C14.8668 37.759 15.7791 38.5131 17.0417 38.8461C18.1837 39.1245 19.3333 39.1562 20.4904 38.941C21.3769 38.7932 22.2417 38.5664 23.0848 38.2607C23.0901 38.7776 23.0848 39.2944 23.069 39.8111C22.9505 40.4647 22.6393 41.0079 22.1356 41.4405C21.3348 42.0358 20.4383 42.4154 19.4463 42.5795C17.7732 42.8713 16.1174 42.7974 14.4789 42.358C12.0752 41.5785 10.4985 39.9807 9.74879 37.5647C9.38804 36.2908 9.23512 34.9936 9.29002 33.673C9.00732 33.414 8.8122 33.0976 8.70469 32.7238C8.57519 32.6085 8.42228 32.5452 8.24592 32.534C8.05314 32.5554 7.8633 32.5924 7.67641 32.6447C7.4548 32.7297 7.23333 32.8036 7.01198 32.8662C7.42554 32.4452 7.69447 31.9443 7.81878 31.3633C7.85875 30.5835 7.49489 30.1248 6.72722 29.987C6.23462 29.9493 5.74948 29.981 5.27181 30.0819C5.71636 29.7465 6.00639 29.3088 6.14189 28.7689C6.20605 28.0693 5.96875 27.4946 5.43001 27.0445C4.85292 26.6137 4.20958 26.3289 3.5 26.1903C3.73925 26.0683 3.99237 25.984 4.25935 25.9372C5.85166 25.6915 7.37036 25.9236 8.81543 26.6332C9.30789 26.8934 9.72446 27.2467 10.0652 27.6932C10.3734 28.128 10.7056 28.5446 11.0618 28.9429C11.1462 29.0062 11.2306 29.0062 11.3149 28.9429C12.3713 27.9506 13.6158 27.3073 15.0484 27.0129C16.1989 26.7783 17.359 26.7151 18.5287 26.8231C18.8777 26.8522 19.2204 26.9102 19.557 26.9971C19.4675 26.7177 19.3832 26.4329 19.3039 26.1428C19.1884 25.7694 19.199 25.4003 19.3355 25.0354C19.3892 24.9557 19.4472 24.8819 19.5096 24.814Z" fill="#227BDD"/>
<path d="M77.8082 20.2563C78.3752 20.2829 78.9325 20.3682 79.4802 20.5123C79.3036 20.6605 79.133 20.814 78.9684 20.9729C79.1383 21.1827 79.3146 21.3874 79.4973 21.5871C79.5174 21.6207 79.5061 21.6434 79.4632 21.6553C79.0083 21.5428 78.5477 21.4632 78.0812 21.4165C77.6087 21.509 77.1423 21.6285 76.6822 21.7748C76.2997 21.8615 75.913 21.8956 75.5221 21.8771C75.2134 21.8198 74.9063 21.7573 74.6008 21.6895C74.6008 22.0989 74.6008 22.5084 74.6008 22.9179C74.7259 22.9179 74.851 22.9179 74.9761 22.9179C74.9557 23.135 74.9955 23.3398 75.0956 23.532C75.6347 24.2862 76.1864 25.0312 76.7505 25.767C78.7637 25.7784 80.7769 25.7898 82.79 25.8012C83.5778 25.8206 84.3399 25.9685 85.0762 26.2447C85.8997 26.6133 86.4627 27.2218 86.7652 28.0703C86.9773 28.7244 87.091 29.3955 87.1065 30.0835C87.1292 33.5866 87.1292 37.0898 87.1065 40.593C87.1104 41.0098 87.008 41.3965 86.7994 41.7531C86.5507 42.0112 86.2493 42.1761 85.8951 42.2479C85.4211 42.3303 84.9434 42.3758 84.462 42.3844C83.7797 42.4015 83.0972 42.4072 82.4147 42.4015C82.4204 38.6367 82.4147 34.8719 82.3976 31.1071C82.2847 30.3574 81.8468 29.965 81.084 29.9299C79.5258 29.9128 77.9675 29.9071 76.4093 29.9128C76.4093 34.0416 76.4093 38.1703 76.4093 42.2991C74.851 42.2991 73.2928 42.2991 71.7346 42.2991C71.7289 36.9192 71.7346 31.5393 71.7516 26.1594C72.3867 25.2627 73.0351 24.3755 73.6966 23.4979C73.785 23.3147 73.8248 23.1213 73.816 22.9179C73.9411 22.9179 74.0662 22.9179 74.1913 22.9179C74.1913 22.1103 74.1913 21.3028 74.1913 20.4952C74.3283 20.4896 74.4648 20.4952 74.6008 20.5123C74.9532 20.616 75.3114 20.6899 75.6756 20.7341C75.8435 20.7232 76.0085 20.6948 76.1704 20.6487C76.7057 20.4523 77.2517 20.3215 77.8082 20.2563Z" fill="#227BDD"/>
<path fill-rule="evenodd" clip-rule="evenodd" d="M38.9234 29.2481C39.3014 29.237 39.6767 29.2631 40.0494 29.3263C40.1412 29.3294 40.1829 29.3763 40.1745 29.467C40.1218 30.8707 39.5379 31.9915 38.4229 32.8294C37.0931 33.792 35.6856 34.6365 34.2003 35.363C34.0049 35.449 33.8068 35.4595 33.606 35.3943C33.3839 35.1531 33.1806 34.8976 32.9961 34.628C32.9753 34.5133 32.9753 34.3986 32.9961 34.2839C33.0656 34.0928 33.1594 33.9155 33.2776 33.7522C34.1508 32.6388 35.1048 31.591 36.1396 30.6087C36.9044 29.8197 37.8323 29.3661 38.9234 29.2481ZM37.4533 30.5618C38.0503 30.5331 38.3944 30.8146 38.4855 31.4063C38.3951 32.0026 38.051 32.2789 37.4533 32.2352C36.9782 32.0927 36.754 31.7747 36.7808 31.2812C36.8721 30.9137 37.0962 30.6739 37.4533 30.5618Z" fill="#227BDD"/>
<path fill-rule="evenodd" clip-rule="evenodd" d="M30.0433 30.9693C31.0481 30.9079 32.0385 30.9965 33.0148 31.2351C33.1751 31.2833 33.3315 31.3407 33.4839 31.4072C33.0021 31.9853 32.5277 32.5692 32.0608 33.1588C31.7943 33.5569 31.6431 33.9948 31.6072 34.4725C30.7673 34.3458 29.9436 34.4136 29.1362 34.6758C29.6314 34.7915 30.0171 35.0573 30.2935 35.4734C29.9949 35.5407 29.6925 35.598 29.3865 35.6454C28.8242 35.7752 28.355 36.0567 27.9789 36.4899C28.1074 36.4806 28.2377 36.4649 28.3699 36.443C28.8322 36.5103 29.2858 36.6146 29.7305 36.7558C29.4513 36.988 29.1854 37.2382 28.9329 37.5065C28.7219 37.7588 28.6125 38.0507 28.6045 38.3823C28.6139 38.6046 28.64 38.8235 28.6827 39.0391C28.8742 38.8209 29.1088 38.6697 29.3865 38.5856C29.6919 38.5618 29.9942 38.5201 30.2935 38.4605C30.537 38.3317 30.7299 38.1492 30.8722 37.9131C31.1133 38.2731 31.1967 38.6693 31.1224 39.1017C31.0926 39.2783 31.0457 39.4504 30.9817 39.6178C30.9921 39.6334 31.0025 39.649 31.0129 39.6647C31.4015 39.4794 31.6778 39.1875 31.8418 38.7889C31.9612 38.3995 32.0863 38.0137 32.2172 37.6316C32.6595 38.0576 32.8993 38.5789 32.9366 39.1955C33.4098 38.435 33.5766 37.6217 33.437 36.7558C33.8716 36.839 34.2939 36.7921 34.7038 36.615C35.4113 36.2613 36.1098 35.8912 36.7995 35.5046C37.0922 36.9832 36.941 38.422 36.3459 39.8211C35.4547 41.6309 34.0107 42.71 32.0139 43.0584C30.3365 43.3401 28.7622 43.0586 27.2908 42.2139C25.7699 41.1597 24.8994 39.7053 24.6791 37.8505C24.4648 36.3836 24.6838 34.9865 25.3359 33.6592C26.1882 32.2458 27.4341 31.3961 29.0737 31.11C29.4004 31.0549 29.7236 31.008 30.0433 30.9693Z" fill="#227BDD"/>
<path d="M47.3004 26.8169C47.5542 26.9535 47.7675 27.1414 47.9404 27.3807C47.6109 28.1439 47.4534 28.9414 47.468 29.7733C47.5074 29.2626 47.609 28.7648 47.7728 28.2798C47.8732 28.0636 48.0002 27.8655 48.1538 27.6855C48.1843 27.6652 48.2147 27.6652 48.2452 27.6855C48.4824 27.9838 48.6958 28.2987 48.8853 28.6303C48.7466 28.8618 48.6196 29.1006 48.5043 29.3466C48.4148 29.5421 48.364 29.7452 48.3519 29.9562C48.5763 29.6607 48.8303 29.3965 49.1138 29.1637C49.3385 29.6144 49.4909 30.0919 49.571 30.5962C49.6214 34.0801 49.6315 37.5648 49.6015 41.0502C49.6027 41.484 49.4554 41.8548 49.1596 42.1627C48.748 42.4075 48.301 42.5294 47.8185 42.5284C47.0571 42.5662 46.2951 42.5814 45.5327 42.5741C45.5377 41.1721 45.5327 39.7701 45.5174 38.3681C44.4549 39.8515 43.0072 40.5068 41.1743 40.334C39.8664 40.1913 38.9877 39.5056 38.5379 38.2767C38.4317 37.9385 38.3606 37.5931 38.3246 37.2404C38.28 36.4586 38.2698 35.6764 38.2941 34.8936C39.4385 34.1152 40.5307 33.2669 41.5705 32.3487C41.8621 32.0775 42.1313 31.788 42.3782 31.4801C42.3883 32.6179 42.3985 33.7558 42.4086 34.8936C42.4063 35.4183 42.518 35.9161 42.7439 36.3871C43.047 36.7658 43.4382 36.903 43.9173 36.7985C44.3195 36.7012 44.6396 36.4827 44.8774 36.1432C45.2988 35.3984 45.5121 34.5958 45.5174 33.7354C45.5276 32.6687 45.5377 31.602 45.5479 30.5352C45.6247 29.2471 46.0819 28.1194 46.9194 27.1522C47.0515 27.0435 47.1784 26.9317 47.3004 26.8169Z" fill="#227BDD"/>
<path d="M54.6219 23.4912C54.6418 23.4948 54.6579 23.5055 54.6703 23.5235C54.7563 23.9107 54.8424 24.2979 54.9284 24.6852C55.5066 25.6372 56.0767 26.5945 56.6387 27.5572C56.6494 30.655 56.6602 33.7529 56.671 36.8507C57.9725 34.9791 59.274 33.1075 60.5756 31.2359C60.6222 30.9381 60.6383 30.6369 60.624 30.3323C60.473 30.3377 60.3224 30.3323 60.1722 30.3162C60.5227 29.9648 60.797 29.5615 60.9951 29.1061C61.0413 28.6347 61.0574 28.1614 61.0435 27.6862C61.1618 27.6862 61.2801 27.6862 61.3984 27.6862C61.3984 27.8476 61.3984 28.0089 61.3984 28.1703C61.7964 28.1703 62.1944 28.1703 62.5924 28.1703C62.5924 28.0089 62.5924 27.8476 62.5924 27.6862C62.7107 27.6862 62.829 27.6862 62.9474 27.6862C62.9334 28.1721 62.9495 28.6562 62.9958 29.1384C63.1733 29.5634 63.4046 29.956 63.6896 30.3162C63.5393 30.3323 63.3888 30.3377 63.2378 30.3323C63.2378 30.569 63.2378 30.8056 63.2378 31.0422C63.7373 31.1424 64.216 31.3038 64.6738 31.5263C64.6953 34.7962 64.6953 38.0662 64.6738 41.3362C64.6763 41.8135 64.5095 42.2169 64.1736 42.5463C63.7916 42.7518 63.3829 42.8594 62.9474 42.869C62.1949 42.9088 61.442 42.9249 60.6885 42.9174C60.6939 40.8844 60.6885 38.8514 60.6724 36.8185C59.2364 38.9214 57.8004 41.0242 56.3644 43.1271C55.0744 43.0638 53.8266 42.8003 52.6212 42.3365C52.6158 37.3993 52.6212 32.4621 52.6373 27.5249C53.2074 26.5891 53.7775 25.6533 54.3476 24.7174C54.4535 24.3116 54.5449 23.9028 54.6219 23.4912ZM54.4928 26.46C54.5919 26.4498 54.6887 26.4605 54.7832 26.4923C54.993 26.8472 55.2027 27.2022 55.4125 27.5572C55.4286 28.0411 55.434 28.5251 55.4286 29.0093C54.9015 29.0093 54.3745 29.0093 53.8474 29.0093C53.842 28.5144 53.8474 28.0196 53.8635 27.5249C54.0903 27.1788 54.3 26.8238 54.4928 26.46Z" fill="#227BDD"/>
<path fill-rule="evenodd" clip-rule="evenodd" d="M96.8869 26.1379C96.9258 26.1403 96.9517 26.1611 96.9646 26.2001C97.1814 26.9229 97.4041 27.6429 97.6329 28.3603C98.2857 28.375 98.9384 28.3699 99.591 28.3447C99.5956 28.3774 99.5905 28.4085 99.5755 28.438C98.8572 29.104 98.22 29.8344 97.664 30.6292C97.1738 30.4963 96.6765 30.3824 96.1721 30.2873C95.7288 30.2219 95.2833 30.1856 94.8356 30.1785C94.5422 29.2344 94.1589 28.3278 93.6855 27.4589C93.6959 27.4434 93.7063 27.4278 93.7166 27.4123C94.3321 27.6434 94.9538 27.8454 95.5815 28.0184C96.0235 27.3953 96.4586 26.7685 96.8869 26.1379Z" fill="#227BDD"/>
<path fill-rule="evenodd" clip-rule="evenodd" d="M93.7772 31.1427C94.9524 31.0839 96.1024 31.2238 97.2272 31.5623C98.8012 32.1543 99.6973 33.2887 99.9157 34.9657C99.9604 35.2647 99.9915 35.5652 100.009 35.8671C100.03 38.0635 100.03 40.2599 100.009 42.4563C99.9094 42.8564 99.6659 43.131 99.2785 43.2799C98.7468 43.4404 98.2029 43.5077 97.6468 43.482C96.9981 43.471 96.3506 43.4399 95.7042 43.3887C95.7094 42.8603 95.7042 42.3319 95.6887 41.8036C94.241 43.1665 92.5575 43.5758 90.6379 43.0313C89.5889 42.5935 88.9311 41.8217 88.6643 40.7157C88.44 39.7399 88.554 38.8075 89.0062 37.9184C89.3266 37.4324 89.7462 37.0542 90.265 36.784C90.8681 36.507 91.5001 36.3308 92.1609 36.2556C93.3711 36.164 94.5833 36.1277 95.7974 36.1468C95.8217 35.0991 95.3348 34.4205 94.3366 34.111C93.3472 33.8664 92.3526 33.8456 91.3528 34.0488C90.9039 34.1588 90.4584 34.2779 90.0163 34.4062C90.0429 34.0439 90.0688 33.6813 90.094 33.3184C90.164 32.7899 90.4074 32.36 90.8244 32.0285C91.3984 31.6402 92.0303 31.3915 92.7204 31.2826C93.0756 31.223 93.4279 31.1764 93.7772 31.1427ZM95.3001 38.4157C95.4452 38.4157 95.5902 38.4157 95.7353 38.4157C95.6641 39.2579 95.2911 39.9262 94.6163 40.4205C94.1888 40.6463 93.764 40.6463 93.342 40.4205C92.9406 39.9981 92.8732 39.5267 93.14 39.0063C93.3206 38.7328 93.5745 38.5722 93.9015 38.5245C94.3727 38.4911 94.839 38.4548 95.3001 38.4157Z" fill="#227BDD"/>
<path d="M110.266 30.5013C112.894 30.4024 114.481 31.6394 115.026 34.2123C115.382 35.9652 115.242 37.6755 114.607 39.3432C113.372 42.1467 111.248 43.26 108.233 42.683C107.629 42.5129 107.108 42.2064 106.668 41.7634C106.652 43.3875 106.647 45.0118 106.652 46.636C105.254 46.636 103.855 46.636 102.457 46.636C102.452 41.8064 102.457 36.9767 102.473 32.1471C102.491 31.7925 102.599 31.4698 102.796 31.179C103.074 30.9247 103.402 30.7795 103.78 30.7434C104.736 30.6649 105.693 30.6272 106.652 30.6304C106.637 32.9655 106.653 35.2996 106.701 37.6329C106.791 38.2275 107.054 38.7277 107.491 39.1334C108.479 39.6629 109.356 39.5177 110.121 38.6978C110.743 37.8038 110.979 36.8142 110.831 35.729C110.784 35.2446 110.623 34.8036 110.347 34.4059C110.085 34.0838 109.746 33.9009 109.33 33.8574C108.835 33.9388 108.55 34.2292 108.475 34.7286C108.457 35.0208 108.457 35.3112 108.475 35.5999C107.803 34.6143 107.512 33.5279 107.604 32.3407C107.774 31.5901 108.22 31.0791 108.943 30.8079C109.376 30.65 109.817 30.5478 110.266 30.5013Z" fill="#227BDD"/>
<path d="M119.071 23.4937C119.113 23.4962 119.14 23.5181 119.154 23.5594C119.53 24.4207 119.869 25.2967 120.172 26.1873C120.351 26.665 120.427 27.1578 120.402 27.6655C120.237 28.1646 119.947 28.5752 119.531 28.8974C119.692 28.9419 119.829 29.024 119.942 29.1438C119.981 29.2153 119.998 29.292 119.991 29.3737C120.353 29.3737 120.714 29.3737 121.075 29.3737C121.075 31.2899 121.075 33.2062 121.075 35.1224C121.478 35.133 121.877 35.122 122.274 35.0895C123.22 33.6415 124.025 32.114 124.689 30.507C126.156 30.4906 127.623 30.4851 129.091 30.4906C129.101 30.6472 129.084 30.8005 129.041 30.9505C128.202 32.9106 127.101 34.7009 125.74 36.3214C126.24 37.096 126.727 37.879 127.202 38.6701C127.448 39.102 127.76 39.4798 128.138 39.8034C128.535 40.0679 128.973 40.172 129.452 40.1155C129.667 41.3461 129.185 42.14 128.007 42.4971C127.282 42.6673 126.549 42.7221 125.806 42.6614C125.034 42.6013 124.426 42.2564 123.983 41.6266C123.821 41.3802 123.668 41.1284 123.523 40.8711C123.103 40.021 122.692 39.1669 122.291 38.3088C121.886 38.276 121.481 38.265 121.075 38.2759C121.075 39.6666 121.075 41.0572 121.075 42.4478C119.663 42.4478 118.25 42.4478 116.838 42.4478C116.822 38.5492 116.839 34.6511 116.887 30.7534C116.949 30.0122 117.349 29.5907 118.086 29.4887C118.049 29.3086 118.103 29.1553 118.25 29.0288C118.349 28.9794 118.448 28.9301 118.546 28.881C118.302 28.6532 118.088 28.4014 117.905 28.1254C117.68 27.729 117.636 27.3129 117.774 26.8772C117.846 26.577 117.934 26.2814 118.037 25.9902C118.355 25.1461 118.7 24.3139 119.071 23.4937Z" fill="#227BDD"/>
</svg>
