<svg width="22" height="22" viewBox="0 0 22 22" fill="none" xmlns="http://www.w3.org/2000/svg">
<path fill-rule="evenodd" clip-rule="evenodd" d="M4.69104 5.60361e-07C4.07492 -0.000300648 3.46478 0.120831 2.8955 0.356471C2.32622 0.592112 1.80897 0.93764 1.3733 1.3733C0.937639 1.80897 0.592111 2.32622 0.356471 2.8955C0.120831 3.46478 -0.000300648 4.07492 5.60363e-07 4.69104V22H17.309C17.9251 22.0003 18.5352 21.8792 19.1045 21.6435C19.6738 21.4079 20.191 21.0624 20.6267 20.6267C21.0624 20.191 21.4079 19.6738 21.6435 19.1045C21.8792 18.5352 22.0003 17.9251 22 17.309V5.60361e-07H4.69104ZM4.72083 6.76958C4.30974 6.76958 3.90787 6.64768 3.56606 6.41929C3.22424 6.19089 2.95783 5.86627 2.80051 5.48647C2.64319 5.10666 2.60203 4.68874 2.68223 4.28554C2.76243 3.88234 2.96039 3.51198 3.25108 3.22129C3.54177 2.9306 3.91213 2.73264 4.31533 2.65244C4.71853 2.57224 5.13645 2.6134 5.51626 2.77072C5.89606 2.92804 6.22068 3.19445 6.44908 3.53627C6.67747 3.87808 6.79937 4.27994 6.79937 4.69104C6.79937 5.2423 6.58039 5.77099 6.19058 6.16079C5.80078 6.55059 5.2721 6.76958 4.72083 6.76958ZM11.0298 19.3875C10.6187 19.3875 10.2168 19.2656 9.87502 19.0372C9.5332 18.8088 9.26679 18.4842 9.10947 18.1044C8.95215 17.7246 8.91099 17.3067 8.99119 16.9035C9.07139 16.5003 9.26935 16.1299 9.56004 15.8392C9.85073 15.5485 10.2211 15.3506 10.6243 15.2704C11.0275 15.1902 11.4454 15.2313 11.8252 15.3886C12.205 15.546 12.5296 15.8124 12.758 16.1542C12.9864 16.496 13.1083 16.8979 13.1083 17.309C13.1083 17.8602 12.8893 18.3889 12.4995 18.7787C12.1097 19.1685 11.5811 19.3875 11.0298 19.3875ZM11.0298 13.0785C10.6187 13.0785 10.2168 12.9566 9.87502 12.7282C9.5332 12.4999 9.26679 12.1752 9.10947 11.7954C8.95215 11.4156 8.91099 10.9977 8.99119 10.5945C9.07139 10.1913 9.26935 9.82094 9.56004 9.53025C9.85073 9.23956 10.2211 9.0416 10.6243 8.9614C11.0275 8.8812 11.4454 8.92236 11.8252 9.07968C12.205 9.237 12.5296 9.50341 12.758 9.84522C12.9864 10.187 13.1083 10.5889 13.1083 11C13.1083 11.5513 12.8893 12.0799 12.4995 12.4698C12.1097 12.8596 11.5811 13.0785 11.0298 13.0785ZM11.0298 6.76958C10.6187 6.76958 10.2168 6.64768 9.87502 6.41929C9.5332 6.19089 9.26679 5.86627 9.10947 5.48647C8.95215 5.10666 8.91099 4.68874 8.99119 4.28554C9.07139 3.88234 9.26935 3.51198 9.56004 3.22129C9.85073 2.9306 10.2211 2.73264 10.6243 2.65244C11.0275 2.57224 11.4454 2.6134 11.8252 2.77072C12.205 2.92804 12.5296 3.19445 12.758 3.53627C12.9864 3.87808 13.1083 4.27994 13.1083 4.69104C13.1083 4.964 13.0546 5.23428 12.9501 5.48647C12.8457 5.73865 12.6926 5.96778 12.4995 6.16079C12.3065 6.3538 12.0774 6.50691 11.8252 6.61136C11.573 6.71582 11.3027 6.76958 11.0298 6.76958ZM17.3387 19.3875C16.9277 19.3875 16.5258 19.2656 16.184 19.0372C15.8422 18.8088 15.5757 18.4842 15.4184 18.1044C15.2611 17.7246 15.2199 17.3067 15.3001 16.9035C15.3803 16.5003 15.5783 16.1299 15.869 15.8392C16.1597 15.5485 16.53 15.3506 16.9332 15.2704C17.3364 15.1902 17.7544 15.2313 18.1342 15.3886C18.514 15.546 18.8386 15.8124 19.067 16.1542C19.2954 16.496 19.4173 16.8979 19.4173 17.309C19.4173 17.8602 19.1983 18.3889 18.8085 18.7787C18.4187 19.1685 17.89 19.3875 17.3387 19.3875ZM17.3387 6.76958C16.9277 6.76958 16.5258 6.64768 16.184 6.41929C15.8422 6.19089 15.5757 5.86627 15.4184 5.48647C15.2611 5.10666 15.2199 4.68874 15.3001 4.28554C15.3803 3.88234 15.5783 3.51198 15.869 3.22129C16.1597 2.9306 16.53 2.73264 16.9332 2.65244C17.3364 2.57224 17.7544 2.6134 18.1342 2.77072C18.514 2.92804 18.8386 3.19445 19.067 3.53627C19.2954 3.87808 19.4173 4.27994 19.4173 4.69104C19.4173 4.964 19.3635 5.23428 19.2591 5.48647C19.1546 5.73865 19.0015 5.96778 18.8085 6.16079C18.6155 6.3538 18.3864 6.50691 18.1342 6.61136C17.882 6.71582 17.6117 6.76958 17.3387 6.76958Z" fill="#507BCE"/>
</svg>
